<?xml version="1.0" encoding="UTF-8" standalone="no"?>
<!-- Created with Inkscape (http://www.inkscape.org/) -->

<svg
   width="500"
   height="900"
   viewBox="0 0 500 900"
   version="1.1"
   id="saga_de_billy"
   xml:space="preserve"
   xmlns:xlink="http://www.w3.org/1999/xlink"
   xmlns="http://www.w3.org/2000/svg"
   xmlns:svg="http://www.w3.org/2000/svg"><defs
     id="defs1"><path
       id="contour"
       style="display:inline;opacity:1;mix-blend-mode:normal;fill:#000000;fill-opacity:1;stroke-linejoin:round"
       d="M 250,0 0,360 250,900 500,360 Z M 250,40 355,190 250,60 145,190 Z M 475,360 250,820 25,360 250,80 Z M 400,540 250,875 100,540 250,855 Z" /></defs><g
     id="CDSI"
     x="100%"
     width="100%"
     height="100%"
     style="display:inline"><path
       d="m 242.63504,688.47713 -2.6993,-1.52248 -0.59813,-1.89497 -0.5981,-1.89494 0.99589,-2.63393 0.9959,-2.63394 4.31492,-3.77544 4.31493,-3.77542 6.60735,-6.63089 6.60736,-6.6309 2.80424,-4.8151 2.80423,-4.81509 2.44016,-6.82611 2.44017,-6.82612 0.95519,-11.84545 0.9552,-11.84545 -0.8631,-8.90627 -0.86309,-8.90627 -3.54211,-9.19625 -3.54212,-9.19625 -3.56379,-7.11595 -3.56379,-7.11597 -5.94258,-7.47633 -5.94256,-7.47637 -12.48585,-11.70222 -12.48586,-11.7022 -9.55623,-8.54338 -9.55624,-8.54336 -11.97559,-11.64121 -11.97559,-11.64121 -5.45815,-6.85535 -5.45814,-6.85534 -1.44934,-3.48801 -1.44936,-3.488 v -3.87917 -3.87918 l -1.01952,-1.02518 -1.01952,-1.02517 5.38258,-15.12067 5.38258,-15.12068 1.62356,-3.03683 1.62355,-3.03684 5.33879,-5.66367 5.33877,-5.66365 4.53015,-2.83578 4.53017,-2.83577 3.14724,-2.74783 3.14725,-2.74783 7.35647,-1.09791 7.35648,-1.09792 0.82168,0.51064 0.82166,0.51065 v -0.51826 -0.51824 l -1.1683,-2.57834 -1.16828,-2.57832 h -1.81766 -1.81768 l -3.40743,-1.63391 -3.40743,-1.6339 -7.32396,1.67502 -7.32397,1.67504 -0.55487,-0.55796 -0.55489,-0.55796 2.0891,-1.95707 2.0891,-1.95707 0.35439,-0.81601 0.35439,-0.81599 3.45264,-2.87144 3.45263,-2.87144 4.54855,0.68588 4.54857,0.68588 -1.08157,-1.35743 -1.08156,-1.35742 -4.1512,-11.96071 -4.1512,-11.96073 v -1.98989 -1.98988 l -1.33645,-0.51569 -1.33645,-0.51569 -2.81853,1.07755 -2.81853,1.07755 -3.40741,-2.02157 -3.40741,-2.02157 -6.53143,-0.67287 -6.53144,-0.67287 v -0.85319 -0.85322 l 2.42166,-0.61116 2.42162,-0.61116 0.47345,-1.8205 0.47345,-1.8205 3.90016,-0.56714 3.90014,-0.56711 3.27367,-0.67865 3.27369,-0.67864 2.51484,1.65692 2.51487,1.65694 v -15.67806 -15.67805 l -2.10119,-1.13074 -2.10117,-1.13074 -4.92007,0.68043 -4.92005,0.68042 -4.62482,3.55089 -4.62481,3.55087 -0.56987,-0.57302 -0.56987,-0.57302 1.25106,-3.03704 1.25104,-3.03704 4.16964,-3.36106 4.16963,-3.36107 4.20154,-1.85142 4.20153,-1.85144 -0.50424,-1.32132 -0.50424,-1.32129 -1.29919,-0.50132 -1.29919,-0.50131 -6.92825,3.4894 -6.92827,3.48941 -6.54356,3.87749 -6.54356,3.87748 -2.0236,5.6387 -2.0236,5.6387 -2.10736,2.86618 -2.10739,2.86616 -5.43269,2.9353 -5.43269,2.93529 -3.77185,2.95631 -3.77187,2.95631 -4.28175,2.28804 -4.28175,2.28806 0.35011,2.43781 0.35012,2.43783 0.26529,0.28138 0.2653,0.2814 2.90804,-1.12113 2.90805,-1.12112 4.02681,0.63783 4.0268,0.63782 2.21233,1.45583 2.21235,1.45584 1.5208,-0.58682 1.52083,-0.58682 2.59788,-4.45752 2.59788,-4.45751 2.93097,-1.52407 2.93095,-1.52405 h 1.47616 1.47616 l 0.35397,1.0678 0.35397,1.06781 4.51175,-2.05786 4.51175,-2.05785 5.53685,0.0887 5.53686,0.0886 -4.20156,0.83538 -4.20157,0.83538 -3.28739,1.70939 -3.28737,1.70939 -5.79019,4.65896 -5.79021,4.65896 0.40499,0.40723 0.40498,0.40724 4.6795,-2.21182 4.6795,-2.21181 0.42628,0.42865 0.42629,0.42865 -3.55702,3.5767 -3.55701,3.57674 v 2.56603 2.56602 l -0.96265,2.54598 -0.96265,2.54601 -5.63257,2.67938 -5.63257,2.6794 -1.94329,2.09742 -1.94326,2.09742 -2.43858,-1.11725 -2.43857,-1.11725 -1.85714,2.06349 -1.85716,2.06351 -4.18811,2.46798 -4.1881,2.468 -0.57482,1.50625 -0.57481,1.50624 1.49958,7.16831 1.49959,7.1683 0.55309,0.89988 0.5531,0.8999 h 3.36557 3.36556 l 1.05282,-3.03683 1.05281,-3.03684 h 1.60227 1.60229 l 3.8833,-3.9837 3.88332,-3.98371 3.69085,-0.69625 3.69085,-0.69623 4.21472,0.75353 4.21471,0.75355 3.85329,-0.10536 3.85326,-0.10536 -0.40415,1.24799 -0.40415,1.248 -2.87163,1.40614 -2.87163,1.40615 -5.82602,-0.083 -5.82603,-0.083 0.60588,3.04618 0.60588,3.04617 -3.91431,4.06548 -3.91431,4.06547 -2.51676,1.29915 -2.51674,1.29915 -5.28519,1.24908 -5.28518,1.2491 v 1.23371 1.23372 l 1.5362,5.20165 1.53622,5.20163 1.07335,0.66705 1.07337,0.66704 3.00057,-3.66039 3.0006,-3.6604 h 2.4176 2.41761 l 1.64228,-3.28991 1.64229,-3.2899 5.61065,-5.77996 5.61065,-5.77999 2.82317,-0.62349 2.82318,-0.62352 5.58748,1.63334 5.58749,1.63332 3.74126,-1.04482 3.74126,-1.0448 2.26507,-0.006 2.2651,-0.005 v 0.9863 0.98628 l -3.2718,1.69515 -3.27177,1.69517 -1.31948,1.87958 -1.3195,1.8796 -3.21066,1.6426 -3.21068,1.6426 -5.28563,4.50396 -5.28564,4.50396 -0.65785,2.7051 -0.65784,2.70511 -2.78909,5.06138 -2.7891,5.06141 -0.69372,4.80832 -0.69371,4.80833 h -0.94162 -0.94161 l -1.94207,-4.30219 -1.94209,-4.30219 -0.10601,-2.53069 -0.10602,-2.5307 -2.43216,5.16538 -2.43215,5.16541 1.16104,3.34902 1.16104,3.34901 3.97165,6.01259 3.97168,6.01258 -0.99851,1.00403 -0.99851,1.00405 -2.12285,-1.1424 -2.12282,-1.1424 -2.65276,-5.26396 -2.65274,-5.26395 -2.3379,-3.72399 -2.3379,-3.72398 -4.42515,-8.43754 -4.42512,-8.43752 -3.19898,-10.31917 -3.19896,-10.31919 -1.96864,-8.91411 -1.96864,-8.91414 -1.52247,-4.96921 -1.52248,-4.9692 0.009,-10.21497 0.009,-10.21499 1.02176,-11.60869 1.02177,-11.60869 2.37233,-8.70547 2.37235,-8.70547 1.72742,-3.35896 1.72741,-3.35897 2.50508,-6.69525 2.50504,-6.69525 5.67243,-9.11051 5.6724,-9.11051 4.90972,-5.56753 4.90972,-5.56754 13.74544,-12.40892 13.74544,-12.40894 6.54356,-4.4353 6.54356,-4.4353 10.57036,-3.64362 10.57037,-3.64364 16.10722,-3.08059 16.10722,-3.08057 7.04691,-0.55488 7.04692,-0.55488 6.04021,2.21061 6.04021,2.21061 7.15593,0.73095 7.15593,0.73097 3.24694,2.05656 3.24696,2.05659 6.71104,4.09922 6.71105,4.09922 7.77922,6.68509 7.77923,6.68509 6.26756,7.55202 6.26757,7.552 4.90916,9.30713 4.90916,9.30712 3.083,11.72731 3.083,11.7273 0.0757,15.69034 0.0757,15.69033 -1.7716,7.08595 -1.77159,7.08595 -6.49156,13.26224 -6.49155,13.26225 -3.9054,5.78609 -3.90537,5.78607 -7.20419,7.98383 -7.20419,7.98382 -13.23317,10.2939 -13.23317,10.29393 -9.13942,4.28769 -9.1394,4.2877 -2.32051,0.73479 -2.32048,0.73481 0.30709,0.87307 0.30709,0.87306 8.12203,7.39233 8.12204,7.39232 5.93914,6.57982 5.93912,6.57982 4.65057,4.55526 4.65057,4.55526 1.03811,2.02455 1.03812,2.02455 0.7032,3.91256 0.70321,3.91255 4.24461,4.32938 4.2446,4.32937 1.29627,5.08571 1.29625,5.08573 3.08955,4.89338 3.08956,4.89338 1.77818,4.16461 1.77817,4.16464 2.54717,9.50114 2.54716,9.50114 1.17335,6.57981 1.17335,6.57982 0.24979,8.60437 0.24979,8.60437 -1.90146,12.14735 -1.90146,12.14735 -3.12881,10.1228 -3.12881,10.12279 -5.53936,10.03726 -5.53938,10.03727 -4.62258,6.66533 -4.62258,6.66534 -4.59401,6.11879 -4.59399,6.11881 -9.00553,8.94496 -9.00552,8.94499 -6.86947,4.51993 -6.86946,4.51993 -6.39466,2.91554 -6.39465,2.91553 -3.84981,0.53827 -3.8498,0.53828 z m 62.52838,-51.42627 1.09318,-3.33074 -1.61287,-5.5267 -1.61286,-5.52669 -2.09449,-2.27764 -2.09448,-2.27762 h -2.41493 -2.41493 l -3.49665,3.91664 -3.49666,3.91661 -3.97995,1.80465 -3.97994,1.80465 v 0.96684 0.96685 l 1.76172,-0.70057 1.76173,-0.70056 3.13183,-0.52963 3.13184,-0.52964 4.60481,2.0482 4.6048,2.04822 2.33038,3.61641 2.33037,3.61641 0.67696,0.0125 0.67695,0.0125 z m 3.95202,-23.24158 -0.35891,-7.33902 2.80235,-0.3236 2.80237,-0.3236 2.94999,3.17548 2.95,3.17548 0.65172,-2.61104 0.65172,-2.61104 -2.64798,-5.44224 -2.64798,-5.44225 -2.24604,-0.6034 -2.24605,-0.6034 -1.0067,1.24955 -1.0067,1.24955 -6.70556,0.27429 -6.70557,0.2743 -2.00036,-2.55713 -2.00035,-2.55714 -4.60711,-0.63496 -4.6071,-0.63497 -1.09546,2.8972 -1.09544,2.89721 -1.07998,0.67115 -1.07996,0.67117 0.67398,2.70024 0.67397,2.70025 3.06298,-2.59159 3.06295,-2.5916 3.6979,0.0385 3.69788,0.0385 6.38749,2.77184 6.3875,2.77185 -0.34729,0.94586 -0.34728,0.94587 -4.53015,0.27502 -4.53016,0.27502 -4.02681,0.35541 -4.0268,0.35541 -4.27848,0.16861 -4.27849,0.16869 v 4.49834 4.49834 l 4.73402,-2.10567 4.73399,-2.10568 h 3.87625 3.87629 l 2.71511,2.54847 2.71513,2.54845 3.0201,1.59816 3.02011,1.59815 0.35891,0.0406 0.35889,0.0404 z m 18.0625,-21.40137 1.26193,-5.45798 -6.64966,-6.43629 -6.64966,-6.43631 -3.51204,-1.83093 -3.51202,-1.83092 -3.70679,2.20078 -3.70678,2.20081 -6.83599,0.9538 -6.836,0.9538 -3.62317,2.47237 -3.62319,2.47238 h -1.99876 -1.99876 l 0.63969,3.2161 0.63967,3.2161 0.42212,0.42444 0.42212,0.42446 4.53557,-3.13784 4.53558,-3.13786 14.55121,0.0982 14.5512,0.0982 3.04399,1.86142 3.04399,1.86142 1.25431,5.63587 1.25429,5.63586 h 0.61759 0.61761 z m 4.24271,-19.89878 1.09764,-4.09887 -0.46193,-1.72173 -0.46191,-1.72171 -0.59647,-2.70511 -0.59646,-2.70512 -3.77058,-1.25129 -3.7706,-1.2513 -4.4334,-2.37033 -4.43342,-2.37034 -3.12186,0.0445 -3.12183,0.0445 -3.98178,1.42615 -3.98179,1.42612 -4.07183,-0.54682 -4.07182,-0.54682 -3.43521,3.10932 -3.43521,3.1093 -1.92584,0.61461 -1.92585,0.61465 -0.51941,-0.52228 -0.51939,-0.52229 0.61578,-1.9509 0.61577,-1.95088 8.0331,-3.79059 8.03312,-3.79061 v -1.2743 -1.27433 l 3.27177,-1.05539 3.27179,-1.05536 -5.25103,-0.10335 -5.25104,-0.10333 -3.30592,1.45657 -3.30595,1.45657 -2.70132,0.57035 -2.70134,0.57032 -0.63829,2.02221 -0.63829,2.0222 h -1.26671 -1.26674 l -2.07113,2.27762 -2.07112,2.27764 -1.53188,3.05308 -1.53187,3.05309 -0.2632,3.02059 -0.2632,3.02058 0.78251,3.21988 0.78252,3.21987 3.31364,-1.58892 3.31364,-1.58892 1.08483,-2.39413 1.08482,-2.39412 5.7741,-2.56774 5.77412,-2.56773 1.89375,-1.72332 1.89376,-1.72331 7.70412,0.083 7.70412,0.083 4.72661,2.18734 4.7266,2.18734 h 1.34128 1.34129 l 2.2374,1.57583 2.2374,1.57582 v 0.88581 0.88581 l -2.42459,-0.25992 -2.42459,-0.25994 -2.47818,-1.63275 -2.47819,-1.63278 -3.4025,0.002 -3.40253,0.002 -3.91558,-0.69814 -3.91559,-0.69818 -6.90645,3.35965 -6.90646,3.35955 v 1.32285 1.32286 l 0.75503,-0.006 0.75502,-0.006 3.8405,-1.07238 3.8405,-1.07236 1.89189,-1.90237 1.89189,-1.90237 3.40415,-0.64214 3.40418,-0.64217 5.46062,1.60096 5.46061,1.60098 3.24313,1.98916 3.24312,1.98917 1.27753,2.05696 1.2775,2.05696 h 0.72574 0.72575 z m -63.41538,-19.91666 1.30305,-4.83439 1.79584,-3.63882 1.79585,-3.63883 3.56123,-3.14414 3.56125,-3.14413 3.79666,-0.59844 3.79665,-0.59846 2.85316,-0.45549 2.85315,-0.45547 3.18706,-2.28591 3.18704,-2.2859 6.54356,0.0102 6.54356,0.0102 4.81313,1.8576 4.81311,1.85758 2.40694,4.77618 2.40694,4.77617 1.7533,1.45483 1.75332,1.45484 -0.69648,-4.55525 -0.69647,-4.55526 -1.56423,-5.06139 -1.56423,-5.0614 -3.15211,-7.5921 -3.15209,-7.59209 -0.11051,-0.24252 -0.11051,-0.24253 -2.96603,-0.59649 -2.96601,-0.59649 -3.34793,3.21719 -3.34792,3.21719 -4.33911,-0.65429 -4.33914,-0.65431 -5.17332,0.69007 -5.17333,0.69006 -1.48407,2.88578 -1.48406,2.88577 -4.19763,2.03932 -4.19763,2.03833 h -0.38211 -0.3821 l 0.71561,-2.27762 0.71562,-2.27764 1.76969,-1.25282 1.76969,-1.25283 -0.099,-3.50864 -0.099,-3.50865 1.95991,-2.18388 1.95994,-2.18386 8.0536,-4.12717 8.05362,-4.12717 5.53686,-1.15484 5.53685,-1.15486 v -0.93228 -0.93224 l -1.66359,-2.36199 -1.66358,-2.36198 -3.87327,-0.90422 -3.87327,-0.90423 -4.95006,0.63529 -4.95005,0.63529 -2.76335,2.65541 -2.76334,2.65543 -6.22952,1.38968 -6.22954,1.38968 -0.90013,-1.41419 -0.90012,-1.41417 1.97124,-1.65108 1.97125,-1.65106 4.39773,-0.66314 4.39773,-0.66314 3.94391,-4.06339 3.94394,-4.06338 2.5727,-1.29181 2.5727,-1.29181 2.21877,0.99553 2.21878,0.99554 0.63007,-0.63357 0.63008,-0.63356 -1.54539,-2.37163 -1.54539,-2.37162 -3.99296,-1.20294 -3.99285,-1.20296 h -7.71748 -7.71748 l -3.41009,1.43272 -3.41009,1.43272 -1.12316,2.11026 -1.12314,2.11026 h -1.07081 -1.07082 l -3.48267,1.66179 -3.48269,1.6618 -0.98095,-0.9864 -0.98095,-0.98638 0.57131,-1.49704 0.5713,-1.49703 3.39274,-1.23362 3.39272,-1.23363 1.61531,-2.47893 1.61532,-2.47895 2.7722,-1.4415 2.77221,-1.44151 5.02024,-0.74209 5.02025,-0.74208 2.26508,-0.84925 2.26507,-0.84925 v -0.92093 -0.92091 l -2.57519,-1.69669 -2.57521,-1.69668 -6.73678,-1.29803 -6.73679,-1.29804 -4.35315,-2.24197 -4.35315,-2.24198 1.20464,-1.45953 1.20463,-1.45955 h 1.66615 1.66614 l 2.25422,-1.58768 2.25425,-1.58768 -0.49788,-0.81005 -0.49787,-0.81006 -3.97769,-0.63957 -3.97768,-0.63958 -1.51726,-1.52568 -1.51726,-1.52565 -2.32931,0.94423 -2.3293,0.94423 -4.75746,1.30182 -4.75747,1.30179 -0.92258,2.66126 -0.9226,2.66123 -5.89702,2.33772 -5.897,2.33774 -1.25838,1.56055 -1.25838,1.56057 v 1.83109 1.83108 h 1.94012 1.94009 l 2.89188,-3.52779 2.89189,-3.52778 5.59489,-1.93559 5.5949,-1.9356 1.29687,0.80595 1.29687,0.80597 -0.61844,1.62059 -0.61845,1.62057 h -1.54165 -1.54164 v 0.93377 0.93379 l -3.55911,1.18111 -3.55911,1.18112 -1.55464,2.38581 -1.55461,2.38579 -4.74817,1.58584 -4.74817,1.58582 -4.23191,6.47239 -4.23192,6.47242 v 2.41982 2.4198 l -4.12157,4.00149 -4.12157,4.0015 -0.91359,2.34788 -0.91359,2.34788 0.59524,2.20737 0.59525,2.20738 2.97975,2.39616 2.97975,2.39617 0.44886,-0.45132 0.44885,-0.45135 1.26298,-6.16218 1.26299,-6.16217 4.53016,-4.81705 4.53015,-4.81705 2.01341,-4.11503 2.0134,-4.11502 3.00335,-1.52863 3.00336,-1.52864 1.2275,-1.51841 1.22752,-1.51842 0.62325,-2.74848 0.62325,-2.74849 6.44966,-5.09668 6.44967,-5.09667 h 1.02831 1.02831 v 1.99022 1.99022 l -1.71146,3.60886 -1.71147,3.60887 -2.56702,0.53811 -2.56701,0.53809 -2.26508,0.46192 -2.26508,0.46191 v 1.42147 1.42147 l -2.54273,3.03861 -2.54274,3.03861 1.03638,0.64407 1.03637,0.64406 -0.66191,2.65193 -0.66192,2.65193 -2.84464,4.62505 -2.84466,4.62507 -1.84281,5.56754 -1.84279,5.56754 0.39671,1.82749 0.39671,1.82752 1.14778,-0.38472 1.14777,-0.38471 3.04616,-6.16815 3.04617,-6.16814 2.01102,-2.21117 2.01104,-2.21117 2.72081,-1.41478 2.72081,-1.41479 h 1.05668 1.0567 v 1.13294 1.13294 l -3.43158,5.69994 -3.43158,5.69996 -1.57031,5.56752 -1.57032,5.56754 -1.06538,8.8474 -1.06538,8.84738 3.29885,2.97218 3.29885,2.97219 0.71163,-4.02798 0.71162,-4.028 3.12873,-5.26088 3.12873,-5.26089 3.0176,-4.29648 3.01761,-4.29649 4.7191,-2.66572 4.71911,-2.66572 2.71486,-1.88574 2.71487,-1.88571 0.67009,1.09023 0.67008,1.09024 -3.08225,3.20244 -3.08226,3.20244 -1.66255,4.00776 -1.66256,4.00778 2.1355,1.73881 2.13551,1.73883 0.43577,6.62873 0.43577,6.62876 -1.535,1.54349 -1.53501,1.54351 h -2.2426 -2.24261 l -1.11019,3.28991 -1.11018,3.2899 0.38648,5.30336 0.38647,5.30336 1.50708,3.62694 1.50708,3.62693 0.88971,-0.55292 0.88971,-0.55291 z m -63.73783,-69.59948 3.24703,-7.91514 1.92269,-2.12648 1.9227,-2.12651 1.81673,-3.93798 1.81672,-3.93797 3.34177,-1.98261 3.34177,-1.98261 v -1.89084 -1.89083 l 3.3278,-3.34623 3.32778,-3.3462 0.64723,-1.696 0.64721,-1.69599 3.28211,-1.70664 3.28211,-1.70665 3.77021,-0.0994 3.77023,-0.0994 0.29804,-3.0552 0.29806,-3.0552 3.29417,-1.65454 3.29418,-1.65454 -1.64189,-0.63354 -1.64191,-0.63355 -6.43411,1.12665 -6.4341,1.12667 v 0.90835 0.90837 h -3.08629 -3.08628 l -1.94722,-1.04789 -1.94722,-1.04791 v 3.49817 3.49815 l -3.27178,0.69587 -3.27178,0.69585 -2.3181,2.14182 -2.31812,2.14182 -0.93825,-1.49189 -0.93825,-1.4919 -0.0154,-2.15038 -0.0154,-2.15037 2.76842,-2.68949 2.76844,-2.68947 3.72739,-3.42972 3.72742,-3.42972 5.51791,-1.15186 5.51791,-1.15186 6.18011,0.70308 6.18012,0.70307 -4.27218,-6.25987 -4.27217,-6.25985 -3.30884,-2.92132 -3.30885,-2.92129 -4.82431,-0.65869 -4.8243,-0.65869 -5.89289,-1.97537 -5.89286,-1.97532 -2.16075,0.66079 -2.16072,0.66078 -1.51006,1.27046 -1.51005,1.27048 -3.65903,0.65831 -3.65904,0.65833 -3.7282,4.78437 -3.72821,4.78434 -4.90167,10.12279 -4.90167,10.1228 -2.05659,12.47954 -2.05662,12.47955 v 4.28265 4.28266 l 1.42774,1.96338 1.42775,1.96337 0.47851,-0.50456 0.47853,-0.50455 2.7278,-10.12279 2.7278,-10.1228 0.93551,-3.91977 0.93552,-3.91981 4.04962,-5.69686 4.04962,-5.69685 6.04886,-5.31447 6.04885,-5.31446 h 1.44587 1.44587 v 3.30293 3.30294 l -2.26507,1.21243 -2.26508,1.21244 -2.63808,1.2246 -2.63805,1.22463 -1.18562,4.63587 -1.18561,4.63588 -0.92882,4.55525 -0.92884,4.55525 -0.50749,2.78377 -0.50752,2.78377 h 4.44557 4.44558 l 0.56757,-0.92343 0.56756,-0.92343 7.49805,-4.13796 7.49802,-4.13797 h 1.70307 1.70307 l -6.63494,6.11341 -6.63494,6.1134 -3.22149,5.78088 -3.2215,5.78086 -2.02773,3.91048 -2.02773,3.91047 -1.66505,-2.21961 -1.66506,-2.21964 -2.59995,3.95057 -2.59995,3.95057 3.9515,4.30317 3.9515,4.30317 1.22051,-0.40911 1.22049,-0.40906 z m 33.19763,-3.75356 -0.52874,-1.32861 -0.0794,1.9402 -0.0794,1.9402 0.60822,-0.61159 0.6082,-0.61158 z m -49.34935,-23.34568 -0.50777,-1.26535 v 2.53069 2.5307 l 0.50777,-1.26535 0.50777,-1.26535 z m 2.90988,-5.73414 -0.56905,-0.92582 1.03815,-0.51669 1.03814,-0.51668 -1.22062,0.24043 -1.22063,0.24042 -0.39848,1.20207 -0.39849,1.20207 h 1.15 1.15 z m -18.67713,-4.13559 v -1.01228 h -0.44393 -0.44395 l -0.62216,1.01228 -0.62218,1.01229 h 1.0661 1.06612 z m 76.82718,-37.59306 2.19889,-1.15103 8.40714,-5.53121 8.40714,-5.5312 2.04373,-1.66907 2.04372,-1.66907 7.4803,-7.51025 7.48029,-7.51025 1.49612,-2.90921 1.49613,-2.90922 3.97561,-5.27086 3.97561,-5.27086 4.71971,-11.13508 4.71971,-11.13506 0.0579,-15.79302 0.0579,-15.79298 -4.52295,-8.88773 -4.52298,-8.88771 -4.51267,-5.08603 -4.51265,-5.08601 -6.66525,-4.29599 -6.66526,-4.29599 -7.44607,-3.29073 -7.44605,-3.29074 -14.26267,-0.49069 -14.26265,-0.49068 -8.11838,3.83083 -8.11838,3.83083 -4.17546,4.61345 -4.17549,4.61344 1.16956,0.39202 1.16957,0.39201 2.41982,-1.59432 2.41983,-1.59431 7.36326,-1.16079 7.36325,-1.16081 8.0536,1.29557 8.05362,1.29557 9.56366,5.08117 9.56367,5.08119 5.68134,5.71108 5.68132,5.71108 3.59648,7.1812 3.59649,7.18123 1.04804,6.59679 1.04802,6.59679 -1.02422,7.26177 -1.02424,7.26179 -1.15918,4.70902 -1.15918,4.70904 -3.39142,7.53339 -3.39142,7.53341 -3.24096,4.50369 -3.24097,4.50369 -6.53982,6.69009 -6.53981,6.69006 -8.03535,5.31447 -8.03533,5.31446 h -1.61596 -1.61596 l -0.69381,0.69765 -0.69382,0.69766 4.25909,4.36373 4.2591,4.36375 h 1.86997 1.86998 z m -9.37817,-29.44069 4.53015,-2.83214 3.46405,-2.77445 3.46404,-2.77445 6.65476,-6.80176 6.65475,-6.80176 2.64312,-5.85174 2.64311,-5.8517 1.68187,-5.55376 1.68187,-5.55375 0.82334,-5.07517 0.82336,-5.0752 -0.96892,-7.97262 -0.9689,-7.97263 -2.42982,-4.82158 -2.42983,-4.82161 -5.41853,-4.65483 -5.41851,-4.65484 -8.96663,-3.66245 -8.96663,-3.66243 -9.35564,0.008 -9.35563,0.008 -5.6592,2.87915 -5.65918,2.87915 -1.84366,3.03994 -1.84366,3.03994 -0.004,2.60634 -0.004,2.60634 7.17869,-2.35325 7.1792,-2.35305 h 6.18851 6.1885 l 7.23358,3.4858 7.23357,3.48581 3.05209,3.34709 3.05209,3.34707 2.6522,5.34051 2.65218,5.3405 -0.49323,10.34983 -0.49324,10.34982 -2.61745,5.85512 -2.61747,5.85512 -4.05814,5.81732 -4.05812,5.81732 -4.28737,3.5379 -4.28737,3.5379 -2.76198,1.76442 -2.76198,1.76441 -5.08829,1.30941 -5.0883,1.30941 0.0484,0.69606 0.0484,0.69606 v 1.78184 1.78183 l 2.50882,2.72064 2.50882,2.72064 5.29313,-2.18578 5.29311,-2.1858 z m -15.41229,-17.94337 4.21839,-1.92578 4.50887,-4.17915 4.50886,-4.17917 4.0651,-5.29833 4.0651,-5.29831 1.55315,-5.99594 1.55314,-5.99593 v -4.81074 -4.81073 l -2.10453,-5.65601 -2.10452,-5.65599 -5.53432,-3.69495 -5.53431,-3.69493 h -8.34139 -8.34141 l -4.90881,2.54012 -4.90882,2.54015 -1.24355,2.47064 -1.24354,2.47063 -0.0148,11.82199 -0.0148,11.82197 1.49969,1.50801 1.4997,1.508 3.05233,0.67412 3.05233,0.67411 3.75327,-0.65352 3.75325,-0.65352 2.13162,-1.20322 2.13162,-1.20323 3.55905,-3.17258 3.55904,-3.17257 1.19018,-2.23617 1.19016,-2.23617 -0.57977,-2.32282 -0.57978,-2.32281 -3.90585,-1.57147 -3.90586,-1.57148 -2.14353,0.56367 -2.14361,0.56363 v 3.3893 3.38931 l -1.94722,1.0479 -1.94723,1.04789 h -0.49762 -0.49762 l -1.58196,-1.59072 -1.58196,-1.59073 v -2.38073 -2.38072 l 2.45293,-2.93131 2.45295,-2.9313 4.08007,-1.354 4.08007,-1.35401 3.96364,1.79726 3.96365,1.79725 2.7055,2.83959 2.70549,2.83958 0.46894,4.37913 0.46894,4.37912 -2.15054,4.82971 -2.15053,4.82971 -5.14384,4.08848 -5.14384,4.08851 -2.7233,1.41608 -2.72331,1.41608 -6.58308,0.6782 -6.58308,0.67818 1.33458,3.80355 1.33459,3.80357 1.62093,3.15192 1.62094,3.15193 3.24593,-0.0222 3.24593,-0.0222 z m -80.3125,-56.37393 0.41521,-0.35946 -1.22053,-2.69358 -1.22051,-2.69359 3.76991,-3.88211 3.76988,-3.88211 4.08232,-1.44236 4.08234,-1.44237 4.89824,-1.26106 4.89825,-1.26107 5.14168,-3.88478 5.14167,-3.88479 h 0.7467 0.7467 l 1.01381,1.90483 1.01381,1.90482 6.53935,0.4187 6.53935,0.4187 2.36248,2.23174 2.36248,2.23173 h 0.98391 0.98391 l 4.35422,-13.4127 4.35421,-13.4127 2.25363,-3.54297 2.25361,-3.54298 2.75655,-4.89763 2.75655,-4.89762 2.42226,-2.1178 2.42228,-2.11781 v -1.84202 -1.842 h -0.32064 -0.32064 l -4.96454,1.41696 -4.96455,1.41696 -8.05361,1.11187 -8.05361,1.11186 -7.43522,0.95023 -7.43522,0.95025 -3.22803,2.34153 -3.228,2.34155 -5.69567,5.02691 -5.69567,5.02692 v 0.79368 0.79369 l 2.76843,0.0457 2.76844,0.0457 2.99908,1.28595 2.99909,1.28594 5.32489,-1.24465 5.32488,-1.24468 2.90197,-3.12377 2.90197,-3.12378 h 4.43719 4.4372 l 1.86603,1.37204 1.86603,1.37204 -0.68679,1.79965 -0.68677,1.79966 -4.68713,-0.646 -4.68711,-0.646 -8.12847,3.11445 -8.12846,3.11443 -4.39095,2.09702 -4.39095,2.09702 -4.43301,0.3337 -4.43298,0.33371 -2.24977,1.17347 -2.24977,1.17348 -4.29409,3.4898 -4.29411,3.4898 -1.49443,2.90593 -1.49443,2.90591 v 0.44891 0.44889 l 7.58861,-2.42317 7.58861,-2.42319 h 1.68742 1.68742 l -1.52257,1.531 -1.52258,1.53101 -5.27689,1.93946 -5.27689,1.93947 -4.48436,2.64256 -4.48437,2.64258 -1.64124,3.1914 -1.64124,3.1914 -0.86827,3.04423 -0.86826,3.04421 1.23716,0.76885 1.23715,0.76883 2.52512,-0.60642 2.52512,-0.60642 z m 31.29589,-29.52837 v -0.85511 l 2.31347,-2.18543 2.31348,-2.18544 3.04158,-0.61169 3.04157,-0.61168 3.95694,1.67714 3.95695,1.67715 -2.45311,2.01808 -2.4531,2.01809 -2.58041,-0.72033 -2.58041,-0.72034 -1.51005,-0.0439 -1.51005,-0.0439 -2.76844,0.72118 -2.76842,0.72118 z m 46.33508,-12.04313 5.24612,-2.73685 3.99665,-5.44003 3.99664,-5.44005 0.5386,0.54158 0.53861,0.5416 -2.13822,3.64406 -2.1382,3.64405 v 0.44829 0.44827 h 0.99172 0.99172 l 3.79011,-6.04035 3.79012,-6.04037 0.85113,-0.0333 0.85113,-0.0333 -3.12482,5.56754 -3.1248,5.56754 h 5.04211 5.04211 l 0.0821,-3.28992 0.0822,-3.2899 1.44665,3.3289 1.44663,3.32889 1.53476,0.59221 1.53477,0.59221 0.57316,-0.57634 0.57315,-0.57632 -1.62328,-4.79045 -1.62333,-4.79047 v -0.9559 -0.95591 l 1.39821,1.16685 1.39821,1.16683 1.14404,4.56855 1.14402,4.56856 0.81448,-0.50617 0.81447,-0.50615 0.1595,-4.09301 0.15948,-4.09299 -0.74777,-0.002 -0.74778,-0.002 -0.22484,-3.2103 -0.22484,-3.21031 1.15725,1.16366 1.15726,1.16368 1.33266,-1.11214 1.33267,-1.11211 v -1.06169 -1.0617 l -1.67166,-1.85739 -1.67167,-1.85741 0.66894,-0.67264 0.66893,-0.67265 2.48328,2.34584 2.48326,2.34584 1.50177,-1.25325 1.50176,-1.25325 -2.15578,-2.93198 -2.15576,-2.93199 0.77375,-0.77167 0.77375,-0.77165 2.21267,2.78376 2.21265,2.78378 h 1.18896 1.18898 l -0.57946,1.51841 -0.57948,1.51843 h 1.13812 1.13814 l -0.37543,-3.42565 -0.37543,-3.42564 -2.26036,-3.19197 -2.26034,-3.19196 -1.66642,0.49586 -1.66642,0.49586 -3.0201,0.6888 -3.02011,0.68881 -5.53685,2.4976 -5.53686,2.49761 -5.46312,2.68226 -5.46311,2.68226 -4.27578,4.04913 -4.27578,4.04912 -5.61331,8.41141 -5.6133,8.41141 v 1.45831 1.4583 h 0.41044 0.41046 z m 2.9933,-5.30161 v -0.95254 l 0.99517,-0.61846 0.99516,-0.61845 -0.59952,1.57099 -0.59953,1.57099 h -0.39563 -0.39565 z m 19.12732,-12.92671 v -1.05704 l 1.76173,-1.38931 1.76173,-1.38928 -1.47686,2.02455 -1.47687,2.02456 -0.28486,0.42179 -0.28487,0.42176 z m 5.03352,-10.92159 v -1.51842 l 3.27177,0.0358 3.27179,0.0358 -2.51676,1.44668 -2.51676,1.44667 -0.75503,0.0358 -0.75501,0.0359 z m 27.92828,27.35977 -2.23051,-3.4215 -1.25443,1.04685 -1.25444,1.04687 2.69167,2.86763 2.69167,2.86762 0.79327,-0.49297 0.79327,-0.49299 z m -109.47111,0.4779 v -1.01227 h -1.00671 -1.0067 v 1.01227 1.01228 h 1.0067 1.00671 z m 100.67015,-0.95254 v -0.95253 l -1.0067,-0.62563 -1.0067,-0.62561 v 1.57815 1.57816 h 1.0067 1.0067 z m -2.19127,-5.45809 0.3255,-1.6876 h -1.36963 -1.36965 l -0.15654,2.08958 -0.15653,2.08957 1.20068,-0.40197 1.20069,-0.40197 z m 64.73168,0.067 -1.25091,-1.24847 0.68736,1.81514 0.68737,1.81516 0.56354,-0.56668 0.56356,-0.56666 z m -9.58371,-4.51729 -0.60822,-0.61158 -0.60416,0.6075 -0.60416,0.60751 0.78848,1.28282 0.78846,1.28285 0.42391,-1.27875 0.4239,-1.27876 z m -56.64063,0.47514 1.73439,-1.27524 -1.13711,-3.28001 -1.13712,-3.28001 h -1.28831 -1.28829 l -1.1084,1.34294 -1.1084,1.34294 1.20585,3.21232 1.20583,3.21231 h 0.59357 0.59359 z m 8.71744,-2.20797 v -0.44641 l -1.0067,-0.62562 -1.00671,-0.62562 v 1.07201 1.07203 h 1.00671 1.0067 z m -3.41501,-6.05931 -0.65016,-2.60482 h -1.99422 -1.99422 v 0.55642 0.55641 l 1.59572,3.10288 1.59572,3.10288 1.04866,-1.05448 1.04867,-1.05448 z m 8.25409,1.92367 -0.56354,-0.56669 -0.68737,1.81516 -0.68735,1.81514 1.25091,-1.24847 1.2509,-1.24847 z m -2.40721,-2.14039 0.63389,-1.66101 -0.65376,-2.07121 -0.65375,-2.07117 -1.27599,1.75469 -1.27599,1.75469 0.51427,1.97754 0.51429,1.9775 h 0.78157 0.78158 z m 19.71556,-1.37581 v -1.01229 h -1.06612 -1.06611 l 0.62217,1.01229 0.62218,1.01228 h 0.44394 0.44394 z m -6.04021,-3.03683 v -1.01228 h -1.0067 -1.00671 v 1.01228 1.01228 h 1.00671 1.0067 z m -91.55363,-2.16261 6.48736,-2.16258 1.54833,-1.34309 1.54831,-1.34306 12.04216,-1.91547 12.04214,-1.91547 3.52345,0.39097 3.52345,0.39096 1.51006,-1.01018 1.51005,-1.01018 -2.2607,-2.27842 -2.26069,-2.27844 -5.29582,0.0769 -5.29583,0.0769 -5.78333,1.69058 -5.78331,1.69056 -11.32435,5.489 -11.32435,5.489 -1.51005,1.04674 -1.51005,1.04673 1.0629,0.0155 1.06291,0.0155 z m 83.50002,1.21006 v -0.95254 l -1.00671,-0.62562 -1.00669,-0.62561 v 1.57815 1.57817 h 1.00669 1.00671 z m 5.43241,-1.66951 0.61433,-1.60977 -0.56603,-0.92092 -0.56603,-0.92093 h -0.69561 -0.69561 v 2.53069 2.53071 h 0.64732 0.6473 z m -8.45251,-1.42706 v -1.01229 h -1.00671 -1.0067 v 1.01229 1.01228 h 1.0067 1.00671 z m 23.26739,-2.31559 -1.11997,-1.12617 v 1.55216 1.55218 l 0.73407,0.73811 0.73404,0.73811 0.38591,-1.16411 0.3859,-1.16412 z m -10.18027,-1.22738 v -2.53071 h -1.00671 -1.0067 v 2.53071 2.53068 h 1.0067 1.00671 z m -13.08712,0.51383 v -1.00458 l -2.19496,-2.5384 -2.19494,-2.53839 h -1.32851 -1.32851 v 1.05828 1.0583 l 2.47101,2.48468 2.47098,2.48469 h 1.05247 1.05246 z m 5.85145,-0.9567 0.44043,-1.32862 -1.3213,0.44286 -1.32129,0.44287 -0.44044,1.32863 -0.44043,1.32861 1.3213,-0.44287 1.3213,-0.44288 z m 4.71891,-3.10012 0.62217,-1.01227 h -1.06611 -1.06612 v 1.01227 1.01228 h 0.44394 0.44395 z m -7.55026,-1.01227 v -1.01228 h -1.00671 -1.00669 v 1.01228 1.01227 h 1.00669 1.00671 z m -101.67259,150.32861 -1.15838,-1.4035 4.25156,-3.09689 4.25156,-3.09687 h 1.78002 1.78003 l 1.59238,0.61445 1.5924,0.61443 v 0.88339 0.88341 l -4.06111,2.0833 -4.0611,2.0833 -2.40448,0.91925 -2.40448,0.91924 z"
       id="path1"
       style="display:inline;opacity:1" /><path
       id="path23"
       style="display:inline;fill:#000000;fill-opacity:1"
       d="m 750,75 -30,35 30,95 30,-95 z m -52.24805,69.14258 -23.33593,19.72265 40.81836,40.04102 z m 115.70899,9.46875 -17.35938,53.68359 40.64844,-28.07617 z m -151.77344,34.66992 -24.75586,28.13281 43.48047,-10.35937 z m -1.90625,2.41992 13.35352,12.16406 -30.42579,7.07618 z m 189.99414,7.67774 -20.76953,25.24218 51.36914,11.16016 z m 2.67383,5.19336 20.42578,24.30273 -35.07422,-7.57227 z m -325.86719,174.97851 13.76172,23.79297 68.44922,-19.23828 z m 443.60547,1.25391 -112.03125,6.32812 99.5625,21.30469 z m -127.91602,39.70898 86.13477,44.95508 13.63477,-28.10742 z m -230.86914,7 -56.21093,2.00391 9.77734,18.76367 z m 209.57227,15.95117 82.86914,71.16016 13.90039,-28.40234 z m -193.74609,22.44922 -48.23829,13.29688 10.19727,16.91406 z m 24.18945,38.50977 -51.11719,26.58984 12.29297,17.23633 z m 186.89258,2.12695 44.4082,52.94922 11.0957,-22.89453 z m -157.20313,27.67969 -47.15234,57.97656 10.95117,20.01172 z m 23.0332,33.29101 -38.53124,85.76954 13.04687,27.33398 z M 850.09375,577.92969 865.4375,596.5 868.625,582.13281 Z m -11.43555,41.02148 7.56055,15.95508 8.5918,-11.54492 z m -114.14453,13.23828 -33.58984,77.65235 18.54492,34.4082 z m 89.75,21.98438 9.42383,23.41992 10.58008,-15.42383 z m -36.71875,48.15625 6.91016,62.68359 14.76367,-29.85742 z m -34.97656,4.18359 -28.91797,56.00391 16.63086,28.60742 z"
       transform="translate(-500)" /><use
       xlink:href="#contour"
       x="0"
       y="0"
       style="display:inline;opacity:1"
       id="use2" /></g></svg>
