<?xml version="1.0" encoding="UTF-8" standalone="no"?>
<!-- Created with Inkscape (http://www.inkscape.org/) -->

<svg
   width="500"
   height="900"
   viewBox="0 0 500 900"
   version="1.1"
   id="saga_de_billy"
   xml:space="preserve"
   xmlns:xlink="http://www.w3.org/1999/xlink"
   xmlns="http://www.w3.org/2000/svg"
   xmlns:svg="http://www.w3.org/2000/svg"><defs
     id="defs1"><path
       id="contour"
       style="display:inline;opacity:1;mix-blend-mode:normal;fill:#000000;fill-opacity:1;stroke-linejoin:round"
       d="M 250,0 0,360 250,900 500,360 Z M 250,40 355,190 250,60 145,190 Z M 475,360 250,820 25,360 250,80 Z M 400,540 250,875 100,540 250,855 Z" /></defs><g
     id="FDCN"
     x="0%"
     width="100%"
     height="100%"
     style="display:inline"><path
       style="display:inline;fill:#000000;stroke-width:1.01102"
       d="m 237.88084,798.60662 -0.84165,-37.25615 -0.72956,-9.00494 -0.72954,-9.00494 -0.40668,-4.0022 -0.40669,-4.00219 -0.46297,-6.50357 -0.46296,-6.50357 -0.63505,-6.15188 -0.63504,-6.15189 1.13335,-0.68602 1.13335,-0.68602 -0.47022,-1.66677 -0.47023,-1.66675 -0.66004,-6.62396 -0.66004,-6.62398 -6.8286,-0.60175 -6.82858,-0.60176 -6.75122,-0.65415 -6.75122,-0.65416 -1.88966,-3.12616 -1.88965,-3.12616 -0.6901,-4.50247 -0.69011,-4.50247 -2.25604,-8.00439 -2.25603,-8.00439 -0.38157,-2.85573 -0.38156,-2.85575 -0.61008,-2.147 -0.61006,-2.14701 -1.07657,-2.50137 -1.07656,-2.50137 -0.95723,-1.82337 -0.95723,-1.82337 1.14905,-3.40995 1.14905,-3.40995 -0.76803,-1.2171 -0.76802,-1.2171 -0.95559,-15.56166 -0.95559,-15.56165 -0.13679,-5.43528 -0.1368,-5.4353 1.76985,-2.20431 1.76985,-2.20432 3.59348,-0.66027 3.59348,-0.66026 v -0.9552 -0.95522 h 1.54625 1.54624 l 1.77391,-0.96035 1.77392,-0.96036 6.12952,-2.9302 6.12952,-2.9302 3.32016,-1.68574 3.32016,-1.68574 0.009,-2.67823 0.009,-2.67823 1.08921,-19.01043 1.08922,-19.01043 -0.29147,-10.00549 -0.29146,-10.00549 -0.0354,-11.00604 -0.0353,-11.00603 0.40029,-5.00275 0.4003,-5.00274 -0.70143,-14.50796 -0.70144,-14.50796 -0.54399,-5.25288 -0.54397,-5.25289 -3.75745,0.008 -3.75744,0.008 -6.12952,1.85914 -6.12952,1.85915 -5.67348,2.49371 -5.67347,2.49372 -3.24832,4.01688 -3.24833,4.01688 -1.16038,5.29926 -1.16039,5.29926 1.31856,5.58392 1.31855,5.58393 3.8888,7.68862 3.88879,7.6886 -1.05903,5.81881 -1.05904,5.81879 -1.53813,6.00329 -1.53814,6.00329 -1.08143,4.0022 -1.08143,4.0022 -1.50088,4.7872 -1.50086,4.78721 -0.29405,2.21663 -0.29403,2.21664 -2.62557,7.72798 -2.62556,7.72798 -0.6394,3.77833 -0.6394,3.77833 -1.08971,2.80227 -1.08972,2.80227 -3.01011,-2.80227 -3.01013,-2.80227 -4.19889,-7.00384 -4.19887,-7.00384 -2.60607,-3.13053 -2.60594,-3.13124 -4.4581,-6.12455 -4.45779,-6.12455 h -0.7677 -0.76769 l -8.05483,-8.18373 -8.05485,-8.18372 -7.35479,-7.07465 -7.35481,-7.07465 -3.37186,-2.75608 -3.37186,-2.75607 -4.59714,-3.98351 -4.59714,-3.9835 -0.79148,-0.0141 -0.79147,-0.0141 -0.97102,-2.50137 -0.971022,-2.50137 h -1.557665 -1.557665 v -1.50082 -1.50083 h 0.645613 0.645602 l 3.696147,2.19834 3.69613,2.19832 9.82816,7.24531 9.82815,7.2453 17.33641,16.90256 17.33643,16.90256 4.37196,5.67137 4.37196,5.67137 h 0.89886 0.89884 v 1.53222 1.53223 l 1.48297,0.55735 1.48296,0.55735 1.18127,3.50556 1.18127,3.50556 0.70716,-0.84253 0.70717,-0.84252 2.18695,-5.50302 2.18696,-5.50302 1.09808,-4.16774 1.09808,-4.16774 3.04864,-9.06056 3.04864,-9.06057 -0.0588,-1.27966 -0.0588,-1.27965 -2.42832,5.23292 -2.4283,5.23293 -2.51243,2.46069 -2.51243,2.46069 0.58327,0.57126 0.58326,0.57124 -1.9686,1.45867 -1.96859,1.45866 -1.73702,0.0318 -1.73701,0.0318 -1.04129,-1.75096 -1.04128,-1.75096 -0.0311,0.87292 -0.0311,0.87294 -1.53238,-1.24557 -1.53238,-1.24558 v -1.87861 -1.87859 h -1.37405 -1.37404 l -1.94612,-2.14738 -1.94611,-2.14736 -5.24079,-3.30962 -5.24078,-3.30961 -0.6664,-2.60043 -0.66638,-2.60043 -5.47322,-5.70012 -5.47322,-5.70014 -12.00646,-13.00714 -12.00646,-13.00713 -2.40472,-3.72675 -2.40472,-3.72675 -2.30207,-1.49388 -2.30207,-1.49388 -2.97682,-5.44094 -2.976817,-5.44093 -1.54228,0.57965 -1.54228,0.57964 0.608325,-1.55262 0.608314,-1.5526 -0.926569,-0.90749 -0.926569,-0.90748 -1.165396,-5.46787 -1.165386,-5.46786 -0.400544,-4.0022 -0.400544,-4.00219 -0.539745,-17.00934 -0.539745,-17.00933 -0.488738,-7.25398 -0.488737,-7.25398 h 1.000563 1.000552 l 0.756424,-3.75205 0.756424,-3.75206 0.06078,-1.00055 0.06078,-1.00055 1.369458,-2.36336 1.369458,-2.36335 -0.483814,-2.47879 -0.483813,-2.47878 2.464129,-6.66418 2.46413,-6.66416 0.98724,-0.33352 0.98724,-0.33352 0.0362,-2.66812 0.0362,-2.66814 1.3599,-2.40345 1.35991,-2.40343 -0.49042,-1.83673 -0.49042,-1.83674 1.64829,-0.61948 1.64828,-0.61948 v -1.42517 -1.42518 l 1.53238,-0.57592 1.53238,-0.57593 v -0.86209 -0.8621 l -1.46644,0.55114 -1.46644,0.55113 0.0821,-3.33405 0.0822,-3.33404 3.02117,-4.50247 3.02116,-4.50247 4.74801,-4.3147 4.748,-4.3147 -4.32062,2.07324 -4.32063,2.07325 -7.93841,2.488 -7.938424,2.48801 -1.08324,0.75399 -1.08323,0.754 -1.137271,7.00385 -1.137272,7.00384 -2.156867,9.84048 -2.156856,9.84047 -2.087271,4.66748 -2.087271,4.66749 -3.405286,7.00384 -3.405286,7.00384 -0.726373,2.50137 -0.726374,2.50137 -0.897936,1.1047 -0.897937,1.1047 0.963944,11.40216 0.963944,11.40217 2.127322,13.00713 2.127323,13.00714 0.941234,3.00164 0.941234,3.00165 0.593675,3.50192 0.593676,3.50192 0.519834,9.00494 0.519834,9.00494 0.923322,4.50247 0.923322,4.50247 0.632266,3.82311 0.632264,3.82312 0.560187,1.42976 0.560198,1.42978 -0.87549,-0.0124 -0.87549,-0.0124 -2.095036,-3.23939 -2.095037,-3.2394 -1.163251,-4.0022 -1.163251,-4.00219 -2.646408,-15.77226 -2.646408,-15.77226 -1.023444,-2.63643 -1.023445,-2.63643 0.136513,-3.60339 0.136584,-3.60334 L 68.402401,398.65149 66.31785,387.14518 65.658925,377.13969 65,367.1342 l 3.7856,-8.00439 3.785601,-8.00439 1.772605,-1.65677 1.772605,-1.65677 0.677856,-4.34652 0.677857,-4.34652 1.925061,-5.00275 1.925062,-5.00274 0.74963,-2.0011 0.749631,-2.0011 0.266757,-1.50082 0.266757,-1.50083 1.628554,-10.00548 1.628552,-10.00549 0.0061,-0.78597 0.0061,-0.78597 4.341744,-1.80556 4.341748,-1.80556 3.41351,-0.65353 3.41352,-0.65353 5.09851,-2.5081 5.0983,-2.5081 h 0.94266 0.94267 l 5.29412,-2.50137 5.29412,-2.50137 h 0.92808 0.92809 l 2.82699,-1.97153 2.82698,-1.97154 0.52212,0.51137 0.52212,0.51137 3.44891,-1.98666 3.44891,-1.98665 3.32016,0.0971 3.32015,0.0971 v 1.34858 1.34856 h 2.15248 2.15247 l -0.60512,1.54444 -0.60511,1.54444 2.50425,3.70844 2.50425,3.70845 1.19451,3.35923 1.1945,3.35922 -0.98665,0.64298 -0.98663,0.64296 -2.3529,5.00274 -2.35289,5.00275 -1.77493,3.50192 -1.77491,3.50192 -0.6163,2.57347 -0.61628,2.57347 3.80479,3.51707 3.80479,3.51708 6.64031,3.09088 6.64032,3.09088 7.15111,0.62139 7.15111,0.6214 9.8085,-1.02514 9.80849,-1.02512 5.82093,-2.18167 5.82093,-2.18166 1.08923,-1.99336 1.08925,-1.99335 -0.62353,-4.45539 -0.62351,-4.45539 -5.87928,-7.0109 -5.87927,-7.01092 -9.56457,-10.39583 -9.56452,-10.39585 h -0.90668 -0.9067 v 1.03575 1.03576 l -2.00847,-1.05277 -2.00848,-1.05277 -1.16702,-4.23532 -1.16702,-4.23531 -0.31895,-5.13703 -0.31895,-5.13704 -1.98162,-3.8679 -1.98161,-3.86791 -1.65948,-8.19919 -1.65948,-8.1992 -0.65748,-5.47887 -0.65747,-5.47888 0.72505,-2.83098 0.72505,-2.831 8.209,-7.75425 8.20901,-7.75425 h 0.80506 0.80507 l 2.90644,-4.75261 2.90643,-4.75261 v -9.00494 -9.00494 l 0.7695,-1.1604 0.76951,-1.16039 -0.58375,-1.48991 -0.58376,-1.48991 1.18927,-0.71986 1.18926,-0.71988 1.28757,1.36908 1.28756,1.36908 1.79677,6.50356 1.79677,6.50357 2.04653,3.94441 2.04652,3.94441 -0.68237,6.56135 -0.68236,6.56136 -1.52629,4.41574 -1.52629,4.41574 0.68834,3.06945 0.68834,3.06943 3.49037,6.44378 3.49037,6.44377 2.92678,3.26477 2.92678,3.26477 0.76582,2.31697 0.76583,2.31699 2.45175,-10.50577 2.45176,-10.50576 1.21431,-6.75302 1.21431,-6.75302 8.15927,-7.00452 8.15928,-7.00454 h 1.21215 1.21215 l 4.68424,-3.50192 4.68423,-3.50192 h 1.03802 1.03804 l 0.94929,-2.44541 0.9493,-2.4454 -1.13908,-9.06091 -1.13907,-9.0609 h -0.77871 -0.7787 l -3.06776,-2.52819 -3.06775,-2.52819 -3.90635,-1.31918 -3.90633,-1.31919 -0.32172,-2.12056 -0.32172,-2.12055 2.79076,-0.68601 2.79076,-0.68601 6.72525,1.30197 6.72523,1.30196 4.12094,1.7218 4.12094,1.72179 3.18772,3.55585 3.18773,3.55587 0.68981,3.07596 0.6898,3.07597 0.68502,-0.0107 0.68502,-0.0107 4.59714,-6.98156 4.59714,-6.98155 1.02159,0.31279 1.02158,0.31279 2.41397,5.89811 2.41396,5.89809 2.94937,11.51858 2.94937,11.51859 v 2.77019 2.7702 h -1.02159 -1.02159 v 1.95138 1.95138 l -1.33331,0.80013 -1.3333,0.80013 -2.95579,3.85672 -2.95581,3.85672 0.10836,6.88698 0.10836,6.88699 1.21841,7.07485 1.21843,7.07484 -0.6922,3.69325 -0.69219,3.69325 -3.97048,8.79974 -3.97048,8.79974 -2.29953,3.16289 -2.29954,3.1629 0.0748,5.06698 0.0748,5.06699 2.76814,9.48492 2.76815,9.48493 0.9864,2.53957 0.98639,2.53956 -1.65406,6.3235 -1.65407,6.32349 -2.49957,6.504 -2.49958,6.50399 1.23417,1.45646 1.23417,1.45646 2.31777,-0.56974 2.31778,-0.56974 5.41993,-0.50549 5.41994,-0.50548 4.49188,-0.57327 4.4919,-0.57329 1.63763,-0.85282 1.63763,-0.85284 3.57556,-1.69556 3.57555,-1.69556 4.08635,-1.99813 4.08635,-1.99812 8.45943,-4.87534 8.45939,-4.87533 h 0.99025 0.99024 v -0.41946 -0.41947 l -1.61401,-6.33424 -1.61402,-6.33424 -3.49391,-6.83339 -3.49393,-6.83338 v -1.04312 -1.04313 l 5.28631,-6.38132 5.2863,-6.38131 h 1.86481 1.86479 v -1.00055 -1.00055 h 1.12999 1.12997 l 3.85135,2.98752 3.85136,2.98752 10.75172,5.01687 10.75172,5.01688 h 1.08847 1.08848 l 3.86561,1.62792 3.86561,1.62793 2.71159,1.37372 2.71159,1.37372 h 1.63015 1.63016 v 1.50082 1.50083 h 1.92569 1.92568 l 1.83074,2.73652 1.83074,2.73652 3.02733,5.51801 3.02733,5.518 1.56432,3.00165 1.56431,3.00165 0.59082,0.50027 0.59082,0.50028 1.76086,3.11138 1.76086,3.1114 -0.50203,0.49169 -0.50203,0.49169 2.0389,4.4013 2.03889,4.40132 0.0225,1.92231 0.0225,1.92232 1.56392,1.69252 1.56391,1.69252 0.62487,5.3901 0.62485,5.39011 2.45161,4.8029 2.45159,4.80291 0.58278,6.20313 0.58272,6.20313 -2.74591,14.50796 -2.74591,14.50796 -1.55271,5.33564 -1.55271,5.33564 0.55541,2.0801 0.55539,2.08011 -0.91654,1.67732 -0.91656,1.67732 -1.22203,8.41654 -1.22205,8.41654 -0.32364,6.50357 -0.32364,6.50357 -0.0393,0.56866 -0.0393,0.56865 -3.32015,3.48715 -3.32016,3.48714 -3.83685,1.928 -3.83685,1.92799 -0.59792,1.84507 -0.59791,1.84507 -4.4111,1.85187 -4.41109,1.85188 -0.67266,2.07571 -0.67273,2.07571 h -0.93109 -0.93108 l -4.98289,4.7526 -4.98289,4.75261 -2.64336,2.12554 -2.64337,2.12552 -3.88825,4.46987 -3.88826,4.46985 -3.57556,4.2434 -3.57555,4.24338 -4.44698,7.17111 -4.44698,7.17109 -2.92296,7.38828 -2.92295,7.38828 -1.70521,9.12077 -1.7052,9.12079 -1.46313,5.23439 -1.46313,5.23438 -0.86024,0.52071 -0.86023,0.52071 -2.19249,-0.79436 -2.1925,-0.79434 -3.71372,-8.46267 -3.71372,-8.46267 -2.94244,-4.91426 -2.94244,-4.91428 -3.44864,-9.09341 -3.44864,-9.09342 -0.67824,-2.75386 -0.67825,-2.75386 -1.93182,-3.71112 -1.93184,-3.71113 v -1.74247 -1.74245 l -1.22716,-2.7986 -1.22719,-2.79858 -1.9376,-2.79339 -1.9376,-2.7934 0.65236,-2.54565 0.65234,-2.54566 2.75852,-2.66534 2.75852,-2.66534 3.35782,-5.42022 3.3578,-5.42021 0.88996,-6.15476 0.88994,-6.15474 -0.75316,-3.93355 -0.75316,-3.93354 -2.10368,-3.34799 -2.10368,-3.34799 -5.46797,-3.87372 -5.46796,-3.87371 -0.86719,-0.0322 -0.8672,-0.0323 -3.21915,-1.3642 -3.21916,-1.3642 -5.58716,-1.00874 -5.58717,-1.00874 -1.66632,1.01921 -1.66633,1.0192 -0.7852,22.11513 -0.7852,22.11512 -0.0891,16.50906 -0.0891,16.50905 0.6394,10.50577 0.6394,10.50576 0.0819,10.13772 0.0819,10.13772 3.83095,-1.339 3.83095,-1.339 2.7613,-0.0439 2.76129,-0.0439 2.58771,1.15476 2.58771,1.15475 1.39179,2.09703 1.39178,2.09702 1.31151,5.50302 1.3115,5.50302 0.93785,1.77899 0.93785,1.77898 0.97946,-0.59288 0.97948,-0.59289 1.98178,0.61604 1.98178,0.61604 0.68388,2.20006 0.68388,2.20005 1.46638,1.63896 1.46639,1.63895 2.39455,11.79736 2.39456,11.79738 -2.17341,2.87914 -2.17341,2.87916 -1.7708,-0.45353 -1.7708,-0.45354 -1.2695,1.49814 -1.26949,1.49814 0.21454,7.15337 0.21454,7.15337 0.57732,2.70494 0.57733,2.70496 -1.68213,8.7921 -1.68214,8.7921 -1.06765,1.25994 -1.06767,1.25996 h -1.91807 -1.9181 l 0.008,0.75041 0.008,0.75041 1.01809,8.50466 1.01808,8.50467 -0.63727,4.29308 -0.63727,4.29306 -3.70873,1.80308 -3.70872,1.80308 -4.9452,1.31327 -4.94519,1.31327 0.50465,3.09634 0.50465,3.09635 -0.95625,17.00933 -0.95626,17.00933 -0.51226,12.00659 -0.51227,12.00658 -0.3363,9.25508 -0.5863,33.25508 -24.71389,35.72495 z m 43.21922,-515.50601 -0.58313,-1.48829 1.02163,-2.87032 1.02164,-2.8703 6.20078,-10.71867 6.2008,-10.71866 1.71562,-5.98852 1.71563,-5.98851 -1.25603,-5.49693 -1.25603,-5.49691 1.00393,-1.20252 1.00395,-1.20252 4.26248,-8.07912 4.26249,-8.07914 2.46895,-2.9269 2.46896,-2.92692 2.82015,3.09366 2.82017,3.09366 2.04317,3.40991 2.04317,3.40991 1.65327,2.74038 1.65326,2.74038 1.15354,1.36132 1.15354,1.36131 -1.44257,6.40407 -1.44256,6.40406 -1.66494,9.50522 -1.66494,9.50521 -0.79123,4.73813 -0.79123,4.73813 -0.44044,0.36817 -0.44046,0.36818 -6.82371,3.25086 -6.8237,3.25086 -1.05204,-0.63681 -1.05204,-0.6368 -1.82932,0.97331 -1.82934,0.9733 -7.83748,3.56306 -7.83749,3.56306 h -0.62266 -0.62268 z m 24.17959,-35.08277 3.12706,-4.45142 h -1.52769 -1.5277 l -2.59051,5.05137 -2.5905,5.05137 0.99114,-0.59995 0.99116,-0.59995 z m 10.74295,-15.9256 1.48024,-3.46978 -0.034,-0.78255 -0.034,-0.78255 -2.00917,2.36208 -2.00914,2.36208 v 1.89025 1.89025 h 0.56294 0.56291 z m -4.36569,-6.78584 2.78142,-6.25343 -1.3e-4,-0.80947 -1.2e-4,-0.80945 -1.03707,0.62773 -1.03706,0.62775 -1.61832,3.68364 -1.6183,3.68364 -0.84886,2.75151 -0.84888,2.75151 h 0.72296 0.72295 z m -67.7659,-76.13678 -2.35801,-1.15562 -2.84049,-4.7389 -2.84051,-4.73891 -2.60999,-6.3896 -2.60999,-6.3896 0.63805,-1.6285 0.63806,-1.62849 h 5.95993 5.95993 l 0.63371,1.00422 0.63368,1.00422 2.42654,-0.59648 2.42655,-0.59648 1.18995,4.32811 1.18994,4.32812 2.45042,4.73609 2.45042,4.7361 v 1.95098 1.95098 l -1.27698,0.50749 -1.27698,0.50748 1.40788,0.96486 1.40786,0.96485 -0.66571,1.05494 -0.6657,1.05495 -4.95528,-0.0376 -4.95529,-0.0376 z m -14.31718,533.97419 2.6265,-0.61235 1.19041,-0.91473 1.19039,-0.91472 -0.90234,-3.08147 -0.90233,-3.08149 0.84271,-6.03523 0.84273,-6.03524 -0.81841,-3.58815 -0.81842,-3.58814 0.0873,-17.00934 0.0873,-17.00933 -0.76822,-5.37552 -0.76822,-5.37551 1.2892,-0.78036 1.2892,-0.78037 -4.24087,-2.11898 -4.24084,-2.11899 v -2.51243 -2.51244 l 1.43333,-0.5387 1.43335,-0.53869 4.0451,2.02116 4.04509,2.02115 8.0576,2.09951 8.05759,2.0995 6.1432,0.55947 6.14321,0.55947 1.77409,-3.64371 1.7741,-3.6437 v -1.42831 -1.42831 l -4.24953,-1.12072 -4.24955,-1.12072 -5.94227,-5.55124 -5.94226,-5.55124 -2.83344,-5.89245 -2.83342,-5.89244 -3.57555,-0.97606 -3.57556,-0.97607 -2.55396,1.81689 -2.55397,1.81688 -5.61873,2.92259 -5.61873,2.92258 -0.51079,0.51726 -0.5108,0.51728 -4.08635,2.49201 -4.08634,2.492 -5.75455,2.85668 -5.75455,2.85668 0.30928,18.15485 0.30928,18.15485 1.7411,8.00439 1.74109,8.00439 0.36926,3.00164 0.36927,3.00165 3.04722,14.00769 3.04722,14.00768 1.04557,2.28047 1.04559,2.28047 2.30686,0.9083 2.30688,0.9083 5.5462,-0.46315 5.5462,-0.46315 z m 41.67317,-4.93841 7.94633,-1.60034 2.04317,-0.81031 2.04317,-0.8103 1.78778,-0.55961 1.78778,-0.5596 0.14852,-2.28264 0.14848,-2.28263 -0.1646,-3.50192 -0.16461,-3.50192 -0.55729,-4.25233 -0.55727,-4.25234 h -1.43872 -1.43871 l -3.63769,2.0011 -3.6377,2.0011 h -1.19537 -1.19536 l -5.72843,1.66552 -5.72841,1.66552 -1.24876,3.91876 -1.24875,3.91876 -0.63254,4.51988 -0.63255,4.51989 1.42965,0.88655 1.42965,0.88655 1.24795,0.0153 1.24795,0.0153 z m -0.28019,-27.29586 6.07568,-1.07962 3.6294,-1.56962 3.62937,-1.56962 1.77391,-0.95208 1.77393,-0.95208 h 2.05703 2.05703 v -14.00768 -14.00769 h -0.54474 -0.54476 l -5.16838,2.56508 -5.16837,2.56508 -6.80131,2.33188 -6.80132,2.33188 -6.64031,2.42589 -6.64032,2.42589 0.2805,2.4325 0.2805,2.43251 0.0267,3.50192 0.0267,3.50192 1.08257,3.50192 1.08256,3.50192 1.67506,1.31404 1.67505,1.31403 2.55397,-0.46422 2.55397,-0.46424 z m -10.67284,-30.12671 5.61872,-0.81238 4.08635,-2.03787 4.08635,-2.03786 8.68349,-3.59334 8.68349,-3.59334 3.06476,-1.56559 3.06476,-1.5656 3.06476,-1.65683 3.06476,-1.65683 0.2733,-0.1009 0.27329,-0.10091 -1.46842,-5.90238 -1.46842,-5.90239 -0.63456,-4.61751 -0.63456,-4.61751 -1.33274,-1.7851 -1.33275,-1.7851 -10.63761,5.15192 -10.6376,5.15193 h -1.26838 -1.26836 v 0.94149 0.94151 l 0.85918,0.52006 0.85918,0.52007 0.11371,4.79186 0.1137,4.79187 -1.52563,5.99436 -1.52562,5.99434 -0.82603,0.80902 -0.82601,0.809 -4.63498,0.42553 -4.63499,0.42554 -6.79721,-0.80145 -6.79721,-0.80146 0.66781,1.57695 0.66783,1.57695 0.48572,2.0011 0.48572,2.00109 0.42857,1.3545 0.42858,1.3545 1.77916,-0.69343 1.77917,-0.69342 z m 11.66752,-38.85879 6.21025,-2.82956 4.08635,-1.85703 4.08634,-1.85704 0.68108,-0.066 0.68104,-0.066 0.68518,-0.67105 0.68516,-0.67107 -1.18119,-5.8325 -1.18119,-5.83251 -0.50851,-1.74864 -0.50853,-1.74863 -2.3993,-0.58978 -2.39928,-0.58979 -3.91755,1.79721 -3.91753,1.79721 -6.8192,4.29327 -6.8192,4.29327 h -0.88209 -0.8821 l -4.00756,2.00109 -4.00756,2.0011 h 1.23759 1.23758 v 1.31216 1.31216 l 2.04317,2.14793 2.04318,2.14792 v 1.20914 1.20914 l 0.58302,-0.571 0.58301,-0.571 2.73714,1.39863 2.73714,1.39863 1.45166,0.006 1.45164,0.006 z m -8.56612,-23.43291 2.00653,-1.83086 v -4.4635 -4.46349 h -1.02159 -1.02158 v 1.88269 1.8827 l -4.85254,3.09508 -4.85254,3.09508 -0.35474,-1.01734 -0.35473,-1.01734 -1.28568,1.04505 -1.28569,1.04504 -3.25315,0.37098 -3.25315,0.37097 -0.65286,0.6394 -0.65284,0.6394 1.67585,3.44193 1.67585,3.44193 7.73818,-3.16342 7.73817,-3.16342 z m 68.82446,-11.50558 0.4263,-2.24856 0.66878,-4.25501 0.66879,-4.25501 6.31718,-12.2639 6.31719,-12.2639 1.73197,-3.14058 1.73197,-3.14057 3.12057,-3.15331 3.12057,-3.15331 v -0.95617 -0.95616 l 3.06476,-2.83308 3.06476,-2.83307 v -0.85811 -0.85811 l 12.67704,-10.5634 12.67704,-10.56338 h 1.06362 1.06362 l 0.81696,-1.25302 0.81695,-1.25302 7.35497,-5.82305 7.35496,-5.82305 0.50339,-4.18011 0.50338,-4.1801 1.10736,-8.00439 1.10736,-8.0044 2.05016,-10.50576 2.05014,-10.50576 0.38747,-2.50137 0.38749,-2.50138 1.63005,-8.50466 1.63006,-8.50467 1.03955,-9.00494 1.03955,-9.00494 0.52715,-1.66958 0.52715,-1.66959 -1.72705,-0.33151 -1.72704,-0.33151 -1.93893,-6.50357 -1.93893,-6.50357 -0.37629,-3.23 -0.37628,-3.23001 -1.24129,-3.77383 -1.24129,-3.77384 -0.78492,-1.00055 -0.78493,-1.00055 -4.82667,-12.00659 -4.82666,-12.00658 -1.66178,-2.50567 -1.66178,-2.50566 -1.10572,-1.95456 -1.10571,-1.95455 -3.49143,-0.84678 -3.49143,-0.8468 -6.12952,-3.00972 -6.12952,-3.00973 -1.53238,-0.85866 -1.53238,-0.85866 -4.54138,-2.05201 -4.54142,-2.05199 -0.3939,0.3858 -0.39391,0.3858 1.14029,2.08678 1.14032,2.0868 h 1.1287 1.12872 l 5.93931,6.01907 5.93928,6.01907 3.11192,0.60957 3.11191,0.60956 v 2.32659 2.32659 l 1.64226,0.90013 1.64227,0.90013 1.42249,5.37093 1.4225,5.37093 v 1.81444 1.81446 l 1.52512,0.57318 1.5251,0.5732 -0.61427,2.39705 -0.61427,2.39706 h 1.54749 1.54749 l -0.5343,2.00109 -0.5343,2.0011 h 1.10867 1.10867 l -0.59106,1.50855 -0.59105,1.50855 1.73982,2.6006 1.73982,2.60061 -1.0924,1.0699 -1.09238,1.06988 1.20789,1.42547 1.20791,1.42545 0.1912,1.27592 0.1912,1.27591 0.68533,3.05604 0.68534,3.05605 -2.10875,1.10533 -2.10874,1.10532 0.0156,2.21603 0.0156,2.21603 0.9903,1.50083 0.99029,1.50082 0.11632,-1.50082 0.11631,-1.50083 0.15473,-2.41307 0.15473,-2.41306 1.15507,-0.38202 1.15506,-0.38202 0.66397,2.59097 0.66396,2.59096 -0.60233,0.95453 -0.60225,0.95454 h 1.21638 1.2164 l -0.64319,4.25233 -0.64318,4.25233 -1.50495,11.00604 -1.50496,11.00604 -0.99536,5.00274 -0.99536,5.00275 -2.08214,10.50576 -2.08214,10.50576 -0.0169,6.32086 -0.0169,6.32086 -2.29056,-0.71203 -2.29056,-0.71202 1.22677,1.44772 1.22676,1.44773 -1.49017,2.81316 -1.49008,2.81316 v 2.55755 2.55753 l -6.52483,6.0829 -6.52484,6.08289 -2.41405,2.06485 -2.41406,2.06485 -1.53238,1.60981 -1.53238,1.60983 -2.55397,2.71134 -2.55396,2.71135 -3.32016,3.52282 -3.32016,3.52283 v 0.61874 0.61872 l -4.34174,4.63835 -4.34175,4.63833 -2.31824,3.07966 -2.31824,3.07966 -1.0305,2.65459 -1.03049,2.65459 -0.64642,-0.63312 -0.64642,-0.63311 -1.30692,2.24531 -1.30691,2.2453 -1.63106,3.4617 -1.63107,3.4617 -1.96303,1.79118 -1.96303,1.79119 h -1.59457 -1.59455 l 0.641,2.50137 0.641,2.50137 h -1.07204 -1.07205 l -0.6038,-0.95685 -0.6038,-0.95685 -1.45689,0.54755 -1.45689,0.54754 -0.63497,-2.47782 -0.63497,-2.47783 -1.9516,0.49985 -1.9516,0.49984 -0.86352,-2.28624 -0.86353,-2.28626 -0.8099,1.28348 -0.80992,1.28348 1.00183,0.63854 1.00183,0.63855 1.73796,5.17277 1.73794,5.17277 6.07459,11.52586 6.07459,11.52585 0.1365,1.81154 0.1365,1.81152 0.87932,-5.00274 0.87932,-5.00275 z m -86.115,-2.50405 0.11308,-1.25069 -0.21243,-2.50137 -0.21243,-2.50137 -0.26523,-0.27369 -0.26522,-0.27369 -1.6786,0.63087 -1.6786,0.63088 v 0.82836 0.82837 l 0.9963,2.5665 0.9963,2.56651 h 1.04689 1.04686 z m 12.14596,0.25013 v -1.00055 h 1.9702 1.97021 l 1.60535,-1.57229 1.60535,-1.57229 v -3.34862 -3.34862 l -0.59474,-1.51795 -0.59473,-1.51795 -3.16404,1.88454 -3.16403,1.88454 -0.81726,-0.49469 -0.81725,-0.4947 -1.97225,1.03378 -1.97223,1.03378 -0.68631,3.97852 -0.68631,3.97851 0.65456,1.03727 0.65454,1.03727 h 3.00447 3.00447 z m 1.78778,-18.75081 4.34174,-0.51986 v -6.39652 -6.39651 l -2.55396,1.63897 -2.55397,1.63896 v 0.69872 0.69874 l -3.57556,1.37404 -3.57555,1.37405 v 3.9225 3.92249 l 1.78778,-0.71786 1.78777,-0.71786 z m 64.12064,-7.33501 0.68917,-3.07318 -0.35422,-0.34692 -0.3542,-0.34693 -1.87883,1.34553 -1.87882,1.34554 0.67228,2.07458 0.6723,2.07458 h 0.87156 0.87158 z m -60.04104,-23.53134 -0.34887,-0.34168 -4.67374,2.31742 -4.67374,2.31742 -2.17186,0.55625 -2.17187,0.55626 v 2.01293 2.01295 l 0.65012,1.6593 0.65013,1.6593 2.67003,1.08029 2.67004,1.0803 1.76934,-0.21623 1.76933,-0.21622 1.80622,0.99344 1.80622,0.99345 0.29876,-8.06175 0.29877,-8.06173 z m -1.6959,-5.41303 h 1.95804 l 0.0139,-5.75315 0.014,-5.75316 0.64631,-2.36479 0.64632,-2.36477 -2.31478,1.21331 -2.31476,1.21332 -0.50781,1.90188 -0.5078,1.90188 h -0.90244 -0.90245 v -1.61752 -1.61752 l -2.29857,0.70324 -2.29857,0.70324 -1.78778,-0.0241 -1.78778,-0.0241 -0.13036,0.68822 -0.13039,0.68823 -0.31609,2.0011 -0.31609,2.0011 -0.58841,2.00109 -0.58839,2.0011 0.9754,1.46562 0.97539,1.46562 4.11963,-0.1609 4.11963,-0.1609 0.72403,1.14737 0.72402,1.14737 0.40889,-1.2014 0.40889,-1.20136 z m 70.93346,-22.00382 1.36068,-5.49476 -0.46246,-0.45295 -0.46248,-0.45294 -2.17213,2.12741 -2.17214,2.12741 -0.3122,7.82249 -0.31221,7.8225 1.58613,-4.0022 1.58612,-4.00219 z m -181.64312,4.74436 -2.07995,-4.25234 -1.70791,-2.0011 -1.70791,-2.00109 -1.75645,-4.6738 -1.75645,-4.67379 -1.54286,-1.25409 -1.54285,-1.25409 0.68363,2.92624 0.68362,2.92623 3.06829,6.0033 3.06828,6.00329 3.15305,3.25178 3.15304,3.25179 h 0.18223 0.18222 z m 104.90199,-2.25179 1.93937,-1.43773 -1.28747,-1.51935 -1.28746,-1.51936 0.58704,-1.4983 0.58704,-1.4983 -2.00513,-1.05102 -2.00513,-1.05101 v 1.10153 1.10153 l 1.15094,2.10625 1.15093,2.10625 -1.76403,1.26332 -1.76402,1.26332 0.67338,1.06713 0.67338,1.06711 0.70591,-0.0318 0.7059,-0.0318 z m 8.8054,-10.23911 -0.40331,-6.76967 0.13181,-4.25233 0.13179,-4.25234 0.14606,-1.75096 0.14605,-1.75096 -0.58025,-5.25288 -0.58026,-5.25288 h 1.00579 1.00581 v -0.96915 -0.96914 l -1.53238,0.57591 -1.53238,0.57593 v -1.30771 -1.30771 l -1.01524,0.99433 -1.01523,0.99432 -0.67306,6.45977 -0.67307,6.45976 -0.90525,0.58329 -0.90526,0.58329 1.12267,2.89204 1.12267,2.89203 0.0699,5.52962 0.0699,5.52961 -0.75812,3.25179 -0.75812,3.25178 1.39293,0.0153 1.39294,0.0153 -1.53238,0.98522 -1.53239,0.98523 1.53239,0.96761 1.53238,0.96761 1.99849,-1.95219 1.99848,-1.95218 z m -9.54435,-18.8475 1.35355,0.50871 v -1.36237 -1.36237 l -1.45769,-0.54785 -1.45768,-0.54785 -0.99711,1.19121 -0.99711,1.19121 -0.21226,2.50138 -0.21224,2.50137 0.25375,2.50137 0.25375,2.50137 1.05974,-4.79245 1.05973,-4.79245 z m -151.04878,0.0712 -1.16367,-2.50137 h -1.8792 -1.87919 v 0.56605 0.56605 l 1.05753,1.93532 1.05753,1.93532 h 1.98532 1.98534 z m 269.8692,-36.30509 -0.0156,-1.71577 -0.87168,-1.3471 -0.87169,-1.34712 -1.15584,3.24738 -1.15584,3.24738 v 0.88645 0.88644 l 2.04312,-1.07096 2.04317,-1.07095 z m 16.77144,-16.14035 -0.4104,-0.41689 -0.59668,0.5844 -0.59669,0.5844 -0.55288,4.03714 -0.55288,4.03714 0.81285,1.79865 0.81286,1.79865 0.74711,-6.0033 0.74713,-6.00329 z m -134.04537,-52.71225 1.72531,-0.60161 -0.54325,-5.65246 -0.54325,-5.65246 -1.44435,-7.00384 -1.44434,-7.00384 -1.152,-6.84532 -1.152,-6.84531 -0.95121,1.34229 -0.95121,1.3423 0.62627,-2.18862 0.62626,-2.18861 -1.69574,-5.81578 -1.69574,-5.81577 -0.001,-2.12788 -10e-4,-2.12788 -1.92725,0.49361 -1.92743,0.49361 v 2.21792 2.21793 l -0.72702,0.71204 -0.72702,0.71205 -4.95572,16.2139 -4.95574,16.21391 -0.37896,2.50137 -0.37896,2.50137 -0.70969,4.69702 -0.70968,4.69702 0.6032,1.53954 0.6032,1.53955 1.57106,-0.59046 1.57105,-0.59045 v -1.07915 -1.07916 l 2.27181,-2.36842 2.2718,-2.36841 -1.50561,-0.93084 -1.50562,-0.93084 3.52253,-6.52057 3.52247,-6.52059 h 1.26116 1.26117 l 0.62091,1.91601 0.6209,1.91601 -0.62792,2.45034 -0.62792,2.45033 2.31706,0.59345 2.31706,0.59344 -1.54597,1.79392 -1.54595,1.79391 -1.63465,4.25233 -1.63464,4.25234 h 0.78446 0.78442 l 1.6383,-4.08482 1.6383,-4.08481 1.83683,0.3497 1.83682,0.3497 -0.18181,5.29529 -0.18182,5.2953 1.2034,-0.55899 1.2034,-0.55899 z M 204.958,253.822 l -0.34053,-0.75041 -2.94887,-6.25343 -2.94888,-6.25343 h -0.84019 -0.84018 l 2.01798,4.25233 2.01797,4.25234 1.22887,2.7515 1.22887,2.75151 h 0.88274 0.88276 z m -19.37049,-8.68731 -0.85533,-2.93416 -1.15423,-1.06804 -1.15424,-1.06803 0.57115,2.00109 0.57113,2.0011 0.72369,3.98552 0.72367,3.98552 0.71474,-1.98443 0.71476,-1.98441 z m -1.36502,-21.82943 0.69554,-2.75151 h -1.02141 -1.02142 l -1.6433,4.02245 -1.6433,4.02243 0.0173,1.73072 0.0172,1.73071 1.95197,-3.00164 1.95197,-3.00165 z m 69.68596,1.21058 2.56302,-4.46236 6.06588,-11.3057 6.06588,-11.3057 -0.39859,-1.17111 -0.39857,-1.1711 -2.80155,5.47296 -2.80156,5.47296 -2.6233,4.50247 -2.62331,4.50247 -3.69451,6.50357 -3.69454,6.50357 -0.38309,0.87548 -0.3831,0.87548 1.27215,-0.41532 1.27216,-0.41532 z m 9.41486,-3.61644 2.10337,-4.65709 -0.52318,-0.5124 -0.52319,-0.51242 v 1.02769 1.02768 l -2.46679,3.56016 -2.4668,3.56017 0.5939,0.58166 0.59387,0.58165 h 0.29273 0.29272 z m -21.73367,2.40586 0.956,-1.25069 2.77595,-7.10674 2.77593,-7.10674 3.9399,-5.9004 3.93988,-5.90039 -0.89662,-0.33031 -0.89661,-0.33032 -2.8058,2.16159 -2.80579,2.16158 -0.05,1.17038 -0.0499,1.17038 -1.87512,4.00219 -1.87513,4.0022 -0.88239,1.50082 -0.8824,1.50082 -1.57729,3.44354 -1.5773,3.44353 -0.59187,2.30963 -0.59194,2.30962 h 1.00725 1.00724 z m 0.82488,-19.58003 -0.31016,-0.31947 -2.0239,1.23792 -2.0239,1.23792 -0.0369,2.0832 -0.0368,2.08319 -0.59351,3.00164 -0.59352,3.00165 2.9644,-6.00329 2.96439,-6.0033 z m 12.24351,5.85574 2.57117,-4.96947 v -0.65605 -0.65605 l -1.45791,1.18504 -1.45791,1.18505 -1.54484,4.44048 -1.54484,4.44049 h 0.43158 0.43158 z m 6.19887,-10.50688 1.48024,-3.46979 -0.10185,-2.28337 -0.10186,-2.28337 -0.66782,2.0011 -0.66782,2.00109 -1.74357,3.12494 -1.74358,3.12492 0.64033,0.62714 0.64031,0.62712 h 0.39265 0.39266 z m 6.94371,-10.76319 -0.6705,-4.10669 -1.39571,-4.08744 -1.39571,-4.08744 0.55971,4.00219 0.55972,4.0022 0.62193,4.72737 0.62193,4.72736 0.88455,-0.53542 0.88455,-0.53542 z m -6.70081,-4.52732 -0.95388,-4.75261 -1.46035,-6.42214 -1.46035,-6.42214 -0.50879,-0.49833 -0.5088,-0.49831 -0.52421,0.5134 -0.5242,0.51341 1.42242,3.40541 1.42243,3.40541 0.69485,6.00329 0.69485,6.0033 0.51894,1.75096 0.51894,1.75096 h 0.81102 0.81102 z"
       id="path27" /><use
       xlink:href="#contour"
       x="0"
       y="0"
       id="use1"
       style="display:inline;opacity:1;fill:none;fill-opacity:1;stroke:none;stroke-opacity:1" /></g></svg>
