<?xml version="1.0" encoding="UTF-8" standalone="no"?>
<!-- Created with Inkscape (http://www.inkscape.org/) -->

<svg
   width="500"
   height="900"
   viewBox="0 0 500 900"
   version="1.1"
   id="saga_de_billy"
   xml:space="preserve"
   inkscape:version="1.3.2 (091e20e, 2023-11-25, custom)"
   sodipodi:docname="LDV.svg"
   inkscape:export-filename="FDCN.svg"
   inkscape:export-xdpi="96"
   inkscape:export-ydpi="96"
   xmlns:inkscape="http://www.inkscape.org/namespaces/inkscape"
   xmlns:sodipodi="http://sodipodi.sourceforge.net/DTD/sodipodi-0.dtd"
   xmlns:xlink="http://www.w3.org/1999/xlink"
   xmlns="http://www.w3.org/2000/svg"
   xmlns:svg="http://www.w3.org/2000/svg"><sodipodi:namedview
     id="namedview1"
     pagecolor="#ffffff"
     bordercolor="#000000"
     borderopacity="0.25"
     inkscape:showpageshadow="0"
     inkscape:pageopacity="0.0"
     inkscape:pagecheckerboard="0"
     inkscape:deskcolor="#d1d1d1"
     inkscape:document-units="px"
     inkscape:zoom="0.35355339"
     inkscape:cx="550.12908"
     inkscape:cy="541.6438"
     inkscape:window-width="1920"
     inkscape:window-height="1009"
     inkscape:window-x="-8"
     inkscape:window-y="-8"
     inkscape:window-maximized="1"
     inkscape:current-layer="LDV"
     showgrid="false"><inkscape:page
       x="0"
       y="0"
       width="500"
       height="900"
       id="page_LDV"
       margin="0"
       bleed="0"
       inkscape:label="LDV" /></sodipodi:namedview><defs
     id="defs1"><path
       id="contour"
       style="display:inline;opacity:1;mix-blend-mode:normal;fill:#000000;fill-opacity:1;stroke-linejoin:round"
       d="M 250,0 0,360 250,900 500,360 Z M 250,40 355,190 250,60 145,190 Z M 475,360 250,820 25,360 250,80 Z M 400,540 250,875 100,540 250,855 Z" /></defs><g
     inkscape:groupmode="layer"
     id="LDV"
     x="200%"
     width="100%"
     height="100%"
     inkscape:highlight-color="#00ff9f"
     style="display:inline"><path
       id="path7"
       style="display:inline;fill:#000000"
       d="m 250.64062,171.79492 c -35.56685,0.54751 -71.49555,10.37379 -98.68359,29.33789 -4.12974,2.88056 -6.68983,4.11377 -7.55469,3.74414 -29.12491,20.42942 -52.482021,49.03089 -67.537106,82.70117 0.219912,-0.15055 0.876729,-0.85418 0.90625,-0.76562 0.188686,0.56605 -0.829357,3.34134 -2.261718,6.16797 -3.824811,7.5479 -6.862796,15.47662 -9.228516,23.99219 -1.187092,4.59379 -2.224184,9.23074 -3.109375,13.90234 -2.094133,11.73899 -3.151403,24.6253 -3.162109,39.32031 -0.02161,29.66317 3.374348,54.81294 10.736328,77.17774 2.363708,6.87637 5.070088,13.61135 8.107422,20.17578 1.317437,2.75661 2.710662,5.47634 4.177734,8.15625 2.116992,3.81729 4.349296,7.55951 6.693359,11.2207 7.392049,11.34002 16.236711,22.1046 26.744141,32.58789 32.95067,32.87498 61.8138,48.07118 102.48047,53.95703 6.29664,0.91134 11.77387,1.85755 12.17187,2.10352 5.6253,3.47663 7.43443,57.56107 2.12891,63.64062 -0.86681,0.99324 -1.26404,2.6766 -0.94336,4 0.30453,1.25677 1.0188,4.08516 1.58594,6.28516 1.17121,4.54327 0.45125,10.98545 -1.57617,14.11523 -1.09143,1.68487 -1.12909,2.70178 -0.18946,5 0.77476,1.895 1.10717,8.54675 0.97071,19.38477 -0.11424,9.07499 -0.18425,18.075 -0.15625,20 0.24814,17.05933 0.0918,33.81684 -0.48243,51.75 l -0.95898,23.125 8.40039,19.45312 c -1.83247,-3.64901 -0.16733,-78.47024 1.75586,-81.58203 0.44245,-0.71589 14.22604,-0.009 15.15234,0.77735 0.17019,0.14441 0.5035,4.92266 0.74024,10.61914 0.23675,5.69647 0.89219,20.25743 1.45703,32.35742 0.56484,12.09999 1.70668,32.3 1.77148,34.5 l 7.94141,-15.01953 c -1.49785,0.038 -1.64676,-2.71422 -2.14453,-39.48047 -0.27551,-20.34998 -0.92476,-38.575 -1.44141,-40.5 -1.48067,-5.51686 -2.24887,-29.01101 -1.08593,-33.2168 0.85843,-3.10452 0.69254,-4.37218 -1.00977,-7.70898 -2.4458,-4.79417 -2.78874,-14.66613 -0.61328,-17.63281 1.24846,-1.70253 1.20081,-2.31016 -0.38867,-4.94141 -1.66986,-2.76429 -4.72674,-28.62573 -4.13672,-35 0.10182,-1.1 0.31064,-4.25 0.46289,-7 0.30405,-5.49191 3.04757,-16.45509 5.12109,-20.46484 1.23279,-2.38394 2.20301,-2.67169 14.66797,-4.3418 26.9741,-3.61412 41.51744,-9.45935 69.08984,-27.77344 65.56183,-43.54736 100.34491,-133.61459 87.72852,-211.90625 -16.46705,-85.19321 -81.34657,-149.8729 -161.70703,-161.20898 -7.47185,-0.7303 -15.02773,-1.12666 -22.6211,-1.00977 z m 3.8125,10.35547 c 99.24897,2.25029 182.48459,88.56149 172.64454,199.61719 -8.35984,94.34983 -66.23542,166.25696 -146.19141,181.63086 -4.07306,0.78317 -8.59438,1.72524 -10.04687,2.09375 -4.3173,1.09534 -4.14087,-0.47274 2.22265,-19.65039 6.93645,-20.90425 6.86937,-19.6489 2.39844,-43.8418 -5.43685,-29.41949 -10.74061,-58.92526 -12.04297,-67 -3.13226,-19.4202 -5.4909,-33.07344 -7.33984,-42.5 -1.07879,-5.49999 -2.90742,-15.17501 -4.06446,-21.5 -2.97712,-16.27456 -3.12736,-16.56584 -4.65234,-9 -0.72058,3.575 -2.42723,11.90001 -3.79102,18.5 -1.36377,6.59999 -2.98446,14.7 -3.60351,18 -2.36145,12.58839 -7.96983,39.52612 -10.82617,52 -1.63725,7.14999 -3.96444,18.62501 -5.16993,25.5 -2.84657,16.23416 -6.57125,35.69692 -8.5039,44.43555 l -1.53321,6.93554 3.40821,8.56446 C 221.46715,546.25127 227,562.3633 227,564.00391 c 0,3.35233 -41.55379,-7.99492 -53.19141,-14.52539 -2.36992,-1.32989 -6.10859,-3.39119 -8.30859,-4.58008 -7.22961,-3.90691 -16.99943,-10.51398 -22.16992,-14.99414 -2.79528,-2.42207 -7.27167,-6.13002 -9.94727,-8.23828 -2.67559,-2.10828 -7.74947,-7.05829 -11.27539,-11 -3.5259,-3.94173 -8.8442,-9.83965 -11.81836,-13.10743 C 75.402083,459.22754 57.482055,367.99013 75.451172,320.19336 76.214709,318.16239 78.269069,312.675 80.017578,308 98.01531,259.87941 143.38354,210.53109 184.13086,194.75195 c 23.66204,-9.16296 47.41866,-13.12086 70.32226,-12.60156 z m -1.25585,9.23828 c -20.32346,0.1658 -42.18139,4.7926 -60.37696,13.39649 -5.67605,2.68396 -11.78749,5.46314 -13.58008,6.17382 -20.18549,8.00277 -53.04894,37.51949 -70.87304,63.65625 C 105.26235,279.16808 91,305.39776 91,306.55469 c 0,0.54092 -1.418869,4.35026 -3.152344,8.46484 -11.464172,27.21139 -13.25823,62.32621 -5.207031,101.88477 8.994616,44.19392 45.947635,98.05093 77.359375,112.74804 3.025,1.41536 6.40616,3.40262 7.51367,4.41407 1.1075,1.01144 3.8075,2.57577 6,3.47851 2.19249,0.90273 6.7914,2.97002 10.21875,4.5918 7.20106,3.40743 12.76827,5.285 23.26758,7.84961 4.125,1.00759 7.8375,1.87393 8.25,1.92383 1.49452,0.18078 0.70082,-6.86013 -1.38867,-12.32032 l -2.13867,-5.58789 -7.11133,-2.00781 c -3.91142,-1.1045 -9.58633,-2.7354 -12.61133,-3.625 -5.51177,-1.62091 -15.44283,-6.974 -22,-11.85742 -1.925,-1.43363 -6.65,-4.89531 -10.5,-7.69336 -7.99501,-5.81048 -19.41711,-16.60244 -26.65625,-25.18359 -2.72114,-3.22559 -7.10394,-7.5006 -9.73828,-9.5 -9.97579,-7.57141 -15.23553,-16.9586 -17.16406,-30.63477 -0.5429,-3.85 -2.33606,-11.95001 -3.98633,-18 -1.65027,-6.04999 -3.417793,-12.575 -3.925783,-14.5 -3.995217,-15.13961 -4.062343,-59.47413 -0.111328,-73.5 1.239457,-4.4 2.942711,-10.475 3.783201,-13.5 3.2827,-11.81467 17.22876,-36.38695 29.72656,-52.375 4.14564,-5.30337 8.25916,-10.74455 9.14063,-12.08984 0.88148,-1.34529 3.59043,-3.60967 6.01953,-5.03321 2.42909,-1.42355 5.42775,-3.96196 6.66406,-5.64062 2.44892,-3.32515 13.11818,-10.66223 27.24805,-18.73828 4.95,-2.82922 9.45,-5.71712 10,-6.41602 0.55,-0.69889 2.575,-1.78612 4.5,-2.41797 1.925,-0.63185 7.325,-2.50741 12,-4.16797 24.23356,-8.60772 53.45046,-11.18326 69.5,-6.125 27.9398,8.80568 38.04362,13.17762 54.56445,23.60938 6.36081,4.0164 12.66081,7.74395 14,8.2832 5.01834,2.02072 26.20597,26.8412 31.09766,36.42969 1.15589,2.26573 2.93825,5.25851 3.96094,6.65039 2.47857,3.37332 9.12139,19.72718 14.00586,34.48047 2.17584,6.57203 4.49484,12.59643 5.15234,13.38867 0.86056,1.03691 1.19903,8.89513 1.20703,28.05078 0.0121,27.59545 -0.63559,34.01712 -5.46289,54.11133 -0.99096,4.125 -2.34966,11.325 -3.01953,16 -1.98982,13.88691 -12.21353,34.39776 -20.02344,40.17188 -1.62221,1.19935 -4.08179,3.89055 -5.46484,5.98046 -1.38304,2.08993 -5.55209,7.38716 -9.26563,11.77149 -3.71353,4.38431 -7.48274,9.01741 -8.37695,10.29687 -0.8942,1.27946 -3.97942,3.60654 -6.85547,5.17188 -2.87605,1.56535 -8.13137,5.04232 -11.67773,7.72656 -3.54637,2.68424 -6.8391,4.88086 -7.31641,4.88086 -0.47731,0 -4.48239,2.24302 -8.90234,4.98438 -6.3694,3.95041 -9.4767,5.2072 -14.97657,6.06054 -15.18584,2.35616 -20.49878,7.46388 -22.06054,21.20508 -0.23541,2.07127 9.26116,0.35451 18.41406,-3.32812 5.49999,-2.2129 13.21364,-4.86954 17.14258,-5.9043 18.92575,-4.98446 53.26521,-30.68205 64.83203,-48.51758 16.09162,-24.8126 24.49169,-42.00592 30.84375,-63.12695 C 423.99775,377.23798 418.38459,314.64536 395.01367,281 c -0.95511,-1.375 -2.26613,-4.13609 -2.91406,-6.13477 -3.36708,-10.3864 -22.60803,-34.02537 -33.67188,-41.36914 -2.94538,-1.95503 -5.93527,-4.35618 -6.64257,-5.33593 C 346.62997,221.01919 313.4236,204.54171 287,196.01367 c -9.96759,-3.21697 -21.60866,-4.72448 -33.80273,-4.625 z m -8.66407,23.00391 c -5.26686,0.27881 -10.24407,1.8602 -14.72656,4.73437 -2.88072,1.84712 -6.9361,3.3511 -10.5,3.89258 -21.03005,3.19523 -56.20621,23.64554 -63.17773,36.73047 -1.63025,3.05984 -1.00783,2.84211 3.50976,-1.22656 6.14503,-5.53438 7.1439,-3.97473 2.86328,4.47265 -11.13983,21.98341 -15.99079,58.99474 -10.61718,81.00391 3.74317,15.33129 8.56826,28.44151 16.92773,46 5.00463,10.51191 6.44051,23.79574 2.40625,22.25977 -0.94488,-0.35975 0.25442,1.5717 2.66602,4.29296 14.34938,16.19201 7.75051,45.66936 -12.19336,54.47071 -16.09228,7.10162 12.48754,21.03514 31.88086,15.54297 14.35178,-4.06442 24.69825,-9.53493 25.24804,-13.34961 0.42827,-2.97155 0.0211,-2.86076 -6.92383,1.85547 -9.18649,6.23842 -15.55797,8.13063 -27.89648,8.29101 -15.66792,0.20365 -28.42948,-5.61534 -20.28906,-9.25195 5.77758,-2.58105 10.3089,-6.50123 15.53906,-13.44531 13.40779,-17.80151 16.95364,-26.34611 20.0918,-48.40235 l 2.16797,-15.23437 2.91406,5.23437 C 209.94425,412.18529 229,428.29736 229,423.04297 c 0,-1.29485 -1.52205,-2.95757 -4.25,-4.64258 -37.15535,-22.95031 -27.80912,-82.70254 14.59375,-93.29883 7.36763,-1.84161 9.46181,-1.84018 20.15625,0.006 41.89206,7.23126 49.43257,74.75706 10.62695,95.16797 -3.21529,1.69118 -3.34422,1.96838 -2.71484,5.9043 1.00228,6.26793 1.46037,6.37157 6.45703,1.46093 12.43765,-12.22352 36.66356,-26.91109 51.33203,-31.11914 14.67554,-4.21007 26.75338,-0.31708 44.92383,14.47852 2.36409,1.925 3.94545,2.92642 3.51367,2.22656 -0.43178,-0.69986 -0.0299,-3.54294 0.89258,-6.32031 3.1083,-9.35822 2.11366,-23.65263 -2.24805,-32.30664 -8.62388,-17.11052 -20.03449,-23.95696 -66.7832,-40.06836 -24.50157,-8.44418 -35.18966,-12.38621 -41.69531,-15.375 C 261.22237,317.9699 258.67851,317 258.15234,317 c -4.37556,0 -28.15156,-22.50106 -31.14453,-29.47461 -0.95012,-2.21375 -3.72503,-6.14039 -6.16797,-8.72461 -7.35375,-7.77905 -9.62647,-19.52554 -6.39453,-33.04883 1.98494,-8.30553 0.004,-8.48702 -9.42187,-0.86914 -16.0568,12.97726 -21.58453,25.30498 -24.01758,53.5586 -1.50247,17.44728 -0.21848,27.86702 6.12305,49.66601 8.93576,30.71663 9.08421,31.52878 9.16601,50.39258 0.0924,21.29337 -7.65433,50.5 -13.39453,50.5 -1.34688,0 -0.18803,-10.04128 1.78906,-15.5 3.06324,-8.45752 3.52447,-12.60254 3.50977,-31.5 -0.0189,-24.29844 -1.86516,-36.91456 -7.09961,-48.5 -10.47669,-23.18809 -11.00929,-74.57177 -0.9707,-93.68164 5.20217,-9.90305 27.53316,-31.72336 34.83593,-34.03906 6.39822,-2.02888 6.67006,-1.90679 4.60938,2.07812 -2.89515,5.5986 -1.62322,5.41792 4.91601,-0.69922 30.55239,-28.58026 74.82323,13.74059 49.79883,47.60547 -5.75062,7.78217 -17.57897,14.2246 -26.16406,14.25 -2.54335,0.008 -5.61244,0.27818 -6.81836,0.60156 l -2.19141,0.58789 2.1543,3.28907 c 5.27421,8.04589 24.82964,17.37921 55.23047,26.36328 36.96404,10.92363 48.47284,15.71115 61.20312,25.46289 20.26837,15.52616 28.11843,43.175 20.21094,71.18164 -0.15529,0.55 0.3024,3.685 1.01758,6.9668 8.05524,36.96394 -34.60268,61.97674 -59.11719,34.66406 -11.31671,-12.60845 -9.15868,-35.6739 4.7793,-51.10156 l 3.52148,-3.90039 -3.80664,1.01953 c -12.55099,3.35749 -33.17442,16.84873 -45.61132,29.83789 -9.32202,9.73595 -9.00553,6.47737 -3.48633,35.98437 l 1.02344,5.47071 7.36132,-7.67969 c 4.04929,-4.22345 10.66759,-12.76024 14.70703,-18.9707 10.07727,-15.49333 11.92761,-16.80361 12.08594,-8.55469 0.10978,5.71939 -12.69497,24.14823 -29.48242,42.42773 -2.75506,2.99992 -3.94296,7.33594 -2.00977,7.33594 3.37886,0 22.85223,-24.00962 28.9961,-35.75 1.68278,-3.21565 3.85839,-2.77985 5.47851,1.09766 3.21758,7.70075 16.50142,16.7567 26.68164,18.1914 9.13507,1.28741 8.95613,1.80642 -4.57226,13.29297 -12.1321,10.30101 -31.83409,21.9373 -43.1875,25.50781 -6.17741,1.94273 -7.86,2.8865 -8.11328,4.55469 v 0.002 c -0.40641,2.67677 -0.24411,2.66262 9.40625,-0.75 21.52888,-7.61315 45.43175,-24.11393 57.39844,-39.625 2.98452,-3.8685 5.97046,-6.41641 9.60742,-8.19726 9.95296,-4.87349 18.85676,-15.73277 20.56836,-25.08399 0.57785,-3.15702 2.99449,-11.81524 5.36914,-19.24023 3.90628,-12.21403 7.60719,-32.19554 6.2207,-33.58203 -0.27833,-0.27834 -1.45699,4.59608 -2.61914,10.83203 -2.35049,12.61241 -5.20615,21.94307 -6.88867,22.50391 -2.39075,0.79691 -3.25466,-3.39771 -1.73047,-8.4043 1.27539,-4.18933 2.16545,-10.03586 4.00976,-26.34961 C 387.72111,369.5435 376.24551,339.94914 360.56055,324.627 344.51121,308.94887 334.75164,304.30316 313,301.99219 286.54575,299.1816 262.12982,290.04545 267.52539,284.97656 l 2.56445,-2.41015 6.20508,1.77343 c 3.41264,0.97481 8.28826,2.3829 10.83399,3.12891 2.54572,0.74601 11.77073,2.10196 20.5,3.01367 34.77081,3.63156 54.20546,15.50448 73.27929,44.76758 14.38522,22.0698 9.90606,-9.05743 -5.57617,-38.75 -19.07367,-36.58042 -60.89265,-68.07622 -99.70898,-75.0957 -5.0177,-0.90739 -11.59805,-2.67445 -14.62305,-3.92774 -5.64348,-2.33814 -11.19993,-3.36279 -16.4668,-3.08398 z m 2.98828,10.72461 c -3.4735,-0.17352 -6.89072,0.42665 -10.00586,1.98242 -24.29067,12.13136 -21.40773,47.11976 4.53711,55.06836 15.83317,4.85072 30.35247,-6.34479 33.94922,-26.17969 2.6933,-14.85266 -13.42861,-30.1192 -28.48047,-30.87109 z m 31.07032,1.13672 c 1.18216,-0.44488 4.26714,0.43482 10.04492,2.34375 17.07196,5.64041 41.28492,20.2921 54.14453,32.76172 3.78881,3.6739 7.58021,7.23328 8.42578,7.91015 9.4739,7.58379 27.68842,39.67952 32.33594,56.98047 1.41703,5.27506 -0.30771,6.92761 -2.6543,2.54297 C 368.86509,306.3267 340.64938,288.69046 312.5,286.04688 c -21.78505,-2.04589 -35.5,-4.7986 -35.5,-7.125 0,-0.5506 0.95523,-2.87494 2.12305,-5.16407 7.75166,-15.19451 8.01894,-28.55716 0.83593,-41.89453 -1.82849,-3.39514 -2.54934,-5.1645 -1.36718,-5.60937 z M 245,226.82422 l 4.25,0.68359 c 6.5022,1.04647 8.5204,2.77849 9.30078,7.98242 0.72328,4.82315 3.01951,6.41557 7.29492,5.0586 1.50051,-0.47624 2.65263,0.23765 4.6836,2.90039 3.1233,4.09486 2.74011,6.23268 -1.22071,6.82812 -2.66273,0.40029 -2.6378,0.43024 0.47266,0.57227 5.81418,0.26548 5.11252,10.43339 -0.79883,11.57422 -1.63997,0.3165 -4.36279,0.84331 -6.04883,1.16992 l -3.06445,0.59375 0.24024,6.625 c 0.32218,8.88703 -8.10897,14.81712 -10.21876,7.1875 l -0.6914,-2.5 -0.0996,2.75 c -0.17953,4.95282 -10.46444,2.36343 -11.66797,-2.9375 -2.07627,-9.14493 -1.86937,-8.8125 -5.50586,-8.8125 -5.70255,0 -12.2066,-8.35814 -8.57226,-11.01562 1.17547,-0.85954 1.28749,-1.44298 0.44336,-2.28711 -0.84417,-0.84414 -0.82554,-2.15966 0.0723,-5.15625 1.1915,-3.97687 1.68043,-4.31479 7.63086,-5.29102 1.54993,-0.25429 1.94236,-0.99453 1.74219,-3.28906 -0.45495,-5.21493 0.60352,-7.36946 4.39843,-8.95508 5.19363,-2.17004 6.18329,-1.9097 6.63672,1.74414 0.34215,2.75703 0.42674,2.59202 0.5625,-1.08789 z m -0.0176,13.72851 c -0.49868,-0.0782 -0.86282,0.21521 -1.34961,0.83985 -0.62252,0.7988 -3.09932,3.9602 -5.50195,7.02539 l -4.36719,5.57422 6.86719,6.45703 c 8.13367,7.64755 6.83838,7.7574 13.79297,-1.15625 l 5.625,-7.20899 -5.27539,-4.07031 c -2.90073,-2.23892 -6.33815,-4.97168 -7.64063,-6.07226 -1.01849,-0.86062 -1.65171,-1.3105 -2.15039,-1.38868 z m -34.74219,3.94727 -0.6914,8.52539 c -1.04144,12.84172 2.24861,23.24881 9.20312,29.11914 1.53473,1.29547 3.34175,4.15547 4.01758,6.35547 2.13833,6.96085 12.23066,18.63775 21.21875,24.55273 10.09104,6.64082 10.11829,7.51308 0.26172,8.20508 -14.8102,1.03977 -28.72092,9.67859 -36.75,22.82227 -4.18367,6.84869 -7.63891,14.65918 -8.15625,18.43359 -1.07042,7.80958 -2.3348,6.20075 -6.29883,-8.01367 -1.22704,-4.4 -2.85657,-9.8 -3.62109,-12 -12.44474,-35.81116 -4.90348,-75.95322 17.94726,-95.53906 z m -59.82617,21.88086 c -1.5564,0.4589 -4.92113,3.99583 -10.1289,10.61914 -30.36056,38.61295 -42.922934,94.21721 -31.29102,138.5 1.17499,4.47318 2.00907,10.42469 1.89063,13.5 -0.77081,20.01378 0.79408,25.53269 9.86523,34.78125 3.62442,3.69531 7.88974,8.29375 9.47852,10.21875 12.6646,15.34463 27.91044,28.35415 39.32226,33.55469 9.11003,4.15157 10.75807,4.41534 3.94922,0.63086 -5.65577,-3.14359 -14.29697,-9.20552 -19.5,-13.67774 -4.73085,-4.06633 -17.98189,-17.83796 -17.99219,-18.69922 -0.0278,-2.32669 2.62817,-1.46814 5.80469,1.87696 13.44721,14.16079 33.98919,25.58571 57.1875,31.80664 3.575,0.95868 6.95,1.88021 7.5,2.04687 5.44727,1.65057 5.5401,1.49605 8.46875,-13.9375 2.10281,-11.08152 2.07376,-12.69782 -0.19531,-10.84961 -5.3245,4.33692 -31.02321,8.2844 -41.44336,6.36524 C 160.37569,490.73128 139.71802,474 149.72656,474 c 3.36025,0 0.4524,-0.9331 -6.23828,-2.00195 -20.70687,-3.30794 -31.92588,-17.50257 -30.25781,-38.28321 1.79143,-22.31738 24.94909,-37.20346 45.67578,-29.36132 6.05541,2.29111 6.05786,2.17863 0.26367,-11.08985 -18.3397,-41.99726 -20.67651,-55.22146 -15.68945,-88.76367 2.8632,-19.25742 3.64155,-23.05554 6.21289,-30.27344 2.02523,-5.68495 2.2771,-8.3046 0.7207,-7.8457 z m -7.70508,15.16016 c 0.61769,0.613 -0.0889,4.47724 -1.75,11.95898 -4.6473,20.93186 -4.45169,50.12642 0.42969,64 4.85042,13.78554 8.59773,24.03332 9.50586,26 4.93362,10.68442 6.88886,15.50601 6.30274,15.53711 -0.3836,0.0203 -5.42228,0.14128 -11.19727,0.26953 -9.514,0.21129 -11.01647,0.51351 -16,3.21094 -3.025,1.63734 -7.86054,5.3985 -10.74609,8.35937 l -5.2461,5.38477 -1.46093,-3.49414 c -3.68614,-8.82218 -5.69752,-29.58244 -4.04493,-41.74024 0.71229,-5.24014 1.61192,-12.67734 2,-16.52734 1.69845,-16.84994 13.39433,-46.26308 26.00977,-65.41211 3.63709,-5.52075 5.57958,-8.15987 6.19726,-7.54687 z m 90.06446,4.51953 C 232.26578,286.06055 232,286.37354 232,287 c 0,0.55 1.0125,0.99279 2.25,0.98438 1.81944,-0.0124 1.96296,-0.20051 0.75,-0.98438 -0.96938,-0.62646 -1.71891,-0.93945 -2.22656,-0.93945 z m 51.44726,45.92968 c 2.36139,0.22136 7.89069,1.99517 17.87305,5.44336 44.77829,15.46771 50.68066,18.49794 62.48828,32.06641 8.79581,10.10751 11.76654,41.81184 3.16016,33.72656 -16.26483,-15.28 -61.931,-11.57276 -76.70313,6.22656 C 289.67443,411.0974 288,411.51808 288,410.2168 c 0,-0.4305 1.60242,-3.79872 3.56055,-7.48633 11.94763,-22.50017 9.30976,-50.9013 -6.20899,-66.86524 -2.68724,-2.76433 -3.49224,-4.09635 -1.13086,-3.875 z M 249.41211,337 c -34.08154,0 -49.90311,43.39209 -24.23633,66.46875 6.01109,5.40447 6.38295,5.46622 7.66211,1.28125 3.425,-11.20539 3.50477,-13.43293 0.61719,-17.21875 -7.28566,-9.55199 -3.30771,-26.9964 7.2539,-31.80859 1.34207,-0.61148 3.0947,-2.37504 3.89258,-3.91797 1.94079,-3.75308 4.96213,-3.60303 8.99219,0.44531 1.77942,1.7875 4.91654,4.59239 6.97266,6.23242 8.6173,6.87349 9.70057,20.31175 2.45703,30.48438 -2.29566,3.22395 -1.72017,12.99322 1.07226,18.21093 1.20417,2.25004 1.53897,2.25635 4.3086,0.0723 C 297.9077,383.98408 285.20497,337 249.41211,337 Z m 141.93555,20.87695 c -0.1235,-0.0568 -0.24516,0.0173 -0.36328,0.23633 -0.81255,1.50688 0.48708,21.22343 1.50781,22.875 1.20148,1.94404 1.35424,0.95819 1.04101,-6.73828 -0.3712,-9.12066 -1.32106,-15.9757 -2.18554,-16.37305 z M 341.35742,398 c -0.53655,0 -1.84839,0.69934 -2.91601,1.55469 -1.83031,1.46637 -1.79868,1.48788 0.55859,0.36523 C 342.06103,398.46211 342.62796,398 341.35742,398 Z m 4.66992,7.97852 c -10.31612,-0.67058 -20.93022,5.26435 -26.0332,19.25976 l -2.25586,6.1836 2.31641,9.80664 c 3.13812,13.29333 8.08463,18.30096 20.44531,20.69726 15.63607,3.03129 31.41652,-8.84252 31.47852,-23.6875 0.0818,-19.61417 -12.68758,-31.39759 -25.95118,-32.25976 z M 150.625,409.18164 c -5.4419,-0.28573 -11.4869,0.88059 -17.80664,3.74609 -19.86124,9.00552 -15.05702,45.93636 6.65234,51.14063 16.82152,4.03252 32.49633,-4.82814 34.99024,-19.78125 3.38923,-20.32147 -7.51025,-34.24829 -23.83594,-35.10547 z m 203.87891,0.14258 c 2.86512,-0.12061 4.9857,1.23552 3.85742,4.17578 -0.36063,0.9398 0.0751,1.1984 1.42383,0.8457 1.3571,-0.35489 2.70058,0.46075 4.45703,2.70508 l 2.51562,3.21289 -1.77734,5.04883 c -2.02815,5.75911 -1.81329,6.98595 1.48828,8.49023 2.88962,1.3166 3.92597,4.2762 3.08008,8.78516 -0.77931,4.15408 -1.72728,4.20477 -7.75391,0.41992 -4.92104,-3.0905 -5.72261,-4.71685 -7.31836,-14.84765 -0.53341,-3.38636 -1.04493,-4.23445 -2.33008,-3.86524 -16.14291,4.63774 -16.16721,4.63424 -23.64648,-1.7793 l -4,-3.42968 3,-2.50586 c 3.81506,-3.1886 5.60632,-3.18744 11.05859,0.008 l 4.41602,2.58594 3.20898,-5.16016 c 1.84657,-2.9705 5.4552,-4.56884 8.32032,-4.68945 z m -197.65821,3.27734 3.6875,1.94922 c 5.15,2.72241 5.28736,4.02487 0.89844,8.51953 -2.11035,2.1612 -3.37434,3.92969 -2.80859,3.92969 0.56575,0 2.0852,-1.125 3.37695,-2.5 6.23387,-6.63565 10.86401,0.7806 4.95312,7.93359 -4.85052,5.86982 -4.85174,5.63593 0.0801,10.98633 l 4.03321,4.375 -1.69727,3.5586 c -3.98918,8.3654 -11.68094,0.0785 -12.83984,-13.83399 -0.39035,-4.686 -1.00601,-8.5386 -1.36914,-8.5625 -0.36313,-0.0239 -2.68516,-0.44739 -5.16016,-0.94141 -6.86494,-1.37024 -12.08447,-0.30498 -11.54883,2.35938 0.23488,1.1683 0.69421,4.47612 1.01953,7.34961 l 0.5918,5.22461 -5.13281,5.02539 c -6.25436,6.12409 -6.4168,6.13391 -9.14258,0.52344 l -2.1875,-4.50391 3.87891,-3.9707 3.87695,-3.97266 -1.92774,-2.27539 C 128.36731,432.52387 127.275,431.275 127,431 c -2.83564,-2.83564 -3.07431,-3.88776 -1.65234,-7.29102 2.12978,-5.0973 3.37269,-5.36292 7.36914,-1.57226 l 3.54687,3.36328 -3.11328,-4.375 c -3.56136,-5.00475 -3.45183,-5.54077 1.4668,-7.16406 3.52728,-1.16411 3.67041,-1.10163 8.43945,3.5957 l 4.85156,4.7793 4.46875,-4.86719 z m 96.54492,8.47852 c 1.33773,1.45846 3.11839,8.65515 4.63282,18.7207 2.50918,16.67719 9.0173,53.25663 13.87695,77.99805 0.7249,3.69059 0.21909,6.30615 -3.58008,18.5 -2.4336,7.81092 -5.26177,17.37683 -6.2832,21.25781 -1.02142,3.88099 -2.91557,10.14599 -4.21094,13.92188 -2.36708,6.89981 -4.07862,8.91377 -5.16601,6.08007 -1.34535,-3.50592 -0.62434,-157.95559 0.73046,-156.47851 z m 70.87305,1.9414 c 0.68012,0.0119 3.67682,1.28321 6.66016,2.82422 l 5.42383,2.80078 1.90429,8.17774 c 1.04716,4.49709 2.27965,8.17578 2.73828,8.17578 0.45862,0 4.29468,-0.66318 8.52539,-1.47266 8.58091,-1.64179 10.76508,-1.09253 15.39844,3.86719 2.38221,2.55 2.38957,2.61249 0.51172,4.6875 -3.86805,4.27415 -5.37194,4.26771 -13.51367,-0.0547 -1.17026,-0.62128 -2.00767,-0.13565 -3.17578,1.8418 -4.25268,7.19923 -16.34865,7.18807 -12.74024,-0.0117 0.92654,-1.8487 0.63685,-1.7101 -1.3457,0.64258 l -2.5293,3 -3.31054,-3.27539 -3.31055,-3.27539 2.25,-3.92383 c 3.67749,-6.41098 0.98946,-12.34461 -7.51367,-16.58789 -0.81712,-0.40777 2.99861,-7.43402 4.02734,-7.41602 z m -81.82226,0.35547 c 0.82166,0.76139 0.87057,9.03657 0.55859,25.20703 -0.275,14.25368 -0.5,36.04103 -0.5,48.41602 0,12.37499 0.225,35.10002 0.5,50.5 0.275,15.39998 0.13121,29.0125 -0.31836,30.25 -1.26869,3.4923 -2.12167,2.72498 -3.89453,-3.5 -0.90067,-3.1625 -3.49628,-10.92501 -5.76758,-17.25 -9.70687,-27.03123 -11.15735,-32.20635 -10.50586,-37.47461 0.6741,-5.45112 3.04912,-18.19565 7.55274,-40.52539 1.60845,-7.97499 4.83965,-24.06151 7.17968,-35.74805 2.77996,-13.88354 4.37366,-20.63638 5.19532,-19.875 z m -96.81055,21.55274 c 5.12814,-0.42867 10.45025,1.42915 14.08984,5.73047 6.79125,8.026 0.52053,13.38599 -7.625,6.51757 -3.90789,-3.29518 -5.04328,-3.7937 -6.65429,-2.92187 -1.06827,0.57811 -3.06641,2.30532 -4.44141,3.83789 l -2.5,2.78711 -3.78516,-2.47656 -3.78515,-2.47852 1.77734,-3.00781 c 2.86189,-4.8448 7.79569,-7.55961 12.92383,-7.98828 z m 43.2793,69.4082 c -1.48306,0.16854 0.25597,1.47139 4.61328,3.06641 2.18671,0.80046 5.32656,1.4772 6.97656,1.5039 3.98431,0.0644 -2.77009,-3.18203 -9.00977,-4.33008 -1.23295,-0.22685 -2.08572,-0.29641 -2.58007,-0.24023 z m 58.05859,92.73242 c 1.00476,-0.0128 1.99909,0.25738 2.875,0.8125 1.43854,0.91171 3.84093,23.89129 2.78516,26.64258 -0.70619,1.84029 -8.17236,2.02097 -9.28321,0.22461 -1.5184,-2.45541 -0.91844,-25.776 0.68946,-26.79297 0.91377,-0.57796 1.92883,-0.8739 2.93359,-0.88672 z m 0.28125,46.36914 c 6.79896,0.759 8.33725,1.58835 7.41406,3.99414 -0.61876,1.61245 -11.53018,2.36827 -12.99804,0.90039 -3.2366,-3.23659 -0.56234,-5.58067 5.58398,-4.89453 z m -3.09375,23.64258 c 1.22905,0.0145 2.90733,0.22255 5.20117,0.4375 l 7.50781,0.70313 0.53711,6.13867 c 1.44499,16.52508 1.43928,16.63589 -0.76757,18.18164 -1.97232,1.38146 -9.86567,1.81788 -13.88477,0.76758 -1.89435,-0.49504 -1.91306,-0.64584 -1.91406,-16.14453 -6.8e-4,-8.43424 -0.36685,-10.12748 3.32031,-10.08399 z"
       inkscape:label="blason" /><use
       xlink:href="#contour"
       x="0"
       y="0"
       inkscape:label="contour"
       id="use3"
       style="display:inline;opacity:1;mix-blend-mode:normal;fill:none;fill-opacity:1;stroke:none;stroke-opacity:1" /></g></svg>
