<?xml version="1.0" encoding="UTF-8" standalone="no"?>
<!-- Created with Inkscape (http://www.inkscape.org/) -->

<svg
   width="500"
   height="900"
   viewBox="0 0 500 900"
   version="1.1"
   id="saga_de_billy"
   xml:space="preserve"
   xmlns:xlink="http://www.w3.org/1999/xlink"
   xmlns="http://www.w3.org/2000/svg"
   xmlns:svg="http://www.w3.org/2000/svg"><defs
     id="defs1"><path
       id="contour"
       style="display:inline;opacity:1;mix-blend-mode:normal;fill:#000000;fill-opacity:1;stroke-linejoin:round"
       d="M 250,0 0,360 250,900 500,360 Z M 250,40 355,190 250,60 145,190 Z M 475,360 250,820 25,360 250,80 Z M 400,540 250,875 100,540 250,855 Z" /></defs><g
     id="LDV"
     x="200%"
     width="100%"
     height="100%"
     style="display:inline"><path
       id="path25"
       style="fill:#000000"
       d="m 397.4668,260.44922 c 0,0 -46.08756,-82.6539 -151.44711,-83.18465 -93.56462,-0.47134 -148.252046,94.65395 -148.252046,94.65395 m 0,0 -5.726624,8.58148 -3.503907,7.24219 -3.503906,7.24219 -1.632812,3.75781 -1.634766,3.75781 -1.933594,5 -1.935547,5 -1.40039,4 -1.402344,4 -2.105469,9 -2.105469,9 -1.046874,15 -1.046876,15 0.648438,20.92383 0.648438,20.92383 2.013671,10.57617 2.013672,10.57617 1.576172,5.5 1.578125,5.5 5.003906,13 5.003907,13 3.267578,6.5 3.267578,6.5 5.34375,8.16211 5.345699,8.16211 11.5,12.85937 11.5,12.85743 7.3125,6.48046 7.3125,6.47852 9.01953,6.17773 9.01758,6.17579 6.16992,3.20312 6.16797,3.20313 5.5,2.75585 5.5,2.75586 6.5,2.51368 6.5,2.51562 6.5,2.0293 6.5,2.02734 7.19727,1.57227 L 223.89453,573 H 224.94727 226 v -1.95312 -1.95118 l -1.07812,-2.36718 -1.07813,-2.36719 -7.67187,-1.84766 -7.67188,-1.84961 -11.76953,-3.85742 -11.76758,-3.85547 -3.73242,-1.71679 -3.73047,-1.7168 -10.33008,-6.31446 -10.32812,-6.3125 -10.17188,-8.21093 -10.16992,-8.20899 -7.5,-8.02539 -7.5,-8.02734 -2,-2.49219 -2,-2.49414 -4.72461,-5.59375 -4.72461,-5.5957 -4.88476,-7.87696 -4.88477,-7.875 -2.542969,-5.01953 -2.544922,-5.01953 -5.513671,-16.47461 -5.515626,-16.47656 -1.693359,-10 -1.695312,-10 -0.798829,-16.76758 -0.798828,-16.76758 0.820313,-15.73242 0.822265,-15.73242 1.560547,-9.71484 1.560547,-9.7168 0.951172,-1.7832 0.951172,-1.78516 3.263672,-8.5 3.261719,-8.5 5.246093,-11.22656 5.244146,-11.22656 6.77539,-10.27344 6.77539,-10.27344 4.5332,-6 4.5332,-6 2.01172,-2.40234 2.01172,-2.4043 8.26367,-8.30859 8.26563,-8.3086 10.13086,-8.46875 10.13086,-8.4668 11.10351,-5.58789 11.10547,-5.58593 1.26367,0.0176 1.26367,0.0156 1.73633,-0.99219 1.73633,-0.99219 4.5,-1.5625 4.5,-1.5625 8.5,-2.38085 8.5,-2.37891 11.4043,-1.64648 11.40429,-1.64844 9.59571,0.0449 9.5957,0.0449 11.5,1.50391 11.5,1.5039 8,2.15039 8,2.15235 4,1.55859 4,1.56055 4.5,1.96094 4.5,1.96093 7.5,3.74219 7.5,3.74219 6,3.32031 6,3.32031 7,5.33789 7,5.33789 9.14453,8.9336 9.14453,8.93555 3.48438,4.77734 3.48242,4.77539 4.20117,6.89844 4.20117,6.89648 6.76563,13.10352 6.76562,13.10156 3.6543,9.5 3.6543,9.5 1.5,5.5 1.5,5.5 2.57422,12 2.57617,12 -0.004,17.75977 -0.002,17.75781 -0.66016,5.74219 -0.66015,5.74023 -1.96094,11.45508 -1.96094,11.45312 -1.90234,7.04688 -1.9043,7.04492 -1.92578,5.5 -1.92578,5.5 -2.49024,7 -2.49023,7 -6.61328,13.5 -6.61524,13.5 -5.60156,8 -5.60352,8 -3.49218,4.26367 -3.49219,4.26367 -4.67187,4.85157 -4.67188,4.85156 -3,3.38476 -3,3.38477 -7.31055,6.25391 -7.30859,6.25195 -9.19141,5.39453 -9.18945,5.39649 -9.5,4.45117 -9.5,4.45117 -7.5,2.08594 -7.5,2.08789 -7,1.5664 -7,1.56641 -1.65234,-0.002 -1.65235,-0.004 -1.09765,3.14844 L 269,570.29883 V 571.14844 572 h 4.04297 4.04101 l 7.5293,-1.55469 7.52734,-1.55469 11.17969,-3.97265 11.17969,-3.97461 10,-5.08789 10,-5.08985 7.39648,-4.96874 7.39649,-4.9668 6.03125,-5.02149 6.0332,-5.01953 8.57031,-9.26953 8.57227,-9.26953 3.05859,-3.875 3.0586,-3.875 5.87304,-8.5 5.87305,-8.5 7.20899,-14.5 7.21093,-14.5 2.08008,-6.5 2.08008,-6.5 2.57422,-7.5 2.57226,-7.5 0.88086,-4 0.87891,-4 2.13672,-9.5 2.13476,-9.5 1.37305,-19.25195 1.375,-19.25 -1.42187,-15.25 -1.42188,-15.24805 -1.91601,-8.5 -1.91407,-8.5 -1.62109,-5.88672 -1.61914,-5.88672 -2.61914,-6.61328 -2.61914,-6.61328 -2.92383,-5.85156 -2.92383,-5.85156 -3.07617,-11.92383 -7.32617,-8.42383 M 277.5,202.5 l -25,0.0273 -25,0.0273 -11.32031,3.24609 -11.31836,3.24805 -7.97461,4.00781 -7.97461,4.00977 -0.58008,1.50976 -0.58008,1.50977 0.65235,0.65234 0.65234,0.65039 6.2207,-2.13281 6.22266,-2.13477 6,-2.09765 6,-2.09766 7.83594,-2.00586 7.83594,-2.00586 13.38281,-1.88672 13.38086,-1.88476 5.78125,0.82617 5.7832,0.82813 6.5,1.66601 6.5,1.66602 7.5,2.35156 7.5,2.35156 4.5,1.95899 4.5,1.95703 7,3.39843 7,3.39649 5,2.91797 5,2.91797 6,4.05273 6,4.05274 2.36523,1.25781 2.36329,1.25781 h 1.3164 1.31641 l 3.81836,4.61719 3.82031,4.61719 4.58594,5.13281 4.58594,5.13281 3.23828,4.78711 3.23828,4.78906 1.92578,1.20117 1.92578,1.20313 v 1.71289 1.71289 l 1.16016,2.54687 L 377.32031,282 H 379.66016 382 v -2.46484 -2.46485 l -3,-3.41797 -3,-3.41601 v -1.20508 -1.20508 l -4.97266,-7.16211 -4.9707,-7.16406 -6.2793,-5.58398 -6.27734,-5.58399 -2.48047,-1.32422 -2.48242,-1.32617 -1.87891,-2.38867 -1.88086,-2.39063 -8.84961,-5.95117 L 327.07617,223 h -0.55859 -0.55664 l -3.98047,-2.51172 -3.98047,-2.51367 -13.25,-5.35547 -13.25,-5.35742 -7,-2.38086 z m -38.13477,14 -7.43359,3.625 -7.43164,3.62695 -7.5,1.73047 -7.5,1.73242 -7.33984,3.39258 L 194.82227,234 h -0.43946 -0.4375 l -10.52148,6.13672 -10.51953,6.13672 -7.47266,7.52148 -7.47266,7.52149 -0.5996,2.38867 -0.59961,2.38867 0.57226,0.57227 0.57422,0.57421 4.79687,-3.52929 4.79688,-3.5293 2.5,-2.71289 2.5,-2.71484 5,-3.69141 5,-3.69336 1.3125,-0.7832 1.31445,-0.78321 -6.5957,8.84961 -6.59375,8.84766 -4.09961,8.42383 -4.09961,8.42187 -2.36328,7.57813 -2.36133,7.57617 -0.625,16 -0.625,16 1.11328,7.79102 1.11524,7.79101 1.52929,2.95899 1.5293,2.95898 h 0.9082 0.90625 l 0.63672,-2.00586 0.63672,-2.00781 -1.31836,-5.74219 L 163.5,333.5 l 0.16406,-17.30469 0.16211,-17.30273 1.21485,-5.19727 1.21484,-5.19531 2.41406,-6 2.41406,-6 2.12891,-4 2.12695,-4 3.80274,-5.6543 3.80273,-5.65429 8.11914,-8.57813 8.1211,-8.57812 4.65625,-3.33985 4.6582,-3.33984 4.11523,-1.17774 L 216.73242,231 h 0.91016 0.91015 l -0.38085,4 -0.38282,4 h 1.03321 1.03125 l 3.82421,-4.92383 3.82227,-4.92383 5.19531,-2.58007 5.19336,-2.58008 2.50391,-0.95117 2.50586,-0.95313 5.80078,0.9375 5.80078,0.93555 7.30273,3.59961 7.30079,3.59961 3.06836,4.16992 3.0664,4.16992 1.35156,3.14453 1.34961,3.14649 0.94727,5.85351 0.94922,5.85547 -1.60156,6.5 -1.59961,6.5 -2.56836,4.03516 -2.56641,4.03515 -4,3.53321 -4,3.5332 -3.55273,2.14258 -3.55469,2.14062 -8.19336,0.6836 -8.19336,0.68359 -1.08789,1.31055 -1.08789,1.3125 4.55078,4.42187 4.54883,4.42188 4.78515,2.49804 4.78516,2.4961 5.5,1.56445 5.5,1.56445 5.66602,1.20117 5.66406,1.20118 1.58594,-0.60938 L 282,312.0625 v 0.89062 0.89258 l 3.25,1.02344 3.25,1.02539 6.39844,0.30274 6.39844,0.30273 0.41796,-1.20312 0.41993,-1.20118 -5.6875,-1.65429 -5.6875,-1.65235 -5.12891,-0.27539 -5.13086,-0.27539 -1.5,-0.59375 -1.5,-0.5918 -4.79883,-1.04101 -4.79883,-1.04297 -9.45117,-4.41602 L 249,298.13672 v -0.94141 -0.93945 l 4.25,-0.67383 4.25,-0.67187 6.76953,-4.08204 6.76953,-4.08203 7.23047,2.6211 7.23047,2.62109 5.05078,0.94141 5.05274,0.94336 10.94726,1.17383 10.94922,1.17382 7.12891,1.81836 7.13086,1.81836 7.96875,4.00586 7.96679,4.00586 5.90235,5.31641 5.90234,5.31445 3.29297,3.5 3.29492,3.5 5.66211,8.5 5.66211,8.5 2.91211,3.79297 2.91406,3.79492 1.06836,-0.35742 1.06836,-0.35547 0.95117,-2.85156 0.95117,-2.85352 -1.65625,-8.60156 -1.65429,-8.60352 -3.48828,-9.3789 -3.48633,-9.37891 -5.16016,-9.74609 -5.16015,-9.74414 -5.82032,-7.85938 -5.81836,-7.85742 -7.76758,-7.95898 -7.76562,-7.95899 -6.72656,-5.04101 -6.72461,-5.04102 -5.77539,-4.09961 -5.77344,-4.10156 -6.58594,-3.57617 -6.58398,-3.57618 -10.71289,-3.58398 -10.71094,-3.58398 -6.39063,-0.9043 -6.39062,-0.90625 -6.21484,-2.78906 -6.2168,-2.78907 -7.66406,-0.0449 z m -54.06835,2.5 -4.89844,2.5918 -4.89844,2.58984 -8,5.43164 -8,5.42969 -3.9043,3.35742 -3.90234,3.35742 0.62109,1.6211 L 152.9375,245 h 0.875 0.87305 l 7.12109,-5 7.11914,-5 h 0.62305 0.625 l 4.16211,-2.86719 4.16406,-2.86719 4.75,-2.67578 4.75,-2.67382 v -1.33594 -1.33594 l -1.35156,-1.12109 z m 56.55859,8 -4.43945,2.60156 -4.43946,2.60156 -4.41015,5.04102 -4.40821,5.04102 -3.13476,7.46679 -3.13477,7.4668 0.6543,3.14063 0.6543,3.14062 3.3164,6 3.31641,6 5.23437,4.5 5.23438,4.5 5.60156,2.23047 5.59961,2.23242 3.44531,-0.56445 3.44336,-0.5625 4.55664,-2.32422 4.55469,-2.32617 2.5918,-2.8418 2.58984,-2.84375 3.05469,-4.64258 3.05273,-4.64453 1.10547,-5.15625 1.10547,-5.1543 v -3.82617 -3.82422 l -2.48047,-4.43945 -2.48047,-4.4375 -5.40234,-5.15625 -5.40234,-5.15625 -5.1543,-2.03125 L 250.92578,227 h -4.53516 z m 36.97851,5 h 1.61329 1.61523 l 6.21875,2.05273 6.21875,2.05079 3.5,1.60351 3.5,1.60156 7.5,4.50391 7.5,4.50391 9.49219,7.09179 9.49023,7.0918 7.00977,7.00977 7.00781,7.00976 3.5,4.77539 3.5,4.77344 2.73047,3.58008 2.73242,3.58008 5.9082,12.13476 5.91016,12.13672 2.0957,5.75 2.09571,5.75 -0.73633,-0.002 -0.73633,-0.002 -3.42188,-5.02148 -3.42382,-5.02149 -9.33399,-8.9707 -9.33398,-8.9707 -10.24219,-4.9336 -10.24414,-4.93164 -7,-1.64257 -7,-1.64258 -12.86328,-0.93555 -12.86524,-0.9375 -6.93164,-2.10547 -6.93164,-2.10547 0.34766,-0.63867 0.34766,-0.63867 3.17968,-6.6875 3.17969,-6.68945 1.09375,-4.81055 1.09375,-4.8125 -0.65234,-6.5 -0.65235,-6.5 -2.625,-5.5 -2.625,-5.5 -0.38086,-0.75 z m -30.33398,0.2168 3.47852,1.14258 3.47851,1.14062 0.73438,2.5 0.73437,2.5 0.55664,2.75 0.55664,2.75 h 4.76367 4.76563 l 1.68164,2.8457 1.67969,2.84375 -5.28125,1.47071 -5.28321,1.4707 -4.43164,-3.41992 -4.43359,-3.41797 -1.81055,-1.2832 -1.81054,-1.28321 -0.56446,-5.47656 -0.5664,-5.47656 0.87695,-0.52735 z m -6.42188,1.85937 0.96094,2.52735 0.96094,2.52734 v 1.82031 1.81836 l -4.5,5.4668 -4.5,5.46679 V 254.85156 256 h -5 -5 v -0.35156 -0.34961 l 1.07812,-3.0918 1.07813,-3.0918 4.17187,-1.40039 4.17188,-1.40039 0.12891,-3.9082 0.12695,-3.90625 0.12305,-1.15234 0.12109,-1.15235 3.03906,-1.05859 z m -25.42968,6.79492 -2.40821,0.60547 -2.40625,0.60352 -3.83789,2.42187 -3.83789,2.42383 -6.23632,7.2461 -6.23633,7.24414 -2.75586,6.07812 -2.75586,6.07813 -1.5918,5.96289 -1.59375,5.96484 -1.52344,14.86719 -1.52539,14.86719 0.50391,1.63281 0.50586,1.63281 1.03125,9.2168 1.03125,9.21484 0.92187,2.28516 0.91993,2.2832 4.15429,14.28125 4.1543,14.2832 2.31641,13.2168 2.3164,13.21875 -1.3418,12.22656 -1.34374,12.22461 -1.0254,5.54883 -1.02539,5.54688 -2.99804,6.72656 -3,6.72656 -0.11914,-1 -0.11719,-1 0.1582,-15.5 0.1582,-15.5 -1.52929,-7.3125 -1.5293,-7.3125 -3.68555,-11.6875 -3.68554,-11.6875 -1.34766,-1.45703 -1.34961,-1.45703 -1.12109,1.12109 -1.1211,1.12109 1.00391,5.33594 1.00195,5.33594 2.63477,8.5 2.63477,8.5 1.40429,10.5 1.4043,10.5 -0.34766,12.5 -0.34961,12.5 -2.04492,6.5 -2.04297,6.5 -2.78515,3.24219 -2.78516,3.24023 -6.5,3.4043 -6.5,3.40234 -0.32812,3.30078 -0.32813,3.29883 3.32813,2.90821 3.32812,2.9082 2.51953,1.30469 2.52149,1.30468 5.9121,1.0918 5.91407,1.09375 5.5664,-0.01 5.56641,-0.01 9.69531,-3.38867 9.69727,-3.38672 4.30273,-2.88477 4.30469,-2.88476 0.92383,-3.70899 0.92578,-3.71094 -0.56055,-0.56054 -0.56054,-0.5586 -6.21875,4.01758 -6.21875,4.01953 -5.64454,2.12891 -5.64648,2.13086 -6,0.86328 -6,0.86328 -6.11133,-0.86523 -6.11133,-0.86524 -3.84179,-1.9707 -3.8418,-1.9707 3.95313,-2.10547 3.95312,-2.10352 2.62305,-2.26953 2.62304,-2.26953 2.77344,-4.5 2.77344,-4.5 2.86523,-3.29883 2.86524,-3.29687 3.34765,-6.70313 3.34961,-6.70117 1.57422,-5 1.57617,-5 1.19532,-6 1.19726,-6 0.61719,-7.41016 0.61914,-7.4082 5.19336,6.99219 5.19531,6.99414 4.41016,3.61328 4.41211,3.61523 3.57812,2.11133 3.57617,2.11133 1.14454,-2.13867 1.14453,-2.13672 -0.51953,-1.35547 -0.51954,-1.35351 -5.42187,-3.46875 -5.42188,-3.4668 -4.70703,-5.7793 -4.70507,-5.77734 -1.78516,-3.57031 -1.78516,-3.57227 -0.72265,-3.5 -0.72071,-3.5 -0.84765,-6.41992 -0.84571,-6.42188 1.32422,-8.1875 1.32617,-8.1875 1.72461,-3.39258 1.72461,-3.39062 4.28907,-6.06055 4.28906,-6.05859 4.55664,-3.73438 4.55664,-3.73437 4.68555,-2.07227 4.68554,-2.07226 6.42188,-0.79688 6.42187,-0.79687 5.88282,0.83203 5.88281,0.83203 6.58398,3.24023 6.58399,3.24219 5.11718,5.58985 5.11914,5.58984 2.7754,6 2.77539,6 1.47265,7.5 1.47071,7.5 -0.79688,5.5 -0.79883,5.5 -1.16015,4.5 -1.16016,4.5 -1.11719,3 -1.11718,3 -4.38282,6.70312 -4.38086,6.70508 -7.05273,4.6875 -7.05078,4.6875 0.68359,5.60938 0.68164,5.60742 0.77735,0.8125 0.77734,0.81055 8.50977,-7.41993 8.50976,-7.41992 6.37695,-4.54882 6.37891,-4.55079 7.5,-4.00586 7.5,-4.00585 6.5,-1.95508 6.5,-1.95508 5,-0.6582 5,-0.65821 -1.75,1.38867 -1.75,1.38672 V 402.85938 404 h 2.37695 2.37891 l 3.62305,-1.51367 3.62304,-1.51367 5.8086,2.93164 5.80859,2.93164 1.29102,1.55664 1.29101,1.55469 -3.24219,-1.61719 -3.24218,-1.61719 -5.60742,-0.0898 -5.60938,-0.0898 -6,1.82032 -6,1.81836 -5.09766,5.23632 -5.09765,5.23633 -2.05469,6.08399 -2.05664,6.08398 1.93555,9.84375 1.93359,9.84375 2.77734,3.43555 2.77539,3.43554 2.44336,1.8125 2.44141,1.81055 5.79883,1.50391 5.79883,1.50195 h 2.40234 2.40234 l 5.79883,-1.49023 5.79883,-1.49024 5.57617,-5.75976 5.57617,-5.75977 1.25586,-6 1.25586,-6 -1.71289,-8.5 -1.71289,-8.5 -0.93555,-2.5 -0.93554,-2.5 -2.10352,-2.24609 -2.10547,-2.2461 0.51758,-0.51758 0.51758,-0.51562 3.79102,3.01172 3.79101,3.01367 h 0.70117 0.70313 l 1.41015,4.25 1.41016,4.25 -0.0586,10.02539 -0.0606,10.02539 -2.43945,4.08203 -2.44141,4.08399 -3.5293,3.89062 -3.52929,3.89258 -2.47071,1.5957 -2.4707,1.59571 -6.86523,2.27343 -6.86719,2.27539 -4.2793,-0.58593 -4.28125,-0.58789 -5.35351,-2.41016 -5.35352,-2.41211 -3.70117,-3.87109 -3.69922,-3.87305 -2.1582,-4.88867 -2.15625,-4.88672 0.10351,-6.81641 0.10352,-6.81445 1.62109,-4.79687 1.61914,-4.79688 2.50196,-4.5 2.50195,-4.5 3.88281,-4.63867 L 328,405.22266 v -1.00586 -1.00391 l -3.75,0.8457 -3.75,0.84571 -4.5,1.57422 -4.5,1.57421 -6,4.11329 -6,4.11132 -7.76172,8.61133 -7.75976,8.61133 -6.99024,9.29883 L 270,452.09766 v 2.39257 2.39258 l 0.85547,0.52735 0.85351,0.52734 1.9668,-2.21875 1.9668,-2.21875 3.80859,-5.43359 3.81055,-5.4336 5.44726,-6.5664 5.44727,-6.56641 5.67187,-5.82812 5.67188,-5.82813 4.32031,-3.01758 4.32031,-3.01953 0.57227,0.57227 0.57227,0.57226 -1.17383,1.41406 -1.17383,1.41407 -2.58398,6.36132 -2.58204,6.35938 -0.75976,9.80078 -0.75781,9.80078 -1.98829,2.19922 -1.98828,2.19922 -5.38867,7.88281 -5.38867,7.88281 -2.12891,3.11719 -2.12695,3.11719 -5.62305,5.77344 L 276,486.04688 v 2.85351 2.85547 l 1.38086,1.14453 1.37891,1.14453 7.27148,-7.77148 7.26953,-7.77344 7.51367,-11.46289 7.51563,-11.46289 1.08398,1.82812 1.08594,1.82618 4.34961,5.35742 4.34766,5.35742 6.02539,3.00976 6.02539,3.01172 4.875,0.64649 4.87695,0.64648 v 0.78125 0.78125 l -8.42773,7.83985 -8.42969,7.83984 -10.64844,6.41211 -10.64844,6.41406 -8.67187,3.36914 -8.67383,3.36719 -2.25,0.94727 -2.25,0.94726 v 2.35547 2.35352 l 0.66602,0.66796 0.66796,0.66602 h 0.30274 0.30078 l 7.35938,-2.40234 7.35742,-2.40235 8.2832,-4.16406 8.28516,-4.16406 8.13867,-5.38477 8.13867,-5.38476 9.06055,-8.79883 9.0625,-8.79883 2.4375,-3.31445 2.43945,-3.31446 5.61914,-2.88476 5.62109,-2.88281 4.26954,-4.80274 4.26953,-4.80078 2.83203,-6 2.83398,-6 0.94531,-6.5 0.94532,-6.5 2.63867,-6.92188 2.63672,-6.92187 2.0664,-10.07813 2.06641,-10.07812 0.0566,-17.5 0.0566,-17.5 -1.75,-5.75 -1.75,-5.75 H 385.92969 385 v 13.93555 13.93359 l 1.16211,2.81641 1.16016,2.81445 -0.28711,1 -0.28907,1 -2.22851,11 -2.22656,11 -1.67383,5.75 -1.67383,5.75 H 377.97266 377 v -0.78906 -0.79102 l 1.66211,-5.95898 1.66211,-5.96094 0.043,-13.5 0.0449,-13.5 -2.09961,-7.72852 -2.09766,-7.72851 -2.64843,-4.52149 L 370.91602,357 H 370.08203 369.25 l -0.625,-3.12695 -0.62695,-3.12891 -6.24805,-7.18359 -6.25,-7.18555 -9.5,-7.03125 -9.5,-7.03125 -4.19531,-1.62695 -4.19336,-1.625 -9.96289,-2.03125 L 308.18555,315 H 307.09375 306 v 1.26367 1.26367 l 3.75,1.60157 3.75,1.60156 9,3.26953 9,3.26758 8.0957,5.41406 8.09571,5.41211 6.04687,5.73633 6.04883,5.73633 3.41797,4.47851 3.41797,4.48047 3.12695,6.98633 3.12695,6.98828 1.54688,12 1.54883,12 -0.83008,3 -0.83203,3 -0.4668,-9 -0.46875,-9 -2.90039,-6.5 -2.90039,-6.5 -3.53711,-4.81641 -3.53711,-4.81445 -7,-4.64062 -7,-4.63868 -8.5,-4.15234 -8.5,-4.15234 -11.5,-3.76758 -11.5,-3.76758 -12,-4.46094 -12,-4.45898 -12.96289,-5.15625 -12.96484,-5.15625 -8.70118,-6.72461 -8.70312,-6.72656 -4.43555,-5.78321 -4.4375,-5.7832 -2.05273,-4.66406 -2.05469,-4.66406 -2.17188,-1.16407 -2.17382,-1.16211 -2.91992,-6.17382 L 216.00195,268.5 216,261.46875 v -7.0332 l 1.41797,-5.46485 1.41797,-5.46484 -1.09375,-1.31641 z M 146.70898,245 l -7.10351,7.42188 -7.10547,7.41992 -3.5,4.19336 -3.5,4.19336 -3.27344,4.63476 -3.27148,4.63672 -3.42383,5.18359 -3.42187,5.1836 -4.67774,9.3164 -4.67773,9.31641 -0.99219,1.92188 -0.99219,1.91992 -2.470702,6.58008 -2.470703,6.57812 -1.765625,5.56055 -1.765625,5.5625 -1.125,6.6914 -1.126953,6.69336 -1.146484,6.80469 -1.146485,6.80273 0.558594,9.94141 0.558594,9.94336 1.070312,12.5 1.072266,12.5 1.591797,8 1.591796,8 2.900391,10.10547 2.900391,10.10547 3.640626,7.89453 3.63867,7.89453 3.36328,5.26953 3.36133,5.26953 v 0.92383 0.92188 l 2.18555,3.80859 2.1875,3.80664 3.7832,5 3.78125,5 2.78125,3.46094 2.78125,3.46094 5.02148,5.03906 5.02344,5.03906 4.58008,3.75 4.58008,3.75 1.39844,0.0391 1.39648,0.0371 2,3.17578 2,3.17383 3.39844,2.28711 3.39648,2.28711 h 3.38867 3.38672 l -0.95312,-1.75 -0.95313,-1.75 -3.33203,-3.08203 -3.33203,-3.08203 -2.86719,-2.1543 -2.86719,-2.1543 -0.81835,0.50586 -0.81641,0.50391 -2.81641,-3.71289 -2.81445,-3.71289 -7.52344,-7.55469 -7.52344,-7.55664 -3.00781,-3.5 -3.00781,-3.5 -5.2832,-8.15039 -5.28321,-8.15039 -1.78711,-0.4668 -1.78515,-0.4668 -0.62891,-3.92382 -0.62695,-3.92188 -4.17188,-9.96094 -4.17382,-9.95898 -0.78516,-3 -0.7832,-3 -2.48829,-9 -2.488276,-9 -1.203125,-8 -1.203125,-8 -0.628906,-9.5 -0.628907,-9.5 0.625,-13.5 0.625,-13.5 2.144531,-9.5 2.144528,-9.5 1.65039,-5.5 1.65039,-5.5 6.82032,-14 6.81836,-14 3.29492,-5.64844 3.29297,-5.64844 8.72265,-11.43945 L 141,258.32227 v -1.64258 -1.64258 l 2.75,-0.67578 2.75,-0.67774 2.29102,-1.48437 2.29101,-1.48242 1.0625,-1.98633 1.0625,-1.98438 -1.35351,-0.85742 -1.35352,-0.85742 -1.89453,-0.0156 z m 98.95118,3.03906 4.16992,3.06836 4.16992,3.06641 v 1.51953 1.51953 l -3.08398,3.89258 L 247.83203,265 h -0.79883 -0.80078 l -3.69922,-4.0957 -3.70117,-4.09571 1.92774,-2.15429 1.92773,-2.1543 1.48633,-2.23047 z m -36.70508,3.79492 -0.13086,8.83204 -0.13281,8.83398 2.75976,5.81836 2.75781,5.81836 3.79493,3.98828 3.79492,3.98828 0.6289,3.35547 0.62891,3.35352 6.71094,8.46875 6.71289,8.4707 5.75976,3.72851 L 248,320.2207 V 321.10938 322 h -3.39453 -3.39453 l -6.52735,2.01562 -6.52929,2.01758 -6.03516,4.53711 -6.03516,4.53711 -3.20117,4.04102 -3.19922,4.03906 -2.33007,3.43359 -2.33008,3.4336 -1.67969,3.22265 -1.67969,3.22266 -1.16797,3.91992 -1.16992,3.91797 -0.53711,-0.91797 L 198.25,362.5 l -2.64844,-9.5 -2.64648,-9.5 -1.41016,-5 -1.4082,-5 -1.16602,-7.94727 -1.16797,-7.94726 0.0234,-9.60742 0.0234,-9.60743 1.56641,-8.26367 1.56836,-8.26562 1.51562,-5.17969 1.51562,-5.18164 2.74219,-4.64453 2.74219,-4.64258 4.72852,-5.18945 z m 62.54492,4.51172 0.23242,0.14258 0.23242,0.14453 -0.96289,3.36328 -0.96484,3.36329 -1.26953,0.80468 -1.26758,0.80469 -3.05859,0.0156 -3.0586,0.0156 -1.79101,1.30859 -1.78907,1.3086 0.34961,6.12695 0.34766,6.12891 -3.14844,1.49804 -3.14648,1.49805 -1.10352,-4.37695 -1.10156,-4.37696 0.0723,-1.80859 0.0723,-1.80664 4.74024,-6.5 4.74023,-6.5 5.9375,-0.57812 z m -36.13672,3.53711 5.87305,5.875 5.875,5.87305 -0.30664,5.48047 -0.30469,5.48047 -3.68945,-1.53711 -3.68946,-1.53711 -0.64648,-4.70899 -0.64844,-4.70703 -1.16797,-0.96875 -1.16601,-0.96875 -3.4961,-0.33203 L 228.5,267.5 l -1.75195,-3.5 -1.75196,-3.5 5.1836,-0.30859 z m -79.33398,7.03125 -2,1.07032 -2,1.07031 -4.76563,5.08593 -4.76367,5.08594 -3.62109,5.13672 -3.6211,5.13672 -3.76367,7 -3.76172,7 -1.95898,3.26758 -1.95899,3.26953 -1.99218,5.23047 -1.99219,5.23242 -3,8.93359 -2.99805,8.9336 -1.93555,8.86133 -1.93359,8.86328 -1.49805,14.9375 -1.49804,14.93554 1.48242,11.26758 1.48047,11.26758 2.01953,8 2.01953,8 0.0156,12.71289 0.0156,12.71289 2.07422,5.54492 2.07617,5.54492 6.07227,6.24219 6.07226,6.24219 8.41211,9.46289 8.41406,9.46484 5.18946,4.41407 5.18945,4.41406 0.5,0.62305 0.5,0.62109 3.04883,2.13086 3.04883,2.13086 5.42187,2.74805 5.42188,2.74804 3.52929,1.30078 3.5293,1.30079 1.87305,0.0703 1.87109,0.0703 -1.30859,-1.57812 -1.31055,-1.57813 -4.95117,-2.50977 -4.95313,-2.50976 -5.61132,-3.83984 -5.60938,-3.8418 -3.44531,-3.57031 L 155.60742,492 h 0.64258 0.64258 l 5.80469,3.36523 5.80273,3.36719 5,1.58203 5,1.58203 5.93359,1.05274 5.9336,1.05078 9.0664,-0.0762 9.06641,-0.0781 4,-1.20508 4,-1.20507 v -1.95899 -1.96094 l -14.5,0.30079 -14.5,0.29882 -5.5,-1.06835 -5.5,-1.06641 -8,-3.875 -8,-3.87695 -5.19336,-4.36329 -5.19141,-4.36523 -0.0586,-1.1875 -0.0566,-1.18555 3.17383,-0.31445 3.17187,-0.3125 0.39844,-1.21289 0.39844,-1.21289 -2.32227,-0.49024 -2.32031,-0.49023 -8.40625,-1.72461 -8.40625,-1.72656 -4.09375,-3.10352 -4.09375,-3.10547 -3.08398,-4.58203 -3.08594,-4.58398 -1.30274,-6.14063 -1.30273,-6.14257 0.55273,-6.09766 0.55274,-6.09766 3.13086,-6.35937 3.1289,-6.35938 3.70508,-3.06054 3.70508,-3.0625 4.33984,-2.10547 4.33985,-2.10742 7.66015,-0.0195 7.66016,-0.0195 3.94727,1.6836 3.94726,1.68359 1.41406,-0.54297 1.41602,-0.54297 -0.51758,-2.73828 -0.51562,-2.73828 -5.71094,-14 -5.70899,-14 -3.88867,-11 -3.88867,-11 -1.06641,-8.71094 -1.0664,-8.71094 1.1289,-13.78906 1.12696,-13.78906 0.85156,-3.5 0.85352,-3.5 0.64257,-6 0.64258,-6 3.00977,-9.86133 3.01172,-9.86328 -0.55079,-1.43164 z M 260.76758,268 H 263.88281 267 l -0.006,0.75 -0.004,0.75 -2.46484,4 -2.46289,4 -0.0449,-2.5 -0.0449,-2.5 -0.60352,-2.25 z m 122.14844,15.68555 -0.96094,0.96093 -0.96094,0.96094 4.60938,11.44531 4.61132,11.44727 3.94727,12 3.94531,12 1.46875,2.25 1.47071,2.25 h 0.95703 0.95703 l 0.59961,-2.38477 0.59765,-2.38476 -3.15039,-9.86524 -3.15234,-9.86523 -1.60742,-4 -1.60547,-4 -4.22852,-9.05078 -4.22656,-9.04883 -1.63672,-1.35742 z M 145.3125,287.5 l -0.75977,2 -0.76171,2 -1.88282,12 -1.88476,12 -0.0117,15.1875 -0.0117,15.18945 1.49219,6.31055 1.49414,6.3125 1.40234,4.56055 1.40235,4.56054 6.10351,15.36133 L 158,398.3418 V 399.17188 400 l -8.25,-0.006 -8.25,-0.004 -4.96484,1.75391 -4.96289,1.75586 -6.16407,5.75 -6.16211,5.75 h -0.44726 -0.44531 l -1.29297,-6.25 -1.29297,-6.25 -0.8086,-8.5 -0.80664,-8.5 0.93164,-12 0.93164,-12 1.34961,-8 1.34961,-8 2.59766,-8.61328 2.59961,-8.61328 3.11523,-7.8418 3.11524,-7.84375 5.55664,-10.04297 5.55859,-10.04492 2.02735,-2.5 z m 86.72656,0.12695 -0.64258,0.64453 -0.64453,0.64258 0.59375,1.54297 0.5918,1.54297 h 3.11523 3.11329 l -0.41407,-1.25 -0.41601,-1.25 -2.64844,-0.93555 z M 285.17773,337 h 0.47266 0.47461 l 5.1875,1.6543 5.1875,1.65429 17.47852,6.39844 17.47851,6.39649 7.88086,4.19921 7.88086,4.19727 5.64063,4.52734 5.64062,4.52735 3.67383,7.45508 3.67383,7.45703 0.69922,9.31054 0.69726,9.3125 -0.55078,0.55078 -0.55274,0.55274 -4.7871,-3.29492 -4.78907,-3.29297 -7.03125,-2.93359 -7.0332,-2.93165 -9.5,-0.0371 -9.5,-0.0371 -5.75586,2.24023 -5.75586,2.24219 -10.49414,5.33203 L 291,407.8125 v -0.44531 -0.44727 l 1.88477,-3.70898 1.88476,-3.71094 2.11524,-7.56445 2.11523,-7.5625 v -9.13477 -9.13476 l -2.53516,-8.02735 -2.53515,-8.02539 -4.37696,-6.52539 z m 115.32227,1.5 -0.043,24 -0.0449,24 -1.25195,8 -1.25391,8 -1.35547,7 -1.35351,7 -2.13282,8 -2.13281,8 -4.19726,10.5 -4.19727,10.5 -0.51758,0.5 -0.51953,0.5 -4.47461,8.90234 -4.47266,8.90235 -1.02734,1.11133 -1.02539,1.11132 -5.89062,8.80664 -5.89258,8.80664 -3.81446,4.17969 -3.8164,4.17969 -0.61524,2.5 -0.61523,2.5 -6.08985,2.89844 -6.08984,2.90039 -3.58789,3.13867 -3.58789,3.14062 -10,5.86915 -10,5.86914 -2.25,1.36523 -2.25,1.36524 v 1.58789 1.58789 l 3.61914,-0.67969 3.62109,-0.67774 8.62891,-4.55273 8.63086,-4.55078 3.5,-2.5586 3.5,-2.55859 4.06445,-3.57226 4.06446,-3.57227 2.18554,-1.4707 L 350,509.55859 V 508.2793 507 h 1.32031 1.32031 l 4.1836,-3.58203 4.18555,-3.58203 4.30273,-5.66797 4.30273,-5.66797 2.85547,-5 2.85547,-5 0.66992,-0.5 0.66797,-0.5 3.66797,-6.30273 L 384,464.89258 v -0.49805 -0.49805 l 3.94336,-7.90429 3.94531,-7.9043 3.61719,-10.79297 3.61914,-10.79492 1.38281,-6 1.38477,-6 0.97461,-4.5 0.97461,-4.5 1.32812,-8 1.33008,-8 -0.12695,-21.5 -0.12696,-21.5 -0.91797,-4 -0.91796,-4 h -1.95508 z m -145.25,6.5 -5.375,0.006 -5.375,0.006 -3.70312,1.02734 -3.70313,1.0293 -4.89844,3.87109 -4.89843,3.8711 -3,5.3457 -3.00196,5.34375 -1.25586,5.28516 -1.25586,5.28515 0.70118,4.67578 0.70117,4.67579 2.05859,5.50195 2.06055,5.5039 4.47265,4.28711 L 233.25,405 h 1.30469 1.30664 l 0.31836,-2.25 0.32031,-2.25 -3.18164,-2.79492 -3.18164,-2.79297 -2.23438,-4.61328 -2.23242,-4.61328 -0.0859,-7.76953 -0.084,-7.76954 3,-5.98437 3,-5.98633 4.79883,-3.27734 4.79883,-3.27735 5.98632,-0.43359 5.98438,-0.43359 4.50781,1.72265 4.50586,1.72071 3.01563,3.15039 3.01562,3.15234 1.59961,3 1.59961,3 1.15234,4.5 1.1543,4.5 -0.79687,4.5 -0.79883,4.5 -3.08789,6.27734 -3.08789,6.27539 -2.42383,1.58789 L 261,400.23047 V 402.61523 405 l 1.25,-0.008 1.25,-0.006 2.76758,-1.82422 2.76758,-1.82617 2.83789,-4.47461 2.83789,-4.47656 1.57617,-4.94336 1.57617,-4.94141 0.5957,-4 0.59766,-4 -1.52148,-5.77734 -1.52344,-5.77539 -1.72656,-2.72461 -1.72657,-2.72266 -2.86914,-3.6543 -2.86914,-3.65429 -5.78515,-2.59571 z m -89.91602,5 -0.52539,0.52539 -0.52539,0.52539 0.89844,5.22461 0.89844,5.22461 1.11328,3 1.11523,3 1.44336,1.18164 1.44336,1.18164 1.40235,-0.53906 L 174,368.78516 v -0.35547 -0.35547 l -2.08789,-5.78711 -2.08789,-5.78711 -1.45899,-3.25 -1.45898,-3.25 h -0.78711 z m 84.50391,4.88672 -1.11914,0.37305 -1.11914,0.37304 -2.26563,11.4336 -2.26562,11.43359 -2.04883,10.5 -2.04883,10.5 -1.53125,7.5 -1.53125,7.5 -1.40039,7.5 -1.40039,7.5 -2.98437,14 -2.98243,14 -1.50585,7.5 -1.50391,7.5 -1.58203,10 -1.58203,10 -2.57227,13 -2.57031,13 -0.51953,6.65234 -0.51953,6.6543 2.66406,6.6582 2.66406,6.65821 7.5586,22.6875 7.55859,22.68945 0.13476,8 0.13477,8 -0.64844,15.30859 -0.64844,15.31055 -1.71679,1.89453 -1.71485,1.89649 0.53907,3.29492 0.53906,3.29492 1.07812,4.92773 1.07813,4.92774 -2.13477,4.41015 -2.13476,4.41016 1.25976,4.16211 1.25782,4.16211 -0.1875,14.42969 -0.18946,14.43164 -1.01172,1.89062 -1.01171,1.89063 1.11718,3.17773 1.11524,3.17969 -0.70117,32.38867 -0.69922,32.38867 5.43618,12.52986 26.3357,2.42199 L 268.14648,780.5 268,772 l -0.14648,-8.5 -0.74219,-18 -0.74024,-18 0.7793,-9.43945 0.78125,-9.4375 -1.21289,-1.46094 -1.21289,-1.46094 -0.13477,-20.96875 -0.13476,-20.96875 -1.04102,-0.64258 -1.04297,-0.64453 -0.68945,-6.09765 -0.68945,-6.09961 1.66211,-3.5 1.66015,-3.50196 -1.97656,-3.38867 -1.97461,-3.38867 -0.61328,-8 -0.61328,-8 0.0391,-12.61523 0.0391,-12.61719 2.08203,-7.88281 2.08008,-7.88477 1.29883,-5 1.29688,-5 2.67578,-8.5 2.67578,-8.5 3.99219,-12.60352 3.99414,-12.60351 -0.99024,-5.89649 -0.99023,-5.89648 -2.10547,-11 -2.10352,-11 -0.84961,-6 -0.84961,-6 -3.04101,-17 -3.03906,-17 -1.52344,-9.5 -1.52344,-9.5 -2.06836,-13.5 -2.06836,-13.5 -1.375,-6.5 -1.37304,-6.5 -1.70703,-9.5 -1.70508,-9.5 -1.47071,-7.30664 z m -1.0332,27.97461 0.98828,4.82031 0.99023,4.81836 1.72657,10 1.72656,10 2.28906,12 2.29102,12 1.18164,8.5 1.17968,8.5 1.35938,6.5 1.35937,6.5 1.65235,10.5 1.65234,10.5 2.37305,12 2.37109,12 0.64649,7 0.64648,7 -9.26562,31 -9.26368,31 -0.71875,0.8125 -0.71679,0.8125 -0.66602,-5.02148 -0.66601,-5.02149 -0.97071,-0.59961 L 250,577.88281 V 494.08008 410.2793 L 249.36328,405.63867 248.72852,401 h -0.74805 -0.74805 l -0.65625,2.75 -0.65625,2.75 -0.54297,86 -0.54101,86 -0.7461,7 -0.74609,7 -1.24219,-3 -1.24218,-3 -2.57032,-8 -2.56836,-8 -4.28711,-12.5 -4.28515,-12.5 -1.9668,-6 -1.96875,-6 -1.26758,-4.86133 -1.26758,-4.86133 1.22657,-6.63867 1.22656,-6.63867 2.90234,-15 2.90235,-15 3.14062,-16 3.14063,-16 1.33203,-7 1.33203,-7 1.44922,-7.5 1.45117,-7.5 3.64453,-17.95312 3.64453,-17.95118 0.36719,-0.36718 z M 373.28125,405.5 l 0.38281,1.06641 0.38086,1.06836 -0.81445,3.92187 -0.81641,3.92383 -0.66992,-1.08399 -0.66992,-1.08398 1.10351,-3.90625 z m -212.13672,4.5 -9.82226,0.0469 -9.82227,0.0469 -6,3.20313 -6,3.20312 -3.25,6.4043 -3.25,6.40625 v 7.87695 7.875 l 2.08203,6.21875 2.08203,6.21875 2.16797,2.36914 2.16797,2.37109 3.55469,2.26758 3.55469,2.26953 1.94531,0.55664 1.94531,0.55664 9.5,-0.30859 9.5,-0.30859 3.99414,-1.88672 3.99414,-1.88672 2.74024,-2.40234 2.74218,-2.40235 2.01368,-5.38476 L 179,447.92578 v -9.41016 -9.41015 L 176.58008,424.55273 174.1582,420 h 0.79883 0.79883 l 1.24414,1.5 1.24414,1.5 h 1.00391 1.00195 l -0.64062,-3.20117 -0.64063,-3.20313 -2.1582,-2.29687 L 174.65234,412 h -1.27734 -1.27539 l -0.93164,1.66406 -0.93164,1.66406 -4.54688,-2.66406 z m 185.22461,4 H 349.68359 353 l -0.0156,0.75 -0.0137,0.75 -1.31836,3.78125 -1.3164,3.7832 -0.91797,0.81836 -0.91797,0.82031 -6.06641,1.64844 L 336.36914,428 h -0.94922 -0.95117 l -4.48437,-2.39453 -4.48438,-2.39649 -0.29297,-1.44531 -0.29297,-1.44726 1.53125,-1.27149 1.53321,-1.27148 3.41015,0.64062 3.41016,0.63867 1.22265,1.47461 1.22266,1.47266 h 2.31445 2.31446 l 2.24804,-4 z M 148,416 h 3.03516 3.03515 L 153,418 l -1.07031,2 h -1.29883 -1.29688 L 148.66602,419.33398 148,418.66602 v -1.33204 z m -6.77734,1.12891 4.74218,4.43554 4.74219,4.43555 h 1.03125 1.0293 l 3.66992,-4.0625 3.67188,-4.0625 1.58789,0.3125 1.58789,0.3125 1.10742,1.80273 1.10742,1.80274 -3.73438,3.44726 -3.73632,3.44727 -1.26368,-0.13672 -1.26562,-0.13672 -6.43164,-0.72851 -6.42969,-0.72657 -1.82031,-2.38671 L 139,422.5 l -1,-1.20703 -1,-1.20899 v -0.92578 -0.92578 l 2.11133,-0.55078 z m 216.4707,0.47461 1.69336,2.58398 1.69336,2.58203 -2.0625,5.36524 -2.0625,5.36523 3.52148,3 3.52344,3 v 3.25 3.25 l -0.75,-0.0449 -0.75,-0.043 -3.62695,-2.16406 -3.62696,-2.16211 -1.19921,-7.04297 -1.19922,-7.04297 -0.42383,-1.53711 -0.42383,-1.53906 2.84766,-3.41016 z M 132.32031,424 h 0.64453 0.64258 l 3.17969,3.28125 3.18164,3.28125 0.89258,6.46875 0.89258,6.46875 -1.85157,2.61719 -1.85156,2.61914 -2.49023,1.63086 L 133.07031,452 h -0.375 -0.375 l -1.1582,-2.54297 -1.1582,-2.54297 2.24804,-3.20703 L 134.5,440.5 l 1.25,-0.79883 1.25,-0.80078 V 437.5 436.09961 l -1.28516,-0.80078 -1.28711,-0.79883 -2.16211,-2.81836 -2.16015,-2.81836 1.10742,-2.43164 z m 36.4668,2 h 0.5332 0.53321 l 0.37304,1.75 0.37305,1.75 -3.30078,4.39453 L 164,438.28711 v 0.92187 0.92188 l 1.14844,2.18555 1.14844,2.18359 2.26562,2.72461 2.26367,2.72266 -0.5332,2.04101 -0.53516,2.04297 -0.79883,0.49414 -0.79882,0.49414 -2.99805,-3.64062 -3,-3.63868 0.53125,-1.38281 0.53125,-1.38281 -0.96094,-1.23828 -0.96094,-1.23633 -0.19531,-5.13086 -0.19531,-5.13086 3.9375,-3.11914 z m 153.14648,0.041 5.05469,3.14257 5.05469,3.14258 0.49609,2.58594 0.4961,2.58789 1.54492,4.8125 1.54687,4.81445 -3.16797,4.93555 -3.16796,4.9375 -0.14454,-0.0312 -0.14648,-0.0332 -1.75,-1.32813 -1.75,-1.32812 v -1.51758 -1.51758 l 1.5,-3.58984 1.5,-3.58985 v -2.55273 -2.55274 l -4.5,-3.17187 -4.5,-3.17188 v -0.74218 -0.74219 l 0.9668,-2.54492 z m 26,4.8457 0.62696,2.80664 0.625,2.80664 0.38476,1.5 0.38477,1.5 -0.72852,1.09766 -0.72656,1.09961 -4.26953,0.66601 -4.26953,0.66602 -0.83399,-2.26368 -0.83398,-2.26562 -0.63867,-2.64062 -0.63672,-2.64063 3.74023,-0.66211 3.74219,-0.66406 1.7168,-0.50196 z M 146,433 h 4.95508 4.95508 l 0.63086,3.75 0.63281,3.75 0.16211,1.5 0.16406,1.5 -5.75,0.30078 -5.75,0.29883 v -5.54883 z m 26,2.55469 V 439.77734 444 h -0.25977 -0.25976 l -1.27149,-2.03711 -1.27148,-2.03516 1.53125,-2.1875 z m 149.82812,3.2832 2.08594,1.11719 2.08594,1.11523 -0.0215,0.71485 -0.0234,0.71484 -1.82617,2.375 -1.82618,2.375 -0.62109,-3.82227 -0.61914,-3.82226 0.38281,-0.38477 z m 30.1504,6.93945 2.25976,0.61914 2.26172,0.61914 2.39648,2.02149 2.39649,2.02148 -2.26367,2.41016 -2.26368,2.41016 -3.61718,-1.93946 L 349.5293,452 h -1.75 -1.75 l -2.64844,4 -2.64648,4 -0.61719,-0.15039 -0.61719,-0.14844 -2.75,-0.41797 -2.75,-0.41601 v -1.00586 -1.00586 l 2.53125,-4.32031 2.5332,-4.32032 6.45703,-1.21875 z m -207.63868,2.625 7.02539,0.83985 7.02735,0.83789 1.2832,1.06445 1.2832,1.06641 1.50391,3.01562 1.50586,3.01563 -0.54297,0.8789 L 162.88281,460 h -1.76172 -1.76171 l -4.24415,-3.63477 -4.24609,-3.63281 -2.57031,1.375 -2.56836,1.375 -1.48047,2.25977 -1.48047,2.25781 -0.63476,-0.0527 -0.63477,-0.0527 -2.22656,-1.55273 -2.22656,-1.55469 3.64648,-4.19336 z M 188,515 v 0.97461 0.97461 l 2.9668,1.5332 2.96875,1.53516 3.78125,0.89062 3.7832,0.89063 2.75,0.10156 L 207,522 v -1.5 -1.5 h -1.28906 -1.28711 l -3.92383,-2 -3.92383,-2 h -4.28711 z m -11.04102,9.86719 -2.23046,0.3164 L 172.5,525.5 v 1.5 1.5 l 3.5,1.74805 3.5,1.74804 2.25,0.002 L 184,532 v -0.88086 -0.88086 l -3.52148,-2.68555 z m 11.99219,6.21484 -1.47656,0.56641 -1.47461,0.5664 v 1.36914 1.36914 l 2.25,1.38672 2.25,1.38477 7.5,2.24219 7.5,2.24023 2.5,0.81641 2.5,0.81836 2.75,0.0801 L 216,544 v -1.83008 -1.83203 l -2.25,-1.11523 -2.25,-1.11328 -7.82227,-2.07227 -7.82226,-2.07031 -3.45313,-1.44336 z m 114.8125,1.72656 -4.63281,0.67969 -4.63086,0.67969 -6.5,2.04687 -6.5,2.04688 -1.75,1.52344 -1.75,1.52539 V 542.6543 544 h 2.67188 2.67187 l 6.57813,-2.53125 6.57812,-2.5293 4.30078,-1.98242 4.30274,-1.98047 -0.66993,-1.08398 z m -62.55664,73.14063 3.64649,0.58203 3.64648,0.58398 2.18945,0.44532 2.18946,0.44726 0.51367,4.2461 0.51367,4.24609 0.53711,10.75 0.53711,10.75 h -6.51563 -6.51367 l -1.0664,-2.75 -1.06446,-2.75 0.69336,-13.27539 z M 239,650.48438 l 8.25,0.36328 8.25,0.36328 0.24609,0.22461 0.2461,0.22265 0.6289,4.58985 0.62891,4.59179 -8.24805,0.33008 -8.24609,0.33008 -0.87891,-2.31445 L 239,656.86914 v -3.19141 z m -4.46094,15.25585 3.48047,0.87891 L 241.5,667.5 h 9.20117 9.20117 l -0.70117,0.66211 -0.70117,0.66211 -6.5,0.45703 -6.5,0.45703 -4.17188,-0.42383 -4.17187,-0.42187 -1.30859,-1.57617 z m 3.96094,9.3711 10,0.58203 10,0.58398 0.11719,0.11133 0.11523,0.11133 0.67969,13.56836 0.67773,13.56836 -3.55078,1.91211 -3.55273,1.91211 0.33984,1.01953 0.33789,1.01953 2.91797,0.63086 2.91797,0.63281 -7.75,0.11719 L 244,711 l -0.11523,-0.75 -0.11524,-0.75 0.16406,-1.66797 0.16407,-1.66601 -2.04883,-0.6504 L 240,704.86523 239.9004,702.68164 239.8008,700.5 239.15041,687.80469 Z m 0.5,41.91992 6.25,0.70703 6.25,0.70703 3.5,0.0274 3.5,0.0273 1.60156,37.5 1.60156,37.5 -24.53515,-2.30078 0.87695,-21.84961 0.87696,-21.84961 0.0391,-15.23438 z" /><use
       xlink:href="#contour"
       x="0"
       y="0"
       id="use3"
       style="display:inline;opacity:1;mix-blend-mode:normal;fill:none;fill-opacity:1;stroke:none;stroke-opacity:1" /></g></svg>
