<?xml version="1.0" encoding="UTF-8" standalone="no"?>
<!-- Created with Inkscape (http://www.inkscape.org/) -->

<svg
   version="1.1"
   id="svg1"
   width="309.88977"
   height="309.88977"
   viewBox="0 0 309.88977 309.88977"
   sodipodi:docname="PYRO_R.png"
   inkscape:export-filename="PYRO_R.svg"
   inkscape:export-xdpi="96"
   inkscape:export-ydpi="96"
   xml:space="preserve"
   xmlns:inkscape="http://www.inkscape.org/namespaces/inkscape"
   xmlns:sodipodi="http://sodipodi.sourceforge.net/DTD/sodipodi-0.dtd"
   xmlns="http://www.w3.org/2000/svg"
   xmlns:svg="http://www.w3.org/2000/svg"><defs
     id="defs1" /><sodipodi:namedview
     id="namedview1"
     pagecolor="#ffffff"
     bordercolor="#000000"
     borderopacity="0.25"
     inkscape:showpageshadow="2"
     inkscape:pageopacity="0.0"
     inkscape:pagecheckerboard="0"
     inkscape:deskcolor="#d1d1d1"
     showgrid="false" /><g
     inkscape:groupmode="layer"
     inkscape:label="Image"
     id="g1"
     transform="translate(-1.0551181,-1.0551181)"><path
       style="fill:#000000"
       d="m 143.2,292.27436 c -0.528,-0.083 -2.112,-0.41541 -3.52,-0.73878 -1.408,-0.32337 -3.64,-0.76407 -4.96,-0.97935 -2.856,-0.46577 -3.52,-0.76893 -3.52,-1.60709 0,-0.34559 0.648,-2.53221 1.44,-4.85915 0.792,-2.32694 1.44,-4.46458 1.44,-4.75031 0,-0.5406 -2.00149,-2.34795 -4.48,-4.04545 -2.97361,-2.03659 -2.92815,-1.91904 -3.12182,-8.07205 -0.16128,-5.12384 -0.136,-5.46218 0.4081,-5.46218 0.31902,0 0.80811,0.21213 1.08688,0.4714 0.5732,0.53312 3.32756,2.80397 4.86211,4.0086 0.5605,0.44 2.27022,1.664 3.79938,2.72 1.52915,1.056 3.24226,2.25832 3.8069,2.67182 l 1.02661,0.75182 -0.17534,-0.75182 c -0.0964,-0.4135 -0.38401,-1.68782 -0.63904,-2.83182 -0.25503,-1.144 -0.61676,-2.728 -0.80383,-3.52 -0.18707,-0.792 -0.92231,-4.37806 -1.63386,-7.96902 l -1.29371,-6.52902 2.37994,-2.27098 c 1.30897,-1.24904 2.51396,-2.52799 2.67777,-2.84212 0.20469,-0.39253 -0.0777,-2.49407 -0.90312,-6.72 -2.34072,-11.98457 -2.53887,-13.61375 -1.68971,-13.89288 0.19099,-0.0628 0.94081,0.71794 1.66627,1.73493 0.72545,1.017 4.63719,5.15874 8.69274,9.20387 4.05555,4.04513 7.37373,7.5422 7.37373,7.77126 0,0.22906 -0.20769,0.73541 -0.46152,1.12522 -0.25384,0.38981 -0.91755,2.07674 -1.4749,3.74874 -0.55736,1.672 -1.15367,3.30496 -1.32515,3.62879 -0.46989,0.88741 -0.37498,3.21518 0.20191,4.95202 0.61436,1.84967 2.81867,6.08385 2.93982,5.64698 0.0469,-0.16928 0.4569,-2.39579 0.911,-4.94779 1.26948,-7.13422 2.022,-8.17452 3.56057,-4.92223 l 0.85049,1.79777 0.64535,-1.55777 c 0.35495,-0.85677 1.24944,-2.92577 1.98776,-4.59777 0.73832,-1.672 1.74635,-4.31255 2.24006,-5.86789 0.86321,-2.7194 1.45842,-3.5263 2.11607,-2.86865 0.16965,0.16965 0.51911,2.02477 0.77658,4.12249 0.25748,2.09773 0.63633,4.89405 0.84189,6.21405 0.20557,1.32 0.41496,2.76 0.46532,3.2 0.1665,1.45473 2.29313,11.9513 2.97502,14.68396 0.83393,3.34201 0.84717,5.22236 0.0485,6.89501 -0.34166,0.71557 -0.90333,2.02103 -1.24814,2.90103 -0.34482,0.88 -0.99954,2.248 -1.45495,3.04 -0.4554,0.792 -0.82974,1.53024 -0.83186,1.64053 -0.002,0.1103 1.54415,-0.34559 3.43615,-1.01307 4.85985,-1.71452 6.94804,-2.30797 7.63989,-2.17121 0.99387,0.19645 0.6801,2.01629 -0.99672,5.78093 -2.98843,7.23479 -12.91472,6.01311 -19.68317,6.64218 -3.7895,0.32593 -16.78432,0.63858 -18.08,0.435 z M 107.45395,285.2 c -0.91365,-0.97363 -6.00182,-8.48019 -7.08557,-10.45331 -0.378607,-0.68932 -1.04838,-1.88502 -1.48838,-2.65711 -0.44,-0.77209 -1.285649,-2.2961 -1.879221,-3.38669 -0.593571,-1.09059 -1.421571,-2.38994 -1.84,-2.88744 -0.418428,-0.49751 -0.760779,-1.03751 -0.760779,-1.2 0,-0.1625 -0.108,-0.29555 -0.24,-0.29567 -0.132,-1.3e-4 -0.24,0.89987 -0.24,2 V 268.32 l -0.999789,0.0973 c -0.715855,0.0696 -1.874551,-0.37013 -4.08,-1.54853 C 87.146095,265.96356 85.76,265.09179 85.76,264.93148 c 0,-0.16032 -0.214027,-0.29148 -0.475616,-0.29148 -0.261588,0 -1.640188,-0.64417 -3.063556,-1.43149 l -2.587941,-1.43149 0.223604,1.03149 c 0.122982,0.56732 0.775493,2.31509 1.450025,3.88394 0.674532,1.56885 1.152013,2.97285 1.061068,3.12 -0.322864,0.5224 -1.230548,0.25497 -2.19235,-0.64595 C 79.638855,268.66408 77.976,267.3291 76.48,266.19989 69.144408,260.66281 65.157853,256.99563 57.91262,249.12 c -1.295298,-1.408 -3.785777,-4.072 -5.534398,-5.92 -1.748622,-1.848 -3.52084,-3.89678 -3.938263,-4.55284 -0.417423,-0.65607 -1.327171,-1.94359 -2.021662,-2.86117 -1.505247,-1.98878 -1.882244,-3.62736 -1.157166,-5.0295 0.279169,-0.53985 1.676526,-2.51007 3.105238,-4.37826 2.801587,-3.66336 3.886828,-5.55137 3.48232,-6.05823 -0.140458,-0.176 -0.418863,-1.4 -0.618676,-2.72 -0.898663,-5.9367 -1.804481,-10.88 -1.993669,-10.88 -0.113535,0 -0.741152,1.692 -1.394704,3.76 -1.449952,4.588 -1.502033,4.69538 -2.337814,4.82009 -1.017267,0.15179 -1.808869,-0.41031 -2.946907,-2.09253 l -1.033408,-1.52756 0.199827,1.82968 c 0.352718,3.2296 0.52941,11.89346 0.266111,13.04839 -0.394244,1.7293 -1.22839,1.64193 -2.035897,-0.21325 -0.369829,-0.84965 -0.888736,-1.79212 -1.153127,-2.09437 -0.536201,-0.613 -2.582518,-5.55534 -3.483375,-8.41319 -0.355619,-1.12815 -0.978659,-1.69093 -1.123929,-1.9968 -0.778106,-1.35852 -0.962685,-2.81095 -1.097977,-4.31928 -0.510162,-4.27108 -0.191411,-7.70054 4.648471,-18.00118 0.661566,-1.408 1.316334,-2.92 1.455041,-3.36 0.209052,-0.66315 8.472295,-17.85188 9.845477,-20.48 0.445882,-0.85337 6.280836,-3.94421 14.155867,-7.49853 2.288,-1.03266 4.26021,-1.96395 4.38269,-2.06952 0.122479,-0.10557 0.385896,-2.69945 0.585369,-5.76417 0.199474,-3.06473 0.531264,-6.08077 0.73731,-6.70233 0.346724,-1.04591 0.744111,-1.31461 5.334631,-3.607 3.14468,-1.57038 5.122205,-2.75222 5.403192,-3.22914 0.343083,-0.58232 0.390549,-1.45441 0.210137,-3.86077 -0.128181,-1.7097 -0.34291,-3.10854 -0.477176,-3.10854 -0.134266,0 -0.904188,0.504 -1.710939,1.12 -0.806751,0.616 -1.619458,1.12 -1.806017,1.12 -0.186558,0 -0.339197,0.13326 -0.339197,0.29614 0,0.34343 -5.011545,4.18386 -5.459695,4.18386 -0.165168,0 -0.300305,0.12352 -0.300305,0.2745 0,0.15097 -1.044,1.07974 -2.32,2.06394 -1.276,0.98419 -2.769967,2.24831 -3.319927,2.80915 C 63.15844,144.68825 62.4,144.75367 62.4,143.85596 c 0,-0.23445 0.563658,-1.10838 1.252573,-1.94206 0.688915,-0.83368 1.714086,-2.39736 2.278158,-3.47484 1.868147,-3.56851 6.728334,-12.01307 7.016508,-12.19117 0.155843,-0.0963 1.173162,-1.9375 2.260711,-4.09151 1.087548,-2.15401 2.986471,-5.75475 4.219829,-8.00164 2.621436,-4.77566 3.578701,-5.71489 9.212221,-9.03865 2.024,-1.19415 3.784198,-2.26119 3.91155,-2.37119 0.127353,-0.11 0.384981,-2.2846 0.572507,-4.83245 0.449795,-6.111207 1.572569,-12.275499 2.708892,-14.87245 1.992274,-4.553141 3.552954,-7.785184 4.017537,-8.32 0.305774,-0.352 0.662914,-0.991421 0.793634,-1.420935 0.13073,-0.429515 1.0579,-2.157515 2.06037,-3.84 1.00248,-1.682486 2.37219,-4.067065 3.04381,-5.299065 2.7099,-4.970997 4.22416,-7.468003 5.84485,-9.638116 0.93574,-1.252964 2.32591,-3.556964 3.08927,-5.12 2.62442,-5.373707 10.31523,-15.508983 11.77901,-15.481884 0.44814,0.0083 0.65143,-0.165151 0.98378,-0.258378 1.7831,-0.500176 5.65802,-1.3445 8.39479,-1.676658 1.584,-0.186295 5.20057,-0.907123 8.03683,-1.601841 2.83625,-0.694717 5.57225,-1.263148 6.08,-1.263178 0.50774,-3e-5 2.05184,-0.21603 3.43132,-0.48 1.37948,-0.26397 4.06391,-0.479945 5.96539,-0.479945 h 3.45724 l 2.43461,2.458407 c 1.33903,1.352123 2.43461,2.613484 2.43461,2.803025 0,0.18954 0.27113,0.51394 0.60251,0.72089 0.33138,0.206949 1.36642,1.621963 2.30009,3.144474 1.97471,3.220083 1.74309,3.171429 6.0574,1.2724 1.496,-0.658493 3.46351,-1.34551 4.37225,-1.526704 l 1.65225,-0.329444 2.97652,2.688476 c 4.12245,3.723498 8.91898,8.461493 8.91898,8.810133 0,0.15956 0.34816,0.503461 0.7737,0.764226 0.42553,0.260764 3.71749,3.316254 7.31545,6.789977 l 6.54176,6.31586 0.22597,1.84414 c 0.12428,1.014277 0.29896,3.64414 0.38818,5.84414 0.0892,2.2 0.22048,5.08 0.29167,6.4 0.0712,1.32 0.13256,4.291841 0.13636,6.604092 l 0.007,4.204092 1.12,1.628194 c 0.616,0.895506 1.12,1.750539 1.12,1.900072 0,0.149533 0.756,1.299352 1.68,2.555153 0.924,1.255801 2.688,3.756092 3.92,5.556203 2.09374,3.059214 3.08358,4.392884 5.10342,6.876114 0.44912,0.55215 0.81658,1.07775 0.81658,1.168 0,0.0902 0.468,0.66471 1.04,1.27658 0.572,0.61188 1.18631,1.31028 1.36514,1.552 0.17883,0.24173 0.9216,1.1595 1.65061,2.0395 0.729,0.88 1.77649,2.37217 2.32774,3.31593 1.21945,2.08775 1.25073,3.66532 0.13607,6.86314 -1.13236,3.24857 -1.07332,3.50401 1.16044,5.02093 1.056,0.71712 1.92,1.44248 1.92,1.61192 0,0.16945 0.12102,0.30808 0.26892,0.30808 0.3195,0 4.5603,2.5533 7.20294,4.33674 1.84126,1.24261 3.11286,2.03847 5.32814,3.33472 0.616,0.36045 2.056,1.24574 3.2,1.96732 1.144,0.72157 3.34442,1.96177 4.88983,2.75599 1.5454,0.79422 2.97277,1.7503 3.17193,2.12463 0.19916,0.37433 0.76522,1.1846 1.25791,1.8006 1.44872,1.81131 5.08033,6.75685 5.08033,6.91842 0,0.0817 0.1451,0.32251 0.32244,0.53509 1.28463,1.53982 3.63952,4.65936 3.9152,5.18649 0.1841,0.352 0.78194,1.1608 1.32854,1.79734 1.95607,2.27791 3.0941,3.72564 4.3941,5.58986 0.72597,1.04104 1.44948,1.942 1.60782,2.00213 0.15834,0.0601 0.84247,0.92413 1.52029,1.92 0.67783,0.99587 2.36623,3.08747 3.75201,4.64801 3.21117,3.61612 3.22059,3.62967 2.80939,4.04087 -0.23442,0.23442 -0.95687,-0.13403 -2.3928,-1.22035 -2.5638,-1.93959 -5.51302,-3.61062 -13.25699,-7.5114 -6.18125,-3.11361 -10.61356,-5.14466 -14.09134,-6.45719 -1.06223,-0.4009 -2.64668,-1.09139 -3.521,-1.53444 -1.57982,-0.80056 -1.5966,-0.8019 -2.70866,-0.21644 -0.61545,0.32402 -1.263,0.66132 -1.439,0.74957 -0.176,0.0882 -0.96347,0.32558 -1.74993,0.52741 l -1.42994,0.36696 1.10994,0.93682 c 0.61046,0.51524 1.93793,1.53008 2.94993,2.25519 1.012,0.72512 1.84,1.44153 1.84,1.59203 0,0.15049 0.13678,0.27363 0.30396,0.27363 0.27345,0 1.65514,0.90218 4.16564,2.72 0.48613,0.352 1.65934,1.15946 2.60714,1.79435 0.94779,0.6349 2.80326,2.04489 4.12326,3.13332 3.91903,3.23152 4.62169,3.77334 6.15201,4.74385 1.33734,0.84811 1.92676,1.29349 4.47289,3.37978 0.75854,0.62155 1.00641,1.35525 2.0157,5.96648 0.63295,2.89178 1.42054,6.99578 1.75021,9.12 0.32967,2.12422 0.89207,5.4711 1.24977,7.43752 0.79378,4.36366 1.23236,10.80296 0.75586,11.09746 -0.4256,0.26303 -2.24526,-1.79774 -2.50651,-2.83863 -0.10962,-0.43677 -0.31348,-0.79413 -0.45301,-0.79413 -0.13954,0 -0.54661,-0.468 -0.9046,-1.04 -0.35799,-0.572 -1.23246,-1.832 -1.94328,-2.8 -1.89721,-2.58366 -2.87119,-3.96305 -5.28214,-7.48077 l -2.16629,-3.16076 0.21969,-2.48181 c 0.14822,-1.67449 -0.19458,-2.42807 -0.13031,-2.69812 0.44723,-1.87911 0.115,-0.53076 0.81998,-3.27524 0.0523,-0.20362 -2.52469,2.21127 -3.20085,3.17915 -3.89176,5.57079 -3.98593,5.74989 -3.56341,6.77711 0.22181,0.53924 0.49959,1.77244 0.61729,2.74044 0.11771,0.968 0.41955,2.912 0.67075,4.32 0.68781,3.85515 1.42625,11.39099 1.42625,14.555 0,2.1044 -0.1201,2.90631 -0.48,3.205 -0.264,0.2191 -0.48336,0.56073 -0.48747,0.75918 -0.004,0.19845 -1.42716,1.83664 -3.16234,3.64043 l -3.15486,3.27961 -0.31136,7.12039 c -0.39172,8.95826 -0.4937,9.26233 -4.58821,13.68039 -8.00579,8.63841 -9.38678,9.92 -10.6894,9.92 -0.6351,0 -0.63516,-1.41607 -1.8e-4,-4.69185 0.39634,-2.04473 1.43382,-9.82039 1.43382,-10.74619 0,-0.13308 -0.11963,-0.24196 -0.26584,-0.24196 -0.14622,0 -1.10075,1.908 -2.1212,4.24 -1.02044,2.332 -2.51515,5.752 -3.32158,7.6 -2.02993,4.65174 -3.37777,6.86371 -4.77685,7.83938 -2.65037,1.84828 -8.19821,5.34796 -9.14544,5.76911 -2.73917,1.21789 -5.36034,2.08997 -5.68279,1.89068 -0.38932,-0.24061 -0.34821,-0.84187 0.47997,-7.01917 0.28315,-2.112 0.63625,-5.30387 0.78466,-7.09304 l 0.26983,-3.25305 1.61265,-1.80935 c 1.63755,-1.8373 3.07938,-4.90428 2.63988,-5.61542 -0.1627,-0.26326 -0.73796,-0.31079 -1.87266,-0.15473 -2.06383,0.28385 -2.30988,-0.15934 -1.35891,-2.44763 0.37305,-0.89767 0.67828,-1.8393 0.67828,-2.09251 0,-0.56628 4.67881,-9.97763 5.31141,-10.68381 0.25105,-0.28025 1.10252,-2.15225 1.89215,-4.16 0.78964,-2.00775 1.56496,-3.87663 1.72294,-4.15307 0.76618,-1.34066 4.68742,-12.2776 5.10003,-14.22476 0.15004,-0.70805 0.18745,-1.50835 0.0831,-1.77843 -0.24317,-0.62959 -2.26174,-2.37293 -4.50967,-3.89479 -0.968,-0.65534 -2.22137,-1.98871 -3.13391,-2.47547 -0.88838,-0.47387 -0.2505,-0.27178 -1.7904,-1.28394 -1.79355,-1.17888 -1.63763,-1.80655 -1.01347,-2.99582 0.46459,-0.88523 1.7497,-4.3655 3.85729,-9.48418 3.54632,-8.6129 3.47213,-8.3064 2.22341,-9.18506 -0.44939,-0.31622 -1.41139,-1.05327 -2.13776,-1.63791 -0.72638,-0.58463 -1.85572,-1.33591 -2.50964,-1.66952 l -1.18895,-0.60656 0.17385,5.26318 0.17385,5.26317 -1.72714,1.82649 c -0.94992,1.00457 -3.02313,3.17472 -4.60713,4.82256 -3.70848,3.85795 -3.59803,3.14173 -2.25806,14.64365 0.28706,2.464 0.73269,7.17125 0.9903,10.46056 0.25761,3.2893 0.68424,7.00672 0.94807,8.26092 0.26631,1.26598 0.47969,3.91794 0.47969,5.9617 0,3.60532 -0.0145,3.67922 -0.70063,3.57908 -0.39854,-0.0582 -1.43881,-0.99908 -2.41271,-2.18226 -2.84478,-3.45611 -3.19943,-3.84 -3.54747,-3.84 -0.21749,0 -0.24077,0.32685 -0.0666,0.93429 0.14737,0.51386 0.37041,2.02771 0.49564,3.36412 l 0.22769,2.42984 -1.40226,1.35587 c -0.77125,0.74574 -2.12034,1.93188 -2.99799,2.63588 -0.87764,0.704 -2.29938,1.98888 -3.15943,2.85529 l -1.56371,1.57529 0.21059,3.06471 c 0.11582,1.68559 0.29901,4.44291 0.40709,6.12737 l 0.1965,3.06266 -0.88653,0.69734 c -0.48759,0.38354 -1.08928,0.69734 -1.33708,0.69734 -0.24781,0 -1.12839,0.61849 -1.95685,1.37443 -0.82846,0.75593 -1.93829,1.55767 -2.46629,1.78165 -0.528,0.22397 -1.464,0.73221 -2.08,1.12943 -2.78592,1.79644 -4.49975,2.70742 -5.48963,2.91801 -0.5887,0.12524 -1.31937,0.44728 -1.6237,0.71565 -0.49633,0.43769 -0.57306,0.43652 -0.74491,-0.0113 -0.15869,-0.41355 1.39783,-7.16547 4.47871,-19.42786 0.95894,-3.81672 1.11157,-4.631 1.12559,-6.00516 0.0129,-1.26436 0.18982,-1.54105 2.39581,-3.74703 1.31003,-1.31003 2.87298,-3.14371 3.47322,-4.07484 0.60024,-0.93114 1.4004,-1.96729 1.77813,-2.30257 0.37773,-0.33527 0.68678,-0.95301 0.68678,-1.37274 0,-0.8222 -1.0641,-3.12645 -1.59543,-3.45483 -0.17851,-0.11033 -0.32457,-0.41418 -0.32457,-0.67522 0,-0.26104 -0.15196,-0.64854 -0.33769,-0.86112 -0.18573,-0.21257 -1.08573,-1.52929 -2,-2.92606 -0.91427,-1.39676 -1.79969,-2.71943 -1.9676,-2.93926 -0.26061,-0.34122 0.32068,-4.36804 0.99882,-6.91916 0.10701,-0.40258 0.009,-0.50464 -0.35077,-0.36647 -0.2413,0.1966 -0.21129,0.27816 -0.26605,0.47069 -0.0406,0.14266 -0.19412,0.39837 -0.4931,0.66575 -0.29899,0.26738 -1.33561,1.39373 -2.30361,2.503 -3.56349,4.08355 -4.312,4.61663 -4.68922,4.80502 -0.6534,0.32631 -0.46377,0.44242 -0.39968,0.55792 0.21384,0.38537 0.30661,0.60118 0.74401,1.4312 1.14294,2.16883 4.02486,10.21308 4.02486,11.23452 0,1.36762 -1.09073,4.99271 -3.57942,11.89636 -1.26892,3.52 -2.36305,6.472 -2.4314,6.56 -0.33612,0.43276 -1.35491,-1.53075 -1.7925,-3.45467 -0.27073,-1.1903 -0.87064,-3.16794 -1.33314,-4.39475 -0.4625,-1.22682 -1.89714,-5.32658 -3.18809,-9.11058 -2.99224,-8.77073 -5.54865,-15.45324 -6.02422,-15.74745 -0.2422,-0.14984 -0.55002,0.29467 -0.88562,1.27889 -0.28292,0.82971 -0.80913,2.15656 -1.16936,2.94856 -0.36022,0.792 -0.89675,2.232 -1.19228,3.2 -1.3205,4.32523 -2.51357,7.36 -2.89348,7.36 -0.57522,0 -2.07817,-1.59832 -4.66404,-4.96 -1.21845,-1.584 -2.92043,-3.744 -3.78218,-4.8 -0.86175,-1.056 -2.05526,-2.64 -2.65225,-3.52 -0.59699,-0.88 -1.83391,-2.67504 -2.74873,-3.98898 -0.91481,-1.31394 -1.66329,-2.68533 -1.66329,-3.04753 0,-0.36221 1.22381,-3.10317 2.71958,-6.09102 1.49577,-2.98786 2.71575,-5.72047 2.71106,-6.07247 -0.005,-0.352 -0.44472,-1.864 -0.97784,-3.36 -0.53312,-1.496 -1.20458,-3.404 -1.49214,-4.24 -0.28755,-0.836 -0.61444,-1.52 -0.72643,-1.52 -0.23203,0 -0.82923,4.56711 -1.14024,8.72 -0.19384,2.58844 -0.26176,2.8 -0.89893,2.8 -0.37908,0 -1.19005,-0.4099 -1.80215,-0.91088 -2.51953,-2.06216 -2.40481,-2.24092 -2.29884,3.58204 0.0902,4.95845 0.45281,9.62364 0.8929,11.48884 0.15253,0.64643 0.0862,0.88 -0.2498,0.88 -0.58705,0 -1.75758,-1.24862 -3.50684,-3.74082 -3.45033,-4.91572 -5.60558,-7.69823 -6.71404,-8.66807 -1.54406,-1.35097 -1.72562,-1.99977 -0.97749,-3.49291 1.13871,-2.27263 1.12437,-2.75236 -0.10353,-3.46257 -1.26929,-0.73415 -6.94428,-4.24161 -8.21602,-5.07795 -0.85239,-0.56056 -0.85979,-0.55883 -0.76231,0.17813 0.0541,0.4093 0.17707,0.96019 0.27318,1.22419 0.20159,0.55375 1.22703,6.73229 1.35429,8.16 0.0471,0.528 0.16148,1.176 0.25425,1.44 0.0928,0.264 0.41008,1.28843 0.70514,2.27652 0.4839,1.62051 0.70737,1.90268 2.28089,2.88 0.95944,0.59591 2.42188,1.5178 3.24987,2.04863 l 1.50544,0.96514 -0.007,4.47486 c -0.004,2.46117 -0.0273,5.77085 -0.0527,7.35485 -0.0254,1.584 -0.0224,3.59701 0.007,4.47335 0.0743,2.24738 -0.68293,2.32831 -2.60157,0.27805 -5.95141,-6.35968 -14.82614,-15.04027 -19.09339,-18.67573 -1.75318,-1.49362 -3.54281,-3.05875 -3.97695,-3.47808 -0.43414,-0.41932 -1.85362,-1.47737 -3.15441,-2.35122 -1.30079,-0.87385 -2.4529,-1.8177 -2.56025,-2.09744 -0.13237,-0.34496 0.2866,-0.93256 1.30203,-1.82609 l 1.4972,-1.31747 0.0301,-6.54268 c 0.0165,-3.59848 0.12454,-7.8833 0.24,-9.52181 0.11547,-1.63852 0.10771,-3.25547 -0.0172,-3.59323 -0.37024,-1.00081 -4.80177,-4.74081 -4.98084,-4.2036 -0.0603,0.18097 0.33081,1.64378 0.86917,3.2507 0.53837,1.60691 0.97885,3.13346 0.97885,3.39233 0,0.25887 -0.5052,1.49291 -1.12268,2.74232 -0.61747,1.2494 -1.7054,4.01741 -2.417622,6.15112 -0.71222,2.13371 -1.381097,4.09548 -1.486393,4.35948 -0.364578,0.91408 -0.25526,1.44748 0.630993,3.07882 0.489672,0.90135 1.372962,3.06135 1.962862,4.8 1.23643,3.64423 4.10894,11.20333 4.97094,13.08118 1.6659,3.62916 2.9019,6.88088 2.9019,7.63447 0,1.6826 -0.80742,1.31631 -9.149848,-4.1508 -3.152471,-2.06594 -3.444754,-2.39341 -3.186345,-3.56995 0.11023,-0.50187 0.06009,-1.26376 -0.111411,-1.6931 -0.251879,-0.63054 -0.315728,-0.37619 -0.332112,1.32299 -0.02291,2.37543 0.991047,6.16821 2.557564,9.56681 l 0.981116,2.12856 3.580516,1.84468 c 5.17492,2.6661 5.93816,3.26193 7.43708,5.80576 1.2946,2.19708 1.88525,3.35208 7.15461,13.99058 1.46017,2.948 2.77794,5.36 2.92836,5.36 0.38717,0 1.90047,2.6618 1.90047,3.3428 0,0.75893 -1.0756,0.49046 -3.9495,-0.98578 -1.20423,-0.61857 -2.24415,-1.07004 -2.31094,-1.00325 -0.14314,0.14315 2.24757,10.2076 2.75695,11.60623 1.50381,4.12908 2.13435,9.12 1.1522,9.12 -0.38158,0 -1.57115,-1.1787 -5.16722,-5.12 -0.56205,-0.616 -1.29415,-1.552 -1.62689,-2.08 -0.87165,-1.38311 -4.76261,-6.66432 -6.83711,-9.28 l -1.77655,-2.24 -0.21675,1.44 c -0.11921,0.792 -0.22742,2.70142 -0.24047,4.24316 l -0.0237,2.80316 1.88182,2.31684 c 1.035,1.27426 2.187,2.59116 2.56,2.92644 0.63472,0.57053 0.67818,0.92292 0.67818,5.49916 0,7.61517 -0.71398,7.00683 -1.98605,5.65124 z M 95.821817,246.16 c -0.483449,-0.836 -1.775094,-2.888 -2.870323,-4.56 -1.095228,-1.672 -2.573356,-4.048 -3.284727,-5.28 -0.711371,-1.232 -1.662197,-2.68809 -2.112946,-3.23575 -0.45075,-0.54766 -1.489038,-2.27566 -2.307308,-3.84 -0.81827,-1.56434 -1.685482,-3.07159 -1.927138,-3.34945 C 83.077719,225.61694 82.88,225.23774 82.88,225.05213 c 0,-0.18562 -0.267261,-0.40738 -0.593914,-0.4928 -0.724289,-0.1894 -1.004327,-2.26413 -0.989441,-7.3305 0.0055,-1.87614 -0.08419,-3.78654 -0.19934,-4.24533 -0.115149,-0.45879 -1.821852,-2.45176 -3.792674,-4.42883 -5.610514,-5.6283 -6.91632,-7.60624 -7.760244,-11.75467 -0.08951,-0.44 -0.542034,-1.79664 -1.005609,-3.01477 l -0.842863,-2.21476 -0.247839,1.09476 c -0.469233,2.07271 -0.299061,4.25355 0.497426,6.37477 1.951111,5.19624 2.564207,6.61303 4.660393,10.7696 1.228852,2.43672 2.54163,5.3664 2.917285,6.5104 0.375654,1.144 1.176615,2.98496 1.779914,4.09102 l 1.096906,2.01101 0.01978,5.18899 c 0.01088,2.85394 0.123612,6.19698 0.250514,7.42898 0.218513,2.1214 0.331829,2.36565 2.140216,4.61311 l 1.909487,2.3731 0.16,-1.70826 c 0.088,-0.93954 0.309411,-1.75724 0.492024,-1.81711 0.182613,-0.0599 1.694613,0.98579 3.36,2.3237 1.665387,1.33791 4.251976,3.23131 5.747976,4.20757 1.496,0.97626 3.008,1.96386 3.36,2.19467 0.352,0.23081 0.689683,0.4272 0.750407,0.43644 0.06072,0.009 -0.285142,-0.66722 -0.76859,-1.50322 z m 65.471733,-61.46489 c 0.97546,-0.38025 2.63146,-1.37621 3.68,-2.21324 1.55362,-1.24022 2.15046,-2.01211 3.22493,-4.17079 1.40037,-2.81346 2.27151,-4.00448 2.72429,-3.72465 0.55396,0.34237 0.23487,1.62164 -0.97116,3.89357 -0.67735,1.276 -1.1285,2.32 -1.00255,2.32 0.4789,0 6.70551,-1.3507 9.77094,-2.11956 3.42651,-0.85941 10.65837,-3.56149 12.32,-4.60318 0.264,-0.16551 1.57639,-0.88644 2.91642,-1.60208 3.12925,-1.67116 3.82723,-2.43181 4.17047,-4.54495 0.77286,-4.75822 0.0614,-26.74416 -1.01773,-31.45023 -0.16143,-0.704 -0.29703,-1.89707 -0.30134,-2.65126 -0.009,-1.66318 -0.0984,-1.63266 -3.44521,1.1822 -2.61271,2.19745 -3.28261,2.40636 -3.28261,1.02367 0,-0.63593 0.4303,-1.41167 1.37566,-2.48 0.75661,-0.85504 2.08249,-2.46561 2.94641,-3.57906 1.32345,-1.70571 1.36582,-1.41869 1.81415,-1.67193 0.38359,-0.21668 0.49277,-0.34203 0.74378,-0.62362 l 2.92744,-2.37702 c 0.92408,-1.238 0.96139,-1.37844 0.45086,-1.69727 -0.4591,-0.28671 -0.59354,-1.03928 -0.76755,-4.29664 -0.11602,-2.17198 -0.45143,-4.95705 -0.74534,-6.18905 -0.4821,-2.02081 -0.58981,-3.50118 -0.43262,-5.94576 0.0422,-0.65613 -0.67468,-1.55469 -3.48985,-4.37432 -1.94861,-1.95172 -3.54319,-3.668124 -3.54349,-3.814245 -3.1e-4,-0.146121 -1.40431,-1.713211 -3.12,-3.482422 -1.7157,-1.769211 -3.34106,-3.551211 -3.61192,-3.96 -0.65377,-0.986682 -1.4821,-0.94816 -5.12973,0.23856 -1.65979,0.539996 -3.9538,1.18854 -5.0978,1.441208 l -2.08,0.459396 4.0313,-0.168123 c 4.64466,-0.193704 5.52306,-0.04562 6.2425,1.052389 0.42048,0.641727 0.44475,0.889491 0.12487,1.274919 -0.32475,0.3913 -1.42402,0.478699 -6.03785,0.480054 -3.10245,9.1e-4 -7.06827,0.09617 -8.81294,0.211687 l -3.17212,0.210031 0.93212,0.756262 c 0.51267,0.415943 1.10604,0.896684 1.31861,1.068312 0.21258,0.171629 0.51894,0.312052 0.68082,0.312052 0.16188,0 0.47359,0.216 0.69269,0.48 0.32399,0.390384 0.30875,0.48 -0.0816,0.48 -0.264,0 -0.64486,-0.198646 -0.84635,-0.441435 -0.2015,-0.24279 -0.81369,-0.530901 -1.36042,-0.640247 -0.54673,-0.109346 -1.8755,-0.621142 -2.95282,-1.137324 -1.07732,-0.516182 -2.41803,-1.029592 -2.97934,-1.140911 -1.01068,-0.200439 -1.02153,-0.189029 -1.12,1.17876 -0.0547,0.759636 0.0703,2.988897 0.27785,4.953927 0.2075,1.96502 0.46226,4.55702 0.56613,5.76 0.10386,1.20297 0.32382,2.83523 0.48878,3.62723 0.41386,1.98693 0.41261,4.17863 -0.002,3.46832 -0.62745,-1.07504 -2.33299,-8.23507 -3.73353,-15.673765 -0.13396,-0.711511 -0.47106,-0.945504 -2.12793,-1.47706 -1.83604,-0.589039 -2.03059,-0.596761 -2.88619,-0.114555 -0.50459,0.284383 -1.03584,0.80506 -1.18055,1.15706 -0.26102,0.634913 -1.03924,5.41968 -1.43126,8.8 -0.38663,3.33378 -2.41327,8.62983 -3.30499,8.63667 -0.29455,0.002 -0.35484,-0.1768 -0.18742,-0.55667 0.78097,-1.77191 1.7394,-6.58654 1.9057,-9.57314 0.10487,-1.88327 0.27469,-3.56008 0.37738,-3.72625 0.1027,-0.16616 0.16138,-1.47178 0.1304,-2.90136 -0.0657,-3.032796 -0.42861,-3.540768 -2.35308,-3.293905 -1.39883,0.179437 -6.15927,2.295644 -7.17587,3.189961 -0.38342,0.337304 -0.88269,0.551424 -1.10951,0.475814 -0.34411,-0.1147 3.56052,-2.900107 5.6033,-3.997165 1.09739,-0.589338 -1.83001,-0.833002 -10.51666,-0.87536 -4.576,-0.02231 -8.4651,-0.130552 -8.64244,-0.240531 -0.17734,-0.109979 -0.86134,-0.301061 -1.52,-0.424626 C 121.4989,94.749873 120.96,94.4608 120.96,94.231054 c 0,-0.229747 -0.18,-0.478303 -0.4,-0.552348 -0.30909,-0.104031 -0.29678,-0.259651 0.0542,-0.684737 0.37031,-0.448522 0.96123,-0.542868 3.2,-0.510901 6.42618,0.09176 7.2409,0.0348 6.73439,-0.470763 -0.78789,-0.786416 -7.14354,-4.081679 -7.883,-4.087159 -0.66162,-0.0049 -2.46334,1.065039 -3.14557,1.867975 -0.176,0.20714 -2.192,1.928121 -4.48,3.824401 -2.288,1.896281 -4.32428,3.74809 -4.52508,4.115131 -0.7381,1.349237 -3.31472,12.735547 -3.36461,14.868527 -0.0149,0.63735 -0.22582,2.14023 -0.46871,3.33974 -1.06676,5.26837 0.14059,10.66061 2.82956,12.63723 0.31286,0.22998 0.56884,0.56013 0.56884,0.73367 0,0.17354 1.224,1.4989 2.72,2.94524 1.496,1.44635 2.72,2.79259 2.72,2.99164 0,0.19906 0.324,0.44474 0.72,0.54597 0.80377,0.20546 4.72,3.80957 4.72,4.34382 0,0.18783 -0.41319,0.34151 -0.9182,0.34151 -0.6003,0 -1.93313,-0.69244 -3.84966,-2 -3.02183,-2.06165 -4.50251,-2.93911 -4.63899,-2.74908 -0.0431,0.06 0.0368,1.83708 0.17752,3.94908 0.14073,2.112 0.18598,4.2 0.10055,4.64 -0.35131,1.80949 -0.10145,11.72476 0.48786,19.36 0.50613,6.55738 0.36128,6.17468 2.99231,7.90601 1.25873,0.82831 2.86461,1.71488 3.56861,1.97015 0.704,0.25528 2.504,1.03086 4,1.72351 3.39889,1.5737 10.44274,4.22053 14.24,5.35089 1.584,0.47153 3.43208,1.05571 4.10685,1.29818 l 1.22684,0.44087 -0.56568,-0.86481 c -0.31113,-0.47564 -1.11502,-1.6568 -1.78643,-2.6248 -1.20061,-1.73097 -1.67279,-3.71333 -0.82158,-3.44923 0.22,0.0683 1.07931,1.14678 1.90959,2.39671 2.19202,3.29999 6.46693,6.45432 9.93127,7.32803 2.55818,0.64517 7.96425,0.4005 10.17269,-0.4604 z M 177.12,168.64221 c -3.19206,-0.49955 -4.50231,-0.89073 -5.00259,-1.49353 -0.40308,-0.48567 -0.16805,-0.50869 3.01606,-0.2954 1.89926,0.12722 5.0672,0.13195 7.03987,0.0105 l 3.58666,-0.2208 -0.0841,-4.8415 c -0.11385,-6.55731 -0.84484,-10.50145 -3.13955,-16.9398 -0.42701,-1.19807 -0.77638,-2.24207 -0.77638,-2.32 0,-0.32012 1.22529,-0.11211 1.52162,0.25831 0.64293,0.8037 5.76536,15.7295 6.31586,18.40322 0.11813,0.57377 0.44269,1.50007 0.72124,2.05844 0.67938,3.82658 1.60813,3.58414 -1.54827,5.55362 -0.89566,0.46317 -1.58847,0.51417 -4.49011,0.33056 -2.91509,-0.18445 -3.0503,0.045 -3.73142,0.09 -0.76057,0.0502 -2.32409,-0.39051 -3.42889,-0.59359 z m -52.54441,-1.39987 c 0.21971,-1.94276 1.00901,-8.02034 1.60725,-8.78311 0.18152,-0.23144 0.35421,-0.73544 0.38375,-1.12 0.19513,-2.54066 3.54707,-12.90277 4.51582,-13.96013 0.73234,-0.79933 0.71952,-0.26114 -0.0644,2.70095 -1.82506,6.89641 -2.432,10.49206 -2.60971,15.46054 -0.0964,2.6953 -0.0477,5.02722 0.10818,5.18205 0.61412,0.60989 5.13102,0.30667 9.56346,-0.642 2.464,-0.52737 4.624,-0.90933 4.8,-0.84879 0.68763,0.23651 -2.90421,2.11877 -4.91462,2.57544 -6.50953,1.47867 -11.32196,2.15716 -13.02986,1.6033 -0.8352,-0.41132 -0.44265,-1.43625 -0.35987,-2.16825 z m 53.43384,-6.79439 c -2.76745,-1.89121 -10.18257,-10.16713 -12.73016,-14.20795 -0.49933,-0.792 -1.23433,-1.944 -1.63335,-2.56 -0.39902,-0.616 -0.82186,-1.51466 -0.93965,-1.99702 -0.43306,-1.77349 1.72421,-1.28437 2.29003,0.51922 0.5817,1.85426 5.74868,8.9735 7.22713,9.9578 2.61085,1.73822 4.09657,2.85718 4.09657,3.08531 0,0.15108 0.20434,0.27469 0.45408,0.27469 0.74265,0 4.7025,4.5476 4.5976,5.28 -0.15176,1.05946 -1.50394,0.91788 -3.36225,-0.35205 z m -43.91566,0.0486 c -0.30084,-0.36249 -0.29195,-0.6336 0.0408,-1.24491 0.64097,-1.17749 3.86199,-5.30098 5.41462,-6.93168 2.76308,-2.90203 7.83394,-9.74334 8.1473,-10.99187 0.24509,-0.97651 1.08026,-1.08342 4.01981,-0.51457 2.5667,0.4967 5.60454,0.41593 8.03145,-0.21352 1.18743,-0.30799 2.26231,-0.45662 2.38863,-0.33031 0.12631,0.12632 -0.13315,0.59248 -0.5766,1.03592 -1.20822,1.20823 -5.9384,1.93053 -9.21921,1.40779 -1.30868,-0.20852 -2.53402,-0.43845 -2.72297,-0.51096 -0.18896,-0.0725 -0.99022,0.90363 -1.78059,2.1692 -0.79037,1.26558 -2.06085,3.10368 -2.8233,4.08468 -0.76244,0.981 -1.95312,2.74935 -2.64595,3.92966 -0.69283,1.18032 -1.52173,2.33232 -1.84201,2.56 -0.32028,0.22769 -0.67786,0.80008 -0.79462,1.27197 -0.11676,0.4719 -1.04387,1.7319 -2.06025,2.8 -1.87923,1.97488 -2.83677,2.37068 -3.57713,1.4786 z m 16.47331,-6.88514 c -0.24366,-0.39424 1.27029,-2.57145 1.78809,-2.57145 0.17743,0 0.23344,-0.14427 0.12446,-0.3206 -0.22107,-0.3577 1.12259,-0.9594 2.14242,-0.9594 0.36321,0 1.20529,0.468 1.87128,1.04 0.66599,0.572 1.53649,1.26687 1.93445,1.54415 0.48674,0.33915 0.65421,0.68487 0.51167,1.05632 -0.1831,0.47716 -0.48409,0.52117 -2.21567,0.32398 -2.41065,-0.27452 -2.24671,-0.27504 -4.28927,0.0136 -1.10456,0.15609 -1.71845,0.11447 -1.86743,-0.12659 z M 148.96,131.52386 c -2.18548,-0.78409 -4.78028,-1.43862 -6.84417,-1.72643 -4.08481,-0.56962 -4.68767,-1.01212 -4.65229,-3.41483 0.0159,-1.08021 0.23469,-1.88154 0.67454,-2.47067 0.94645,-1.26767 1.56526,-1.14097 1.44067,0.29497 -0.0557,0.64179 0.0553,1.74816 0.24658,2.4586 0.39546,1.46864 0.8489,1.64405 3.30387,1.27811 0.84106,-0.12537 6.52906,-0.30979 12.64,-0.40982 6.11094,-0.10002 11.7948,-0.26556 12.6308,-0.36785 1.37243,-0.16794 1.52358,-0.26852 1.55685,-1.03597 0.0573,-1.32243 -0.0659,-2.10267 -0.38452,-2.43397 -0.16078,-0.1672 -0.29233,-0.57232 -0.29233,-0.90027 0,-0.4778 0.20235,-0.57636 1.01842,-0.496 0.92134,0.0907 1.0805,0.27348 1.66979,1.91745 0.93644,2.61239 0.5976,3.36534 -1.8545,4.12095 -1.03746,0.31969 -2.47746,0.67868 -3.2,0.79774 -0.72254,0.11907 -1.45771,0.32544 -1.63371,0.45861 -0.176,0.13316 -0.896,0.42467 -1.6,0.64779 -0.704,0.22312 -2.144,0.84003 -3.2,1.37089 -1.65677,0.83289 -2.33678,0.9795 -4.96,1.0694 -2.86313,0.0981 -3.2448,0.0307 -6.56,-1.1587 z M 90.031215,183.12 c 0.593593,-1.188 1.331641,-2.952 1.640106,-3.92 0.308466,-0.968 0.904609,-2.36164 1.324763,-3.09698 0.972142,-1.70142 0.954714,-2.98187 -0.07327,-5.38302 -0.726456,-1.69685 -2.734598,-7.03642 -3.219306,-8.56 -0.25414,-0.79884 -0.74422,-0.69283 -0.739673,0.16 0.0021,0.396 -0.348606,2.232 -0.779372,4.08 -1.165149,4.99852 -1.728459,7.84986 -2.153784,10.90194 -0.348029,2.49741 -0.327196,2.8769 0.233606,4.25524 0.539728,1.32655 2.184297,3.72282 2.554985,3.72282 0.07297,0 0.618347,-0.972 1.211941,-2.16 z M 151.74659,93.96738 c 0.0564,-0.378059 0.001,-1.33538 -0.12294,-2.12738 -0.12402,-0.792 -0.23408,-2.637608 -0.24457,-4.101351 -0.0172,-2.403016 0.0634,-2.769521 0.83088,-3.775709 0.56689,-0.743234 1.0667,-1.082483 1.50076,-1.018649 0.62126,0.09137 0.65404,0.338269 0.72226,5.441321 0.0393,2.940087 0.16446,5.496087 0.27813,5.68 0.24671,0.399184 1.75495,0.434866 2.35305,0.05567 0.55015,-0.348794 1.0242,-4.125974 1.03827,-8.272757 0.006,-1.804476 0.15339,-3.359414 0.32841,-3.467582 0.17452,-0.107859 0.65995,0.0284 1.07875,0.302808 0.77015,0.504624 1.56829,3.145198 1.43781,4.756881 -0.032,0.395653 -0.0423,1.77151 -0.0228,3.057461 l 0.0354,2.338091 0.99032,-0.578091 c 0.54467,-0.317951 1.34219,-0.927247 1.77226,-1.353993 0.43007,-0.426746 1.84337,-1.506746 3.14067,-2.4 1.2973,-0.893254 3.42807,-2.488099 4.73505,-3.544099 1.30698,-1.056 2.77714,-2.209432 3.26702,-2.563182 l 0.89069,-0.643183 -1.2476,-1.596817 C 173.82223,79.278568 172.42989,77.336 171.41432,75.84 c -1.01557,-1.496 -2.88325,-4.237688 -4.1504,-6.092641 -1.26716,-1.854952 -3.33609,-4.950952 -4.59763,-6.88 -2.37093,-3.625441 -3.4287,-4.947359 -3.95876,-4.947359 -0.16914,0 -0.30753,0.216 -0.30753,0.48 0,0.264 -0.15961,0.48 -0.35469,0.48 -0.63403,0 0.0274,1.66084 1.2669,3.181226 2.88367,3.537087 4.84779,6.520221 4.84779,7.362883 0,0.734388 -1.27849,0.27561 -1.96215,-0.704109 -0.39916,-0.572 -0.90344,-1.149826 -1.12063,-1.284057 -0.21719,-0.134231 -0.83584,-0.998231 -1.37477,-1.92 -0.53893,-0.921769 -1.52046,-2.27823 -2.18117,-3.014359 l -1.20128,-1.338416 -0.68842,0.87089 -0.68841,0.87089 2.37003,3.123442 c 3.20193,4.21979 3.81115,5.442276 3.31232,6.646573 -0.21074,0.50877 -0.46441,0.925037 -0.56372,0.925037 -0.29047,0 -1.6618,-1.366363 -1.6618,-1.65578 0,-0.145321 -0.22242,-0.51622 -0.49427,-0.82422 -0.27184,-0.308 -0.99644,-1.208 -1.61022,-2 -1.39614,-1.801536 -2.72713,-3.2 -3.04562,-3.2 -0.13389,0 -0.53806,0.374553 -0.89816,0.832341 -0.73426,0.933469 -0.79064,0.761637 1.40661,4.287659 2.03356,3.263358 1.1656,4.546644 -1.43187,2.117015 C 151.45799,72.344657 150.4579,71.68 150.10404,71.68 c -0.61679,0 -2.47249,2.418454 -3.74733,4.883711 -0.43668,0.844456 -0.61486,0.931119 -1.58924,0.772998 -0.60358,-0.09795 -1.46418,-0.466579 -1.91244,-0.81918 -0.44826,-0.352601 -1.34602,-0.814805 -1.99502,-1.027121 -0.64901,-0.212315 -1.6696,-0.787262 -2.26798,-1.27766 l -1.08797,-0.891632 -2.33138,2.094861 c -1.28227,1.152174 -2.40656,2.290752 -2.49844,2.530175 -0.10102,0.263257 1.77691,2.391264 4.75125,5.383965 2.70506,2.721759 5.01331,5.24802 5.12944,5.613914 0.11613,0.365894 0.31835,0.599009 0.44937,0.518032 0.13102,-0.08098 0.87666,0.276038 1.65696,0.793365 l 1.41874,0.940594 0.19225,-4.398011 c 0.10574,-2.418906 0.21374,-4.434011 0.24,-4.478011 0.0263,-0.044 0.54843,-0.08 1.16037,-0.08 0.82387,0 1.24431,0.200973 1.62001,0.774368 0.46337,0.707191 0.46301,0.922336 -0.004,2.48 -0.6163,2.054909 -0.97773,6.143046 -0.68233,7.717704 0.16195,0.863263 0.42606,1.2123 1.08399,1.432556 1.18166,0.395587 1.93333,0.148043 2.05646,-0.677248 z"
       id="path1"
       sodipodi:nodetypes="sssssssssssssccssscsscssssssssssscssssssssssscssssssssssssssccsssscssssssssssssssssscsssssssssssssssssssssssssssssssssssssssssssssssscsssssscsssscsssccsssssssssssssssssssssssssssssssssssscsssssssssssssssssscssssssssscscssssssssssssscssssssssscsssssssscccssssssssssscssscsscsssssssssssssssssssscssssssssssssssssssssssscsssssssssssssssssssssccscssssssccscssssssssssssssscsssssssssssscsscsssssssssssssssssscssssscssscssssscssssssssssssscsssssccsssssssssscssssscsssssssssscsscssssscssssssssssssssssssscscssssssssssssssssscssssssscssscsssssssssscssscscsssccsssssssssssssssssssssssssssssssssssssssssssscsssssssssssssssscssssssssssccsssssscsssccssssscssssssscssssscccsssssssssssssssscsssssscscsscssccc" /><circle
       style="fill:none;stroke:#000000;stroke-width:1.88976;stroke-dasharray:none;stroke-opacity:1"
       id="path2-7"
       cx="156"
       cy="156"
       r="154" /></g></svg>
